<?xml version="1.0" standalone="no"?>
<!DOCTYPE svg PUBLIC "-//W3C//DTD SVG 1.1//EN" "http://www.w3.org/Graphics/SVG/1.1/DTD/svg11.dtd" >
<svg xmlns="http://www.w3.org/2000/svg" xmlns:xlink="http://www.w3.org/1999/xlink" version="1.1">
<metadata>
Created by FontForge 20170731 at Tue Mar 20 00:59:39 1934
 By Aleksey,,,
Copyright 2000 The Fontry 1.800.996.WILD
</metadata>
<defs>
<font id="SCRIPT1ScriptCasualNormal" horiz-adv-x="773" >
  <font-face 
    font-family="SCRIPT1 Script Casual"
    font-weight="400"
    font-stretch="normal"
    units-per-em="1000"
    panose-1="0 0 0 0 0 0 0 0 0 0"
    ascent="800"
    descent="-200"
    x-height="472"
    cap-height="718"
    bbox="-277.276 -286 1821 975"
    underline-thickness="20"
    underline-position="-163"
    unicode-range="U+0020-2122"
  />
<missing-glyph horiz-adv-x="800" 
d="M50 0v800h700v-800h-700zM700 50v700h-600v-700h600z" />
    <glyph glyph-name=".notdef" horiz-adv-x="800" 
d="M50 0v800h700v-800h-700zM700 50v700h-600v-700h600z" />
    <glyph glyph-name=".null" horiz-adv-x="0" 
 />
    <glyph glyph-name="nonmarkingreturn" horiz-adv-x="231" 
 />
    <glyph glyph-name="space" unicode=" " horiz-adv-x="231" 
 />
    <glyph glyph-name="exclam" unicode="!" horiz-adv-x="318" 
d="M234 81q0 79 -71 79q-54 0 -83 -28q-23 -23 -25.5 -42.5t-2.5 -29.5q0 -27 18 -43q22 -20 67 -20q40 0 65 24.5t32 59.5zM459 595q14 10 20.5 20.5t6.5 22.5q0 31 -43 58t-77 27q-10 1 -14 1q-49 0 -63 -50q-5 -21 -9 -41q-41 -88 -80.5 -176t-63.5 -171q-1 -4 -1 -12
q0 -26 24 -48q19 -17 45 -26q14 -3 22 -3q22 0 30 20q7 27 11 41q45 104 87 176q35 60 105 161z" />
    <glyph glyph-name="quotedbl" unicode="&#x22;" horiz-adv-x="426" 
d="M365 699q-12 -33 -61 -126q-56 -106 -74 -117q-28 -13 -56 -13q-26 0 -32 12q23 99 49 170.5t50 83.5q17 10 50 10q25 0 47.5 -6t26.5 -14zM585 700q-12 -33 -61 -126q-56 -106 -74 -117q-28 -13 -56 -13q-26 0 -32 12q23 99 49 170.5t50 83.5q17 10 50 10q25 0 47.5 -6
t26.5 -14z" />
    <glyph glyph-name="numbersign" unicode="#" horiz-adv-x="632" 
d="M466 425q-10 -26 -15 -38q-10 -25 -14 -38q-40 4 -89 4q6 18 13 36q3 8 16 37zM718 433q0 20 -27 35.5t-73 24.5q11 26 26 58l28 56t10 21.5t2 12.5q0 19 -15 23.5t-23 4.5q-33 0 -72 -47q-32 -39 -70 -115q-47 5 -90 5l46 98q7 13 9 18.5t2 12.5q0 19 -15 23.5t-23 4.5
q-33 0 -70 -44q-28 -34 -68 -110q-14 1 -26 1.5t-25 0.5q-23 0 -45 -2.5t-37 -11.5t-15 -30q0 -12 8 -33q5 -14 12.5 -20.5t17.5 -6.5q7 0 22 4t19 5l28 1q-8 -17 -14.5 -33t-13.5 -35l-60 1q-67 -6 -67 -42q0 -14 10.5 -37.5t29.5 -23.5q7 0 22 4t19 5h11l-26 -73
q-5 -23 -5 -38q0 -28 17.5 -41.5t59.5 -13.5q29 0 37.5 10.5t8.5 29.5q0 22 1 26q7 28 15.5 53t17.5 51q13 0 42 -1t45 -1l-27 -75q-5 -23 -5 -38q0 -27 17.5 -40.5t59.5 -13.5q23 0 34 7t11 33q0 17 2 25l30 97l99 -8q10 -2 18 -2q12 0 20 5.5t8 19.5q0 21 -32 37t-85 26
l31 79q38 0 88 -5q10 -2 18 -2q13 0 20 5t7 19z" />
    <glyph glyph-name="dollar" unicode="$" horiz-adv-x="443" 
d="M512 698q-23 -35 -33 -74q28 -11 42.5 -41t14.5 -69q0 -63 -31 -107q-34 -49 -90 -49q-27 0 -41 18t-14 45q0 25 12 49q-5 3 -11 3q-20 0 -43.5 -23.5t-23.5 -52.5q34 -61 61.5 -111t27.5 -81q0 -5 -2 -15q-10 -45 -62 -80t-114 -35q-13 -25 -30 -43t-40 -27
q-11 -4 -18 8.5t-9 28.5q0 22 2.5 38t10.5 32q-34 22 -56.5 54t-25.5 66q-4 28 11.5 43.5t42.5 15.5q12 0 24 -3q12 -51 46 -93q38 -46 75 -46q4 0 14 2q4 5 4 13q0 17 -53 90q-33 45 -43 73.5t-10 68.5q0 52 18 94q27 65 86 109q64 48 138 48q12 24 36 43q29 23 55 23
q12 0 21 -4.5t8 -10.5z" />
    <glyph glyph-name="percent" unicode="%" horiz-adv-x="980" 
d="M443 586q0 -50 -49.5 -114t-89.5 -58q-24 5 -24 34q0 39 41.5 100.5t70.5 70.5q14 7 27 7q25 0 25 -29q0 -7 -1 -11zM561 601q0 54 -38 80q-32 22 -85 22q-18 0 -36 -3q-20 9 -38 9q-71 0 -136.5 -88.5t-65.5 -171.5q0 -13 1 -19q0 -43 41 -66q34 -19 83 -19q17 0 31 3
q100 14 178 116q65 84 65 137zM831 607q16 23 23.5 42t7.5 35q0 19 -11 30t-28 11q-25 0 -53 -20.5t-52 -63.5q-39 -56 -137 -190t-138 -190q-76 -106 -133 -194q-9 -10 -14.5 -20t-5.5 -21q0 -17 20 -26q13 -5 27.5 -7t26.5 -2q58 0 103 46q39 40 64 112q47 83 94 156
q42 65 100 150zM926 256q0 -50 -49.5 -114t-89.5 -58q-24 5 -24 34q0 39 41.5 100.5t70.5 70.5q14 7 27 7q25 0 25 -29q0 -7 -1 -11zM1044 271q0 54 -38 80q-32 22 -85 22q-18 0 -36 -3q-20 9 -38 9q-71 0 -136.5 -88.5t-65.5 -171.5q0 -13 1 -19q0 -43 41 -66
q34 -19 83 -19q17 0 31 3q100 14 178 116q65 84 65 137z" />
    <glyph glyph-name="ampersand" unicode="&#x26;" horiz-adv-x="640" 
d="M699 559q0 -36 -38 -76t-92 -56q-8 -2 -12 -2q-21 0 -36.5 18.5t-15.5 40.5q0 6 2 13.5t16 25t30 32.5q16 13 16 21q0 9 -23 9h-11q-8 -2 -12 -2q-77 -14 -136 -61q-11 -10 -11 -28q0 -11 5 -23.5t10 -19.5q13 1 26 3q37 0 53 -14.5t16 -42.5q0 -17 -4 -37.5t-13.5 -26.5
t-23.5 -6q-6 0 -17.5 0.5t-12.5 0.5q-86 -14 -145 -47q-74 -41 -84 -101q-4 -39 19 -63t68 -24t75.5 22.5t40.5 59.5q-5 -1 -12 -1h-10h-30q-17 2 -20 2q-36 9 -36 27q0 15 28 30q48 25 102 36t108 11q33 0 54.5 -2.5t43 -9t33.5 -20.5t12 -28q0 -35 -47 -35l-75 -3
q-9 -74 -72 -126q-72 -60 -184 -60q-69 0 -141 60q-84 70 -84 167q0 16 1 24q5 50 70.5 101.5t155.5 81.5q-14 16 -24 49.5t-10 63.5q0 35 13 52q56 64 131 97.5t159 33.5q52 0 100 -61q44 -56 44 -106z" />
    <glyph glyph-name="quotesingle" unicode="'" horiz-adv-x="198" 
d="M365 699q-12 -33 -61 -126q-56 -106 -74 -117q-28 -13 -56 -13q-26 0 -32 12q23 99 49 170.5t50 83.5q17 10 50 10q25 0 47.5 -6t26.5 -14z" />
    <glyph glyph-name="parenleft" unicode="(" horiz-adv-x="308" 
d="M581 800q13 -9 13 -25q0 -10 -4 -19t-13 -20q-57 0 -85 -13q-44 -21 -96 -90q-73 -97 -143 -269q-74 -181 -74 -278q0 -50 22 -65q10 -10 14 -19.5t4 -19.5q0 -28 -28 -39q-5 -1 -12.5 -2t-12.5 -1q-25 0 -42 9q-25 13 -41 45q-31 59 -31 154q0 176 88 367
q92 201 216 266q69 36 149 36q47 0 76 -17z" />
    <glyph glyph-name="parenright" unicode=")" horiz-adv-x="286" 
d="M358 762q31 -59 31 -154q0 -176 -88 -367q-92 -201 -216 -266q-69 -36 -149 -36q-47 0 -76 17q-13 9 -13 25q0 10 4 19t13 20q57 0 85 13q44 21 96 90q72 96 144.5 274t72.5 274q0 50 -22 65q-18 18 -18 39q0 27 28 38q5 1 12.5 2t12.5 1q25 0 42 -9q25 -13 41 -45z" />
    <glyph glyph-name="asterisk" unicode="*" horiz-adv-x="428" 
d="M590 622l-14 -6q-51 -13 -72 -19q-39 -11 -77 -27q22 -11 48 -21q19 -7 46 -16q10 -4 21 -8q7 -5 11 -12q-5 -22 -33 -51.5t-46 -25.5q-13 10 -45 55q-17 24 -29 34q-8 -55 -11 -78t-3 -31q3 -16 -18.5 -26.5t-47.5 -10.5q-16 0 -24.5 3.5t-8.5 12.5q6 25 26 80
q15 41 18 51q-25 -16 -58 -46q-36 -34 -51 -48q-22 0 -34 14t-12 35q0 22 13 38q27 15 70 28q56 17 72 24q-14 7 -56.5 21.5t-56.5 21.5q-3 3 -3 9q0 19 28.5 51.5t50.5 32.5l21 -36q25 -42 43 -60q4 44 7 75.5t9 53.5q4 8 21.5 13t36.5 5q42 0 42 -19q0 -6 -2 -9
q-14 -27 -31 -73l-12 -36q64 44 129 88q14 0 23.5 -23.5t9.5 -48.5q0 -10 -1 -15z" />
    <glyph glyph-name="plus" unicode="+" horiz-adv-x="557" 
d="M360 283q60 0 116.5 7.5t71.5 19.5q32 32 32 46q0 18 -41 28q-14 4 -47.5 6t-83.5 2q25 59 40 106t12 58q-9 38 -31 38q-10 0 -26.5 -8t-55 -70.5t-68.5 -124.5q-67 0 -116.5 -5t-60.5 -14q-29 -21 -29 -39q0 -11 12 -23q8 -9 52.5 -17t95.5 -8q-19 -52 -31 -96.5
t-9 -59.5q7 -41 31 -41q22 0 50 38q15 19 39 62.5t47 94.5z" />
    <glyph glyph-name="comma" unicode="," horiz-adv-x="195" 
d="M164 126q-4 15 -31 26.5t-55 11.5q-6 0 -16 -2q-29 -2 -77 -120t-50 -123q8 -24 55 -24q8 0 22 2q17 5 83.5 107.5t68.5 121.5z" />
    <glyph glyph-name="hyphen" unicode="-" horiz-adv-x="337" 
d="M346 290q28 30 28 44q0 19 -44 30q-15 4 -42.5 6t-57.5 2q-51 0 -85 -4.5t-47 -15.5q-25 -19 -25 -36q0 -12 13.5 -25.5t46 -21t84.5 -7.5q100 0 129 28z" />
    <glyph glyph-name="period" unicode="." horiz-adv-x="208" 
d="M169 86q0 38 -31.5 55.5t-76.5 17.5t-71 -35q-19 -26 -19 -50q0 -34 17 -51q23 -24 78 -24q42 0 72.5 28.5t30.5 58.5z" />
    <glyph glyph-name="slash" unicode="/" horiz-adv-x="334" 
d="M65 -63q32 -5 55 39q5 10 22 53q66 172 126 305q69 153 154 302q21 36 21 63q0 40 -48 52q-11 3 -21 3q-26 0 -48.5 -15.5t-30.5 -42.5q-55 -124 -97 -230q-31 -79 -75 -204q-38 -108 -75 -216q-19 -40 -19 -67q0 -38 36 -42z" />
    <glyph glyph-name="zero" unicode="0" horiz-adv-x="698" 
d="M607 516q0 -105 -110 -273q-113 -173 -196 -173q-7 0 -10 1q-42 7 -42 63q0 91 99 260q94 161 150 190q28 14 53 14q56 0 56 -82zM729 525q0 96 -57 143q-48 39 -128 39q-13 0 -28.5 -2t-30.5 -4q-17 3 -34 3q-87 0 -177 -98q-78 -85 -132.5 -212.5t-54.5 -213.5
q0 -20 3 -35q0 -77 65 -119q54 -35 129 -35q28 0 45 4q106 19 207 135q82 94 141 225q52 115 52 170z" />
    <glyph glyph-name="one" unicode="1" horiz-adv-x="334" 
d="M478 645q11 17 11 33q0 11 -6.5 19.5t-23.5 14.5q-24 9 -53 9q-69 0 -138.5 -42t-69.5 -79q-3 -17 13.5 -26.5t44.5 -9.5q-24 -77 -56 -157q-22 -55 -65 -152l-70 -154q-14 -31 -14 -55q0 -28 21.5 -44t68.5 -16q53 0 59 40q2 21 5 42q23 49 93 192q62 127 92 191
q51 108 88 194z" />
    <glyph glyph-name="two" unicode="2" horiz-adv-x="625" 
d="M708 562q1 -4 1 -13q0 -162 -434 -426q19 2 44 3t49 1q49 0 64.5 -1t118.5 -9q16 -3 28 -13t23 -29q2 -10 2 -15q0 -24 -26 -34q-25 0 -48 10q-8 1 -18 1h-16q-61 0 -163 -18t-206 -37q-12 4 -35 17.5t-38 28.5q-21 18 -21 41t21 37q183 116 320 252q146 144 146 221
q0 18 -7.5 26.5t-19.5 8.5q-8 0 -20 -5q-34 -19 -108 -71.5t-99 -67.5q-49 -29 -69 -25q-43 0 -52 39q57 100 180 179q108 69 150 62q82 -12 154 -58q79 -50 79 -105z" />
    <glyph glyph-name="three" unicode="3" horiz-adv-x="632" 
d="M714 608q-4 45 -62.5 80t-117.5 35q-78 0 -167.5 -40t-162.5 -109q-19 -18 -28.5 -33.5t-9.5 -25.5q0 -12 11.5 -18.5t29.5 -6.5q13 1 31 10q10 5 29 16q65 38 121 64t120 45q11 4 22 6t18 2q21 0 21 -15q0 -8 -5.5 -18t-12.5 -16q-72 -77 -170 -132.5t-157 -55.5
q-17 0 -21 -13t-4 -43q0 -69 73 -69q25 7 49 10t52 3q64 0 64 -44q0 -19 -13 -39q-40 -47 -89 -77q-60 -36 -120 -36q-34 0 -68 6t-67 12q-52 0 -52 -34q0 -4 2 -14q41 -33 92 -49.5t122 -16.5q128 0 256.5 81.5t128.5 164.5q0 54 -68 98q-54 35 -113 45q109 45 187.5 111.5
t78.5 115.5z" />
    <glyph glyph-name="four" unicode="4" horiz-adv-x="623" 
d="M526 627q-42 -78 -82.5 -166.5t-75.5 -176.5q-35 0 -92.5 -2.5t-68.5 -2.5q65 79 151 172.5t168 175.5zM724 687q-34 16 -70.5 25t-74.5 9q-15 10 -30 10q-12 0 -19.5 -3t-22.5 -11q-131 -96 -255 -209q-134 -123 -220 -232q-6 -9 -8 -22.5t-1 -20.5q9 -33 34 -47
q20 -11 53 -11q16 0 34 2q15 3 21 3q86 9 173 19q-16 -39 -25 -64q-12 -33 -20 -58t-8 -41q0 -46 67 -46q48 0 67 13q12 9 20 50l62 155l122 5q18 0 25 10t7 27q0 15 -17 24t-40 9l-67 1q54 125 93 198q50 94 84.5 126.5t34.5 49.5q0 6 -5 13.5t-14 15.5z" />
    <glyph glyph-name="five" unicode="5" horiz-adv-x="609" 
d="M708 619q-65 0 -136 -9q-90 -14 -137 -21q-27 -36 -47 -71q-26 -44 -32 -73q104 0 182 -67q73 -63 73 -133q-11 -96 -180 -179q-150 -74 -261 -74q-64 6 -107.5 31.5t-60.5 66.5q-2 5 -2 15q0 18 12.5 31t28.5 15q27 -10 55.5 -19.5t54.5 -9.5q73 0 202 57
q139 61 131 107q-3 12 -19.5 17t-41.5 5q-29 0 -112 -10q-41 -5 -56 -5q-43 0 -74 19q-37 22 -37 61q0 23 14 50q27 50 78 146q23 43 46 87q3 30 8 38t28 8h15q12 -2 19 -2q61 0 144.5 2.5t88.5 2.5q55 0 89 -7q48 -16 48 -46q0 -16 -14 -33z" />
    <glyph glyph-name="six" unicode="6" horiz-adv-x="588" 
d="M470 340q0 -60 -99.5 -166.5t-152.5 -106.5q-42 9 -37 55q0 62 78 156q84 102 166 112q3 1 6.5 1h4.5q34 0 34 -51zM610 344q0 54 -58 94.5t-127 40.5q-29 0 -55 -9q41 45 83 82q49 43 102 77q27 12 40 18.5t13 11.5q0 29 -28 46t-78 17q-77 0 -187.5 -100.5
t-187.5 -233.5q-84 -145 -84 -251q0 -52 55.5 -95.5t150.5 -55.5q9 -1 13 -1q98 0 223.5 122.5t125.5 222.5q0 9 -1 14z" />
    <glyph glyph-name="seven" unicode="7" horiz-adv-x="576" 
d="M723 566q7 20 7 41q0 42 -32 92q-16 12 -32.5 19.5t-38.5 7.5q-45 0 -180.5 -20.5t-211.5 -44.5q-33 -19 -33 -40q0 -19 28 -23q38 0 140 4t143 4q-89 -106 -171 -226.5t-170 -274.5q-13 -25 -13 -45q0 -32 28.5 -50t72.5 -18q28 0 34 26l4 20q43 86 120 184
q55 71 150 174q141 154 155 170z" />
    <glyph glyph-name="eight" unicode="8" horiz-adv-x="640" 
d="M438 189q-25 -49 -80 -82t-110 -33q-5 -1 -8 -1q-31 0 -54 12q-28 15 -23 40q9 51 75 97q46 32 128 67q31 -23 48 -40q27 -27 27 -47q0 -7 -3 -13zM602 625q-34 -47 -85 -88q-41 -33 -102 -68q-12 16 -16.5 31t-4.5 37q0 56 53 90q45 29 104 29q21 0 37.5 -7t16.5 -17
q0 -4 -3 -7zM754 577q0 66 -86 109q-74 37 -158 37q-91 0 -187.5 -54.5t-112.5 -120.5q-2 -7 -2 -22q0 -38 20 -81.5t41 -60.5q-73 -47 -145 -94q-105 -81 -105 -154q0 -66 80 -109q71 -38 163 -38q110 0 201 50q106 58 139 165q4 13 4 29q0 41 -28 83q-22 34 -48 50l102 64
q122 83 122 147z" />
    <glyph glyph-name="nine" unicode="9" horiz-adv-x="614" 
d="M568 564q-46 -89 -122 -162t-157 -103q-15 -5 -25 -5q-28 0 -28 23q0 16 17 39q49 75 114 134.5t139 97.5q27 17 45 17q22 0 22 -22q0 -7 -5 -19zM746 667q-33 18 -68 18q-30 0 -63 -15q-25 33 -57 45.5t-78 12.5q-50 -8 -139.5 -73.5t-154.5 -144.5q-74 -91 -74 -154
q0 -69 30 -105q35 -42 112 -42h17q7 1 10 1q31 0 72.5 19t62.5 39q-26 -40 -55 -96.5t-41 -97.5q-5 -18 -5 -31q0 -27 17.5 -42.5t54.5 -15.5q29 0 51 6.5t33 20.5q46 137 114 280q63 131 156 291q10 18 15 26q9 16 9 27q0 17 -19 31z" />
    <glyph glyph-name="colon" unicode=":" horiz-adv-x="295" 
d="M325 389q1 4 1 8v6q0 30 -26 43.5t-65 13.5q-46 0 -80 -34q-24 -24 -32 -49q-4 -18 -4 -26q0 -23 17.5 -37t59.5 -14q43 0 82.5 29.5t46.5 59.5zM228 89q1 4 1 8v6q0 30 -26 43.5t-65 13.5q-46 0 -80 -34q-24 -24 -32 -49q-4 -18 -4 -26q0 -23 17.5 -37t59.5 -14
q43 0 82.5 29.5t46.5 59.5z" />
    <glyph glyph-name="semicolon" unicode=";" horiz-adv-x="263" 
d="M218 156q-4 15 -32.5 26.5t-55.5 11.5q-6 0 -16 -2q-29 -2 -77 -120t-50 -123q4 -12 20.5 -18t37.5 -6q8 0 22 2q18 5 83 107t68 122zM314 389q1 4 1 8v6q0 30 -26 43.5t-65 13.5q-46 0 -80 -34q-24 -24 -32 -49q-4 -18 -4 -26q0 -23 17.5 -37t59.5 -14q43 0 82.5 29.5
t46.5 59.5z" />
    <glyph glyph-name="less" unicode="&#x3c;" horiz-adv-x="530" 
d="M201 288q12 6 133 69q86 44 136 73q64 36 70 49q18 18 18 31q0 18 -28 18q-26 0 -98.5 -26t-135.5 -59q-54 -31 -122 -78.5t-85 -68.5q-21 -20 -21 -35q0 -10 10.5 -18.5t28.5 -14.5q37 -17 156.5 -37t186.5 -20q28 0 40 5q16 0 27 5.5t11 15.5q0 5 -8 15q-9 15 -81 35
q-59 16 -134 29q-26 4 -43 6t-61 6z" />
    <glyph glyph-name="equal" unicode="=" horiz-adv-x="560" 
d="M521 240q33 16 33 36q0 26 -49 38q-15 4 -56.5 6t-92.5 2q-88 0 -147.5 -4.5t-72.5 -15.5q-27 -20 -27 -38q0 -12 12 -23.5t76 -19t125 -7.5q56 0 115 7.5t84 18.5zM578 462q-11 11 -76 19.5t-124 8.5q-60 0 -121 -7.5t-76 -19.5t-22.5 -22t-7.5 -20q0 -22 44 -33
q15 -4 56.5 -6t93.5 -2q89 0 149 4.5t73 15.5q25 19 25 36q0 12 -14 26z" />
    <glyph glyph-name="greater" unicode="&#x3e;" horiz-adv-x="530" 
d="M536 310q-20 -18 -96 -54t-133 -56q-59 -18 -127.5 -31t-105.5 -13q-9 1 -12 1q-24 5 -24 20q0 14 23 31q12 16 202 76q88 27 164 52q-151 48 -230 84q-64 30 -68.5 41.5t-4.5 16.5q0 15 38 20q4 1 13 1q57 0 186.5 -43t168.5 -76q18 -10 25.5 -17.5t7.5 -18.5
q0 -16 -27 -34z" />
    <glyph glyph-name="question" unicode="?" horiz-adv-x="588" 
d="M262 64q0 35 -20 57q-26 28 -81 28q-37 0 -57 -20t-20 -60q0 -33 22.5 -57.5t61.5 -24.5q50 0 74 25q20 21 20 52zM719 482q2 12 2 18q0 62 -73 141t-129 79q-85 0 -192 -46.5t-117 -90.5q-2 -10 -2 -15q0 -35 45 -30q64 31 121 49q67 21 120 21q40 0 40 -27q0 -9 -9 -20
q-15 -25 -115 -82q-130 -74 -172 -105q-89 -65 -89 -117q0 -35 33 -59t84 -24q12 2 14.5 24.5t13.5 31.5q48 34 169 76q135 47 175 69q81 45 81 107z" />
    <glyph glyph-name="at" unicode="@" horiz-adv-x="862" 
d="M557 410q-40 -65 -80 -119q-57 -77 -97 -108q-17 -14 -29 -14q-8 0 -8 10q0 11 7 26q37 81 78 139q45 63 95 98q31 23 45 23q9 0 9 -9q0 -6 -3 -15.5t-17 -30.5zM919 386q12 44 12 85q0 75 -38 135t-107 94q-38 18 -81 28t-91 10q-69 0 -137.5 -18.5t-139.5 -57.5
q-122 -68 -194.5 -190t-72.5 -261q0 -99 75 -152t211 -53q39 0 73 3.5t58 24.5t24 40q0 7 -4 10q-6 8 -23 8q-33 0 -71 -31q-33 -4 -39 -5h-22q-89 0 -136.5 43.5t-47.5 114.5q0 54 28.5 115.5t84.5 120.5q67 69 149 107t158 38q68 0 119.5 -21.5t77.5 -64.5q20 -35 20 -83
q0 -23 -6 -49q-13 -51 -52 -106q-43 -60 -90 -85q-32 -16 -52 -16q-24 0 -24 22q0 13 10 33q32 69 78 130.5t94 100.5q-21 30 -61 30q-33 0 -66 -25q-7 30 -28.5 45t-44.5 15q-99 0 -205 -108.5t-127 -226.5q-1 -6 -1 -16q0 -51 77 -51q32 0 75 20q50 23 91 62
q-8 -16 -8 -33q0 -25 22 -39q28 -18 89 -18q67 0 128 28t112 78q38 38 64 79.5t39 89.5z" />
    <glyph glyph-name="A" unicode="A" horiz-adv-x="601" 
d="M432 529q-16 -57 -29 -133q-9 -54 -18 -129q-74 -14 -116.5 -24t-107.5 -32q47 62 84 108q54 67 90 108q42 47 97 102zM621 621q5 13 13 31.5t8 23.5q0 8 -12 11t-45 3q-28 19 -68 19q-25 0 -58 -9l-1 -7q-271 -313 -506 -641q-5 -8 -5 -15q0 -17 16.5 -31.5t31.5 -14.5
q8 0 13 6l83 122q73 24 143 43q54 15 144 35l-5 -138q-4 -7 -4 -14q0 -19 24 -32t59 -13q24 -3 60.5 10.5t34.5 23.5q0 184 13 308q17 162 61 279z" />
    <glyph glyph-name="B" unicode="B" horiz-adv-x="705" 
d="M569 252q0 -48 -95 -98t-168 -50q-25 0 -45 3.5t-37 9.5q29 61 41 86q18 37 43 85q28 5 71.5 10t72.5 5q54 0 85.5 -12t31.5 -39zM660 577q-37 -66 -128 -104q-61 -25 -136 -34q34 57 55 92q34 55 60 90q7 0 28.5 1t27.5 1q42 0 68.5 -7t26.5 -28q0 -3 -2 -11zM791 549
q0 64 -52.5 107.5t-135.5 43.5h-66h-55.5t-56.5 -3q-33 25 -51 25t-29.5 -9.5t-19.5 -27.5q-39 -6 -67 -16q-16 -6 -28 -16t-13 -17q0 -16 20 -28t45 -12q-43 -73 -87 -166q-33 -69 -77 -176q-21 -51 -68 -170q-2 -6 -3 -13t-1 -13q0 -16 10 -29t31 -19t41 -6t36.5 7
t25.5 23q34 -18 71 -28.5t81 -10.5q108 0 218 62q119 67 126 149q0 62 -28.5 103t-72.5 54q96 37 145 78q56 47 61 108z" />
    <glyph glyph-name="C" unicode="C" horiz-adv-x="623" 
d="M718 594q0 -63 -18.5 -112t-62.5 -95q-34 -32 -83 -32q-36 0 -59.5 18t-23.5 53q10 7 43 54q39 56 39 80q0 15 -13 15t-38 -15q-13 -9 -26 -17q-153 -143 -215 -283q-15 -31 -26 -62q-17 -48 -17 -76q0 -19 8.5 -31.5t30 -21t46.5 -8.5q57 0 136 37q68 32 102 63
q14 11 27 11q18 0 18 -17q0 -12 -14 -26q-63 -60 -128 -94q-74 -39 -142 -39q-94 0 -152.5 25.5t-76.5 65.5q-7 15 -10 32.5t-3 32.5q0 21 3 38.5t12 47.5q44 152 138 286q102 145 212 193q7 4 30 4q31 0 74 -8.5t70 -22.5q59 -12 89 -38q27 -23 30 -58z" />
    <glyph glyph-name="D" unicode="D" horiz-adv-x="734" 
d="M760 571q14 -24 21 -52.5t7 -56.5q0 -161 -181 -317q-175 -151 -338 -151q-28 0 -54.5 8t-47.5 21q-16 -8 -34 -14t-32 -6q-25 0 -39 10q-18 13 -18 37q0 18 10 41q47 132 102 257.5t122 252.5q-24 7 -35 13q-17 10 -15 25q5 18 25.5 27t69.5 17q16 28 50 28q23 0 57 -17
q15 2 43 5t45 3q78 0 133 -25q72 -32 109 -106zM633 460q9 27 9 47q0 38 -28 58t-78 20q-31 0 -63 -7q-70 -116 -144 -250q-68 -121 -135 -250q6 -1 17 -1q114 0 249 135q118 119 173 248z" />
    <glyph glyph-name="E" unicode="E" horiz-adv-x="539" 
d="M723 663q0 29 -32 33t-103 6t-140 2h-85q-19 8 -36 8t-29.5 -7.5t-23.5 -26.5l-74 -188q-44 -112 -76 -187q-41 -97 -84 -188q-12 -27 -12 -37q0 -11 18.5 -33t48.5 -38t54 -16q12 0 20 5q126 21 187 27.5t118 6.5q19 2 29.5 11.5t10.5 21.5q0 22 -28 22h-63t-61 1
q-51 0 -83.5 -1.5t-70.5 -5.5q41 99 88 198q105 27 223 27q9 0 14 8t3 18q-4 15 -27 22t-46 7q-32 0 -78.5 1.5t-47.5 1.5q36 75 68 132q42 75 79 125q53 8 101 11t109 3q14 0 21.5 8.5t7.5 21.5z" />
    <glyph glyph-name="F" unicode="F" horiz-adv-x="524" 
d="M731 658q-3 15 -9 23t-20 8q-32 4 -103 7t-192 3h-41q-27 7 -46 7q-36 0 -48 -29q-10 -31 -19 -61q-34 -85 -65.5 -165t-70.5 -173q-43 -101 -76 -170q-9 -20 -9 -32q0 -13 8 -23.5t15 -18.5q18 -23 41.5 -35t47.5 -12q11 0 22.5 3.5t20 30t17.5 52.5l76 174
q54 12 105.5 17.5t111.5 5.5q10 0 15 8t3 18q-4 15 -25.5 21t-47.5 8q-23 0 -61 1t-58 1q38 79 77 147q49 86 90 137q97 14 208 14q13 0 21.5 10.5t11.5 22.5z" />
    <glyph glyph-name="G" unicode="G" horiz-adv-x="649" 
d="M724 606q-41 47 -128.5 82t-163.5 35q-56 0 -146.5 -98.5t-155.5 -225.5q-71 -139 -71 -239q0 -64 62 -113q69 -54 179 -54q90 0 201 76q101 69 113 115q2 9 5 23t1 27l15 3q23 2 34.5 11t13.5 21q2 9 -10 19q-15 13 -40 16q-59 4 -80 4.5t-35 0.5q-50 0 -71 -1.5
t-66 -6.5q-20 0 -34 -12t-12 -23q0 -19 31 -29t91 -10q1 -4 1 -12q0 -43 -68 -90q-53 -37 -106 -52q-2 -1 -11.5 -2.5t-15.5 -1.5q-47 0 -47 39q0 83 86 225q90 148 191 219q23 14 41 21.5t27 7.5q10 0 13 -7q-8 -31 -26 -61t-50 -66q2 -26 13.5 -37t41.5 -17q45 0 81 25
q46 32 93 112q14 23 14 45q0 19 -11 31z" />
    <glyph glyph-name="H" unicode="H" horiz-adv-x="669" 
d="M834 663q-2 -8 -9 -20.5t-14 -23.5q-46 -66 -103 -177q-49 -95 -101 -215q-48 -111 -90 -217q0 -27 -9 -39.5t-38 -12.5q-63 8 -89 29q-20 16 -20 46q36 98 76 190q-70 -6 -77 -7q-70 -7 -130 -19q-13 -29 -33.5 -82t-32.5 -87q-1 -12 -18 -17.5t-41 -5.5q-32 0 -54 17
t-22 33l46 125q-13 10 -16 13q-6 6 -5 11q0 8 13 23t34 28q80 202 170 391q24 68 79 68q6 0 30.5 -3.5t47.5 -17.5q31 -18 40 -50q2 -13 -8 -25q-15 -13 -20 -19q-43 -71 -82 -143q-30 -55 -75 -148q36 5 88.5 7t99.5 2q38 93 100 231q55 123 63 139.5t45.5 23t98.5 6.5
q26 0 42.5 -14.5t13.5 -39.5z" />
    <glyph glyph-name="I" unicode="I" horiz-adv-x="456" 
d="M645 652q32 12 32 33q0 27 -44 27q-39 0 -75.5 -2t-76.5 -9l-10 9q-9 8 -23 8q-17 0 -28 -14l-8 -15q-79 -15 -170 -45q-23 -9 -23 -29t27 -20q26 0 42 1q65 4 72 4q-66 -113 -93 -161q-53 -94 -83 -159q-38 -82 -56 -148v-23.5t4 -27.5q-72 -13 -131 -33
q-34 -12 -34 -35q0 -20 34 -20q78 0 157 5t154 14q31 4 50 19t19 33q0 17 -17 28t-51 11l-36 -3q38 67 90 168.5t90 180.5l86 178q26 5 55 12q13 3 47 13z" />
    <glyph glyph-name="J" unicode="J" horiz-adv-x="550" 
d="M731 644q21 4 33.5 15.5t12.5 24.5q0 16 -16.5 27t-46.5 11q-100 0 -220 -22q-105 -19 -174 -44q-37 -13 -37 -35q0 -13 11.5 -20.5t33.5 -7.5q31 0 50 2q33 5 55 8q-36 -129 -76 -235q-50 -133 -96 -206q-56 -88 -104 -88q-19 0 -31 15.5t-12 36.5q0 29 -12 47
q-15 22 -43 22q-13 0 -25 -4q-24 -9 -36.5 -27t-12.5 -40q0 -48 45 -88q50 -45 124 -45q135 0 257 162t225 476z" />
    <glyph glyph-name="K" unicode="K" horiz-adv-x="626" 
d="M818 682q0 14 -15 23t-36 9q-24 0 -41 -11q-107 -69 -195 -136q-93 -71 -179 -151q29 56 58.5 106t66.5 101q7 10 7 21q0 30 -47.5 55.5t-87.5 25.5q-31 0 -48 -36q-9 -18 -17 -36q-26 -32 -100 -201.5t-143 -355.5q-5 -13 -6 -19q-6 -20 -6 -31q0 -13 9 -30
q24 -27 83 -27q35 0 43 12q9 24 17 48q12 33 22 57q16 39 42 94q11 11 36 34q15 13 37 32q34 -101 88 -179q67 -98 124 -98q27 2 46.5 18.5t19.5 37.5q0 11 -6 22q-85 143 -85 300q0 29 3 58q77 65 126 104q80 63 139 103q45 29 45 50z" />
    <glyph glyph-name="L" unicode="L" horiz-adv-x="488" 
d="M463 632q-77 -116 -147 -258q-60 -122 -113 -263q31 3 82.5 4t58.5 1h83q21 0 32.5 -10.5t11.5 -25.5q0 -31 -39 -40q-130 -15 -224 -32q-73 -13 -127 -28q-5 -1 -16 -1q-28 0 -44.5 11.5t-16.5 35.5q0 12 8 33q47 89 111 239q53 125 96 237.5t54 152.5q0 14 29 25.5
t58 11.5q51 0 76 -8q39 -13 39 -45q0 -16 -12 -40z" />
    <glyph glyph-name="M" unicode="M" horiz-adv-x="772" 
d="M902 653q-32 23 -71 38t-73 15h-10q-7 -2 -10 -2q-44 -5 -48 -34q-79 -110 -157 -234q-85 -134 -139 -241q37 189 48 241q32 147 62 235q-34 15 -64 22t-68 7q-52 0 -69 -7t-17 -20q-27 -58 -98 -207q-51 -108 -102 -215q-64 -133 -76 -161q-15 -32 -17 -46
q0 -19 18 -29.5t49 -10.5q17 0 28.5 17.5t15.5 55.5q79 201 180 382q-20 -159 -26 -201q-13 -97 -28 -181q0 -39 104 -39q14 -2 19 -2q42 0 58 37q22 62 105 197q73 119 134 201q-40 -78 -93 -236.5t-48 -178.5q-2 -28 16.5 -40.5t68.5 -12.5q78 0 78 39q26 93 53.5 189
t56.5 173q36 94 81 180z" />
    <glyph glyph-name="N" unicode="N" horiz-adv-x="624" 
d="M790 672q-90 -174 -144.5 -296.5t-123.5 -304.5l-16 -46q-16 -32 -73 -32q-65 0 -97.5 14.5t-37.5 43.5q0 146 1.5 212t10.5 171q-47 -101 -60 -130q-31 -68 -58 -134q-31 -75 -52 -136q-6 -21 -14.5 -27.5t-31.5 -10.5q-36 9 -47 21t-9 37q38 135 100 293
q53 136 125 294q0 45 33 62q25 13 83 13q73 0 106 -5q58 -9 63 -35q0 -15 -4.5 -25t-14.5 -21q-22 -92 -38 -253q-10 -103 -15 -151q50 126 103 241q45 97 116 235q10 19 43 19q23 0 38.5 -10t15.5 -28q0 -3 -2 -11z" />
    <glyph glyph-name="O" unicode="O" horiz-adv-x="716" 
d="M658 580q0 -69 -63 -208q-67 -148 -143 -231q-64 -70 -119 -70q-9 0 -13 1q-23 5 -34.5 27.5t-11.5 52.5v15.5t4 21.5q31 125 104 235q70 105 161 176q40 32 74 32q18 0 29.5 -13t11.5 -39zM792 562q1 10 1 15q0 61 -51 95.5t-125 34.5q-24 0 -41 -2t-40 -9
q-12 12 -26.5 18.5t-30.5 6.5q-39 0 -97 -34q-40 -23 -76 -55q-89 -76 -152 -203.5t-63 -229.5q0 -27 6 -51q8 -72 82 -115q64 -37 144 -37q105 0 219 100q103 90 176.5 226.5t73.5 239.5z" />
    <glyph glyph-name="P" unicode="P" horiz-adv-x="611" 
d="M722 514q0 -95 -148 -188q-143 -90 -275 -90h-19q-7 1 -10 1q-14 -30 -35 -80q-14 -33 -33 -81q-4 -12 -4 -30v-17q0 -20 -24.5 -28t-55.5 -8q-45 0 -65.5 18.5t-20.5 50.5q0 19 5.5 39t17.5 45q45 99 101 231q65 154 105 260q5 11 11 38t14 35q23 13 83 13q39 0 79.5 -6
t65.5 -16q96 -21 149 -65q59 -50 59 -122zM608 537q0 32 -51 49q-39 13 -83 13q-14 0 -17 -1q-24 -40 -48 -84q-47 -92 -70 -137q7 -2 22 -2q68 0 155 53q92 56 92 109z" />
    <glyph glyph-name="Q" unicode="Q" horiz-adv-x="712" 
d="M793 540q-17 -154 -114 -295q-90 -131 -205 -194l1 -5q34 0 54 -4t42 -11q32 -13 32 -32t-30 -27q-10 -2 -15 -2q-15 0 -35 8.5t-24 8.5q-31 0 -179.5 -19.5t-178.5 -19.5q-58 0 -98 16.5t-42 37.5q4 18 53.5 31.5t121.5 13.5q-53 30 -73 64q-15 26 -15 63
q0 173 128.5 357.5t246.5 184.5q17 2 25 2q43 0 96 -20l78 -32q57 0 92 -25q40 -29 40 -84q0 -11 -1 -17zM640 542q0 25 -18.5 45.5t-46.5 20.5q-31 0 -63 -28q-164 -150 -238 -351q-5 -12 -10 -34t-5 -40q0 -33 14.5 -54t48.5 -21q30 0 56 17q17 11 42 38q96 95 164 231
q61 122 56 176z" />
    <glyph glyph-name="R" unicode="R" horiz-adv-x="615" 
d="M720 519q-9 -65 -78 -118q-45 -34 -157 -88q12 -51 34 -122q16 -51 40 -119q2 -23 -13.5 -37.5t-46.5 -24.5q-16 -2 -24 -2q-19 0 -33.5 5t-20.5 17q-28 62 -63 126q-40 72 -76 124l-90 -206q-5 -35 -23.5 -51.5t-48.5 -16.5q-7 0 -17 1.5t-15 2.5q-63 12 -63 59
q0 6 2 18q55 150 124 303q62 137 148 301q6 15 22.5 26.5t32.5 8.5q84 0 152 -14q96 -20 148 -60q66 -51 66 -133zM600 546q4 30 -40.5 45t-110.5 15q-63 -111 -114 -213q90 26 173 72q87 49 92 81z" />
    <glyph glyph-name="S" unicode="S" horiz-adv-x="589" 
d="M717 578q-8 -58 -67 -117q-63 -64 -126 -64q-31 0 -45 9q-19 12 -19 41q31 34 50.5 64t28.5 63q0 2 -4 5t-14 3q-8 0 -16 -3q-64 -42 -103 -84q-46 -49 -46 -84q0 -4 2 -12q7 -22 55 -68q71 -67 84 -82q44 -51 44 -91q0 -56 -103 -111q-97 -52 -175 -52q-74 0 -141 41
q-29 17 -94 75q-13 14 -13 30q0 11 8 18t19 7q6 0 16 -4q55 -43 87 -58q44 -21 100 -21q42 0 77.5 20t35.5 43q0 9 -54 58q-75 68 -100 95q-54 59 -54 94q0 100 122.5 218.5t214.5 118.5q64 0 148 -48t84 -92q0 -4 -2 -12z" />
    <glyph glyph-name="T" unicode="T" horiz-adv-x="599" 
d="M842 678q0 39 -109 39q-119 0 -270.5 -8.5t-253.5 -28.5q-28 -5 -51.5 -18t-24.5 -25q-3 -19 52 -31q29 -6 65 -11q23 0 81 2t67 2q-62 -130 -112.5 -259.5t-95.5 -268.5q-3 -24 14 -41q22 -22 66 -22q50 0 59 21l10 48q61 153 122 277q70 143 152 267l164 20
q20 0 42.5 10.5t22.5 26.5z" />
    <glyph glyph-name="U" unicode="U" horiz-adv-x="629" 
d="M756 611q-29 -117 -89 -245q-74 -160 -159 -256q-105 -119 -209 -119q-90 0 -159 52.5t-69 113.5q0 9 1 13q10 76 50 164q15 34 84 159q55 100 80 161q6 27 10 41q9 26 35 26q16 0 36 -7q56 -20 64 -21q60 -10 60 -38q0 -22 -35 -75q-30 -54 -60 -107q-56 -100 -93 -185
q-49 -111 -49 -165q0 -25 10.5 -39.5t34.5 -14.5q80 0 184 174q92 154 157 359q7 18 11 71t27 58q4 1 14 1q12 0 27 -3t24 -8q19 -8 26.5 -17.5t7.5 -22.5q0 -12 -7 -31q-13 -36 -14 -39z" />
    <glyph glyph-name="V" unicode="V" horiz-adv-x="556" 
d="M770 681q-76 -97 -151 -194q-95 -122 -147 -201q-75 -114 -125 -222q0 -45 -19.5 -60t-63.5 -15q-77 0 -114 13t-32 47q6 38 26 198q15 121 30 204q20 113 46 194q-2 10 -2 13q0 34 67 34q59 0 86 -10t27 -36q-29 -104 -57 -245t-37 -238q72 135 164 271t199 266
q1 15 10.5 21.5t23.5 6.5q9 0 24.5 -2t19.5 -3q29 -8 29 -27q0 -7 -4 -15z" />
    <glyph glyph-name="W" unicode="W" horiz-adv-x="779" 
d="M971 680q-74 -115 -127 -206q-64 -108 -112 -202q-55 -106 -102 -217q-18 -32 -36 -46q-25 -19 -64 -19q-24 0 -42 4t-44 14q-25 13 -25 35q0 15 9 36q17 79 40 194t35 186q-30 -48 -72 -129.5t-73 -149t-64 -141.5q-12 -24 -30.5 -34t-52.5 -10q-57 0 -78.5 16.5
t-21.5 52.5q0 12 1 19q18 154 44.5 299.5t65.5 281.5q2 20 10.5 31t28.5 11q5 0 17 -2q56 0 88.5 -13.5t32.5 -39.5q0 -7 -3 -16q-26 -79 -49.5 -182.5t-37.5 -192.5q34 75 94 183q56 100 103 174q6 21 17 32t30 11q4 0 14 -2q54 0 88.5 -10.5t34.5 -35.5q0 -5 -1 -8
q-21 -56 -41 -175q-14 -89 -28 -177q38 76 83.5 158.5t82.5 144.5q18 30 97 157q6 8 13 16t18 8q27 -5 37 -9q24 -10 24 -30q0 -5 -4 -17z" />
    <glyph glyph-name="X" unicode="X" horiz-adv-x="561" 
d="M740 624q-81 -57 -155 -117q-61 -49 -145 -125q0 -56 8 -113q2 -15 20 -111q9 -48 30 -101q0 -20 -33 -41t-60 -21q-25 0 -45 9t-28 29q-17 45 -28.5 86.5t-24.5 102.5q-47 -46 -118 -118l-120 -122q-12 -12 -32 -12q-19 0 -32 8.5t-13 24.5q0 7 3 16t18 24q45 48 91 97
q50 52 91 94q46 46 93 91q-19 124 -25.5 190t-6.5 126q0 36 15 50.5t42 14.5h12q9 -2 13 -2h69q5 1 14 1q48 0 48 -55q0 -11 -1.5 -21.5t-2.5 -40.5t-1 -43v-51q55 49 110.5 93.5t115.5 89.5q23 16 45 16q23 0 40.5 -9.5t17.5 -24.5q0 -17 -25 -35z" />
    <glyph glyph-name="Y" unicode="Y" horiz-adv-x="598" 
d="M796 650q-110 -111 -183 -192q-83 -92 -172 -206q-20 -41 -46 -110q-22 -60 -38 -112q0 -26 -11.5 -37.5t-40.5 -11.5h-11q-9 2 -13 2q-40 0 -69.5 16t-29.5 35q1 14 29 89t53 130q-12 71 -16 142t-4 176v47q-2 6 -15 16q-6 5 -7 11q0 27 33.5 44t90.5 22q52 0 93 -10
t41 -28q0 -14 -13 -39q-6 -11 -6 -17q-19 -110 -19 -223q43 49 90 100q35 38 92 96q40 41 99 100q13 13 29 20t30 7q32 0 32 -26q0 -17 -18 -41z" />
    <glyph glyph-name="Z" unicode="Z" horiz-adv-x="582" 
d="M745 643q0 -33 -104.5 -130.5t-211.5 -195.5q-140 -127 -196 -200q37 4 95 6.5t109 2.5h67q46 -5 46 -35q0 -9 -7.5 -18.5t-22.5 -16.5q-170 -20 -261 -36q-63 -11 -137 -32q-60 8 -85 27.5t-25 52.5q2 10 5 19.5t10 23.5q7 31 96 124q44 46 190 190q132 131 182 189
q-56 0 -117 -11q-37 -7 -116 -27q-41 -5 -41 30q0 16 13 33t36 27q71 24 176.5 40.5t164.5 16.5q88 0 116 -27q15 -14 18 -53z" />
    <glyph glyph-name="bracketleft" unicode="[" horiz-adv-x="600" 
d="M553 725q-47 10 -105 14.5t-119 4.5q-20 0 -31.5 -17.5t-26.5 -60.5q-39 -115 -77 -220q-41 -110 -81 -220q-45 -124 -79 -221q-6 -21 -6 -39q0 -24 12.5 -37t42.5 -13q5 0 21 2q42 6 78 10.5t93 9.5q11 8 17 15t6 15q0 12 -17 25q-54 6 -111 6q34 82 88 226
q58 155 88 227q54 128 107 219q15 0 45.5 1t44.5 1q45 0 45 19q0 15 -35 33z" />
    <glyph glyph-name="backslash" unicode="\" 
d="M386 3q-146 0 -249.5 103.5t-103.5 250.5q0 146 103 250t250 104q146 0 250 -104t104 -250t-104 -250t-250 -104zM386 51q127 0 216 90t89 216t-88.5 215.5t-216.5 89.5q-126 0 -216 -89t-90 -216q0 -126 90 -216t216 -90zM386 72q-118 0 -201.5 83.5t-83.5 201.5
q0 116 84 199t201 83t200.5 -82.5t83.5 -199.5q0 -118 -83.5 -201.5t-200.5 -83.5zM386 116q53 0 99 36q35 27 61 71q-78 -21 -157 -21q-80 0 -163 21q26 -43 60 -70q47 -37 100 -37zM216 238q43 -10 84 -15t86 -5q83 0 171 20l54 86h-450zM349 357h76l-38 91zM294 427
q4 -4 19 3.5t14 10.5q-25 56 -49 112q-6 7 -34 -11q-12 -12 -24 -23zM480 427l72 92q4 5 -23.5 23t-33.5 11q-15 -19 -26 -51t-21 -61q3 -4 6 -7q20 -13 26 -7zM645 12v38h-15v11h41v-11h-15v-38h-11zM676 12v49h15l9 -38l9 38h14v-49h-9v38l-10 -38h-9l-10 38v-38h-9z" />
    <glyph glyph-name="bracketright" unicode="]" horiz-adv-x="641" 
d="M625 686q-5 28 -31.5 47t-66.5 19t-54.5 -1t-114.5 -14q-12 -9 -17 -13q-8 -8 -8 -15q0 -9 16 -21q10 -1 18 -1.5t14 -0.5q19 0 48.5 1.5t30.5 1.5q-54 -87 -109 -212q-35 -80 -92 -226.5t-93 -224.5q-13 1 -23.5 1.5t-19.5 0.5q-14 0 -28 -0.5t-27 -0.5q-46 0 -46 -18
q0 -15 36 -32q71 -22 104.5 -30.5t66.5 -8.5q24 2 54 28q34 29 46 63q36 104 80 206q36 82 92 192q39 77 107 203q6 14 12 29.5t5 26.5z" />
    <glyph glyph-name="asciicircum" unicode="^" horiz-adv-x="559" 
d="M441 600q3 -6 3 -11q0 -10 -17 -25q-22 -13 -49 -13q-21 0 -26 12q-8 14 -26.5 34t-32.5 33q-62 -47 -115 -71q-17 -6 -28 -6t-20.5 4.5t-18.5 11.5q-5 3 -5 7q0 6 9 15q44 26 81 54q28 21 66 53q10 7 37 7q50 0 74 -11z" />
    <glyph glyph-name="underscore" unicode="_" horiz-adv-x="530" 
d="M559 683q-2 -14 -14 -36t-22 -42q16 -14 23.5 -34t7.5 -46q0 -77 -52 -151q-55 -78 -120 -78q-8 0 -12 1q-33 6 -33 43q0 28 18 62t41 51l7 7l-10 -3q-77 -36 -125 -116q-41 -68 -41 -122q1 -7 1 -10q1 -13 8 -18.5t20 -5.5q16 0 34 8.5t33 22.5q39 -8 39 -35
q0 -14 -12 -36q-17 -25 -54 -39t-78 -14q-14 -10 -39.5 -42t-31.5 -36q-12 -5 -21 -5q-21 0 -21 18q4 27 12 53t20 48q-21 19 -31 49.5t-10 66.5q0 129 94 257q101 137 222 137q17 0 34 -3q11 16 33.5 35.5t32 24t16 5t10.5 1.5q21 0 21 -18z" />
    <glyph glyph-name="grave" unicode="`" horiz-adv-x="198" 
d="M236 572q-4 -10 -25 -10q-9 0 -21.5 3t-24 9t-58.5 76t-54 89q3 6 21 11t38 5q24 0 38 -8q18 -8 40 -58q23 -59 46 -117z" />
    <glyph glyph-name="a" unicode="a" horiz-adv-x="579" 
d="M408 339q-29 -68 -73 -142q-53 -89 -98 -129q-20 -18 -33 -18q-14 0 -14 21q0 11 4 24q52 191 164 284q35 29 52 29q13 0 13 -16q0 -20 -15 -53zM750 220q-56 -69 -91 -99q-67 -57 -130 -57q-41 0 -41 38q0 8 3 19q25 85 70 163t95 125q-33 37 -83 37q-43 0 -76 -30
q-16 31 -46.5 46.5t-59.5 15.5q-123 0 -231.5 -130.5t-108.5 -275.5q0 -45 27.5 -64.5t82.5 -19.5q38 0 84 26t91 77q0 -36 36 -59.5t98 -23.5q101 0 175 57q30 23 83 89q7 9 14 34q3 11 8 32z" />
    <glyph glyph-name="b" unicode="b" horiz-adv-x="584" 
d="M484 370q-35 -108 -105 -199q-80 -103 -148 -103q-13 0 -24 3.5t-17 12.5q42 99 101 174q63 79 149 137q11 8 26 8q20 0 20 -20q0 -3 -2 -13zM639 373q2 25 -10.5 49t-31.5 34q-41 24 -106 24q-28 0 -47.5 -5.5t-33.5 -18.5q-18 -6 -38.5 -18.5t-36.5 -28.5q29 60 86 138
q70 90 101 131q14 12 14 26q0 23 -28 26q-25 5 -48.5 9.5t-43.5 4.5q-35 0 -59.5 -20.5t-40.5 -71.5q-80 -126 -151 -275q-65 -136 -129 -307q-8 -13 -8 -23q0 -34 57 -43q4 -1 28 -1h26q11 3 15 4q0 6 2 14t5 17q17 -17 46.5 -28.5t61.5 -11.5q10 0 15 1q113 11 234 136.5
t121 237.5z" />
    <glyph glyph-name="c" unicode="c" horiz-adv-x="472" 
d="M515 377q3 9 3 17q0 40 -69 63q-54 18 -114 18q-14 0 -19 -1q-83 0 -180 -138q-91 -130 -91 -218q0 -54 67 -94q62 -37 133 -37q80 0 159 33q102 42 174 117q9 7 26.5 35.5t18.5 39.5q-71 -75 -174 -122q-95 -43 -171 -43q-29 0 -53 16t-24 34q0 61 52 141q46 70 106 119
q11 9 19 9q11 0 7 -17q-16 -41 -45 -79q-2 -3 -2 -10q0 -13 14 -24.5t34 -11.5q47 0 79 30q40 38 50 123z" />
    <glyph glyph-name="d" unicode="d" horiz-adv-x="593" 
d="M423 341q-29 -63 -64 -115q-39 -59 -84 -104q-22 -24 -43 -42q-37 -32 -54 -32q-11 0 -11 17q0 5 4 25q15 55 34 96q15 34 39 71.5t70 88.5q58 64 84 64q16 0 24 -10t8 -25t-7 -34zM821 649q0 37 -27.5 64.5t-71.5 27.5q-64 0 -120 -61q-68 -74 -143 -248q-13 20 -41 32
t-74 12q-70 0 -128 -40q-49 -34 -87 -95q-34 -57 -57 -133.5t-23 -145.5q4 -37 40 -59t75 -22q57 0 112 42q47 36 91 102q0 -56 24 -86q28 -35 89 -35q71 0 135 34.5t127 110.5q14 18 23 41l12 32q-66 -71 -124 -111q-66 -46 -116 -46q-20 0 -32 7.5t-12 25.5q0 8 3 17
q30 114 112 265q74 135 148 229q33 40 65 40z" />
    <glyph glyph-name="e" unicode="e" horiz-adv-x="479" 
d="M396 354q-25 -54 -73.5 -106.5t-96.5 -78.5q19 44 64 104.5t81 91.5q14 10 23 10q6 0 6 -7q0 -6 -4 -14zM629 212q-79 -77 -171.5 -120t-173.5 -43q-28 0 -48.5 4.5t-20.5 22.5q0 8 7 22q92 12 196 109t104 175q0 19 -6.5 33.5t-21.5 25.5q-34 20 -67 32q-51 19 -93 19
q-31 0 -57.5 -10.5t-47.5 -35.5q-57 -46 -106 -139q-52 -99 -52 -179q0 -63 33 -97q37 -39 116 -39q107 0 184.5 31.5t160.5 99.5q20 16 38 43q13 20 26 46z" />
    <glyph glyph-name="f" unicode="f" horiz-adv-x="355" 
d="M218 142q1 -4 1 -11.5v-14.5q0 -91 -26 -188q-32 -121 -83 -121q-17 0 -17 31q0 16 5.5 39t6.5 27q16 52 67 148q34 64 46 90zM550 691q0 21 -33 41.5t-71 20.5q-45 0 -79.5 -7.5t-39.5 -31.5q-11 -48 -79 -183q-72 -139 -143 -277q-89 -176 -134 -292q-18 -52 -22 -64
q-10 -34 -10 -60q0 -17 4 -33.5t14 -33.5q14 -24 50.5 -40.5t74.5 -16.5q87 0 139 107q48 99 48 244q0 48 -6 96q50 5 94 30t66 67q-20 -16 -61 -27.5t-75 -11.5q-18 0 -33 5q34 73 74 142q33 58 87 139q34 51 95 139q18 19 29 31t11 16z" />
    <glyph glyph-name="g" unicode="g" horiz-adv-x="544" 
d="M414 348q-41 -102 -111 -198q-77 -104 -120 -97q-11 1 -14.5 10.5t-3.5 27.5q0 67 58.5 157.5t124.5 132.5q15 12 34 12q16 0 25 -7.5t9 -24.5q0 -3 -2 -13zM644 400q-23 23 -50.5 34.5t-57.5 11.5q-42 0 -83 -22q-18 29 -56.5 43.5t-80.5 14.5q-40 0 -66 -12
q-76 -35 -135 -147.5t-59 -224.5q0 -42 43 -75q39 -30 79 -30q9 -1 13 -1q44 0 89 36q-18 -53 -44 -107q-22 -44 -62 -112q-6 -27 22.5 -41t66.5 -14q32 0 50 5q28 8 32 27q40 127 90 245t112 235q19 43 40 74q30 45 57 60z" />
    <glyph glyph-name="h" unicode="h" horiz-adv-x="557" 
d="M697 173q-59 -43 -125 -73q-76 -35 -122 -35q-27 0 -27 26q0 45 90 168q52 67 105 134q15 18 15 31q0 21 -30 30.5t-75 9.5q-39 0 -70 -6t-41 -16q-22 -18 -66 -65.5t-74 -85.5q19 55 70 144q21 36 86 144q43 71 44 80q5 18 5 32q0 19 -13 29.5t-47 10.5t-69.5 -8
t-53.5 -25q-8 -8 -10.5 -32t-4.5 -31q-9 -25 -57 -123q-95 -195 -102 -209q-66 -138 -95 -210q-15 -30 -15 -53q0 -57 80 -57q31 0 44 5q9 5 19 10q9 59 76 154t143 152q-32 -48 -57 -107q-30 -71 -30 -119q0 -35 17.5 -55.5t56.5 -20.5q77 0 155 30q69 26 128 73
q32 28 50 68z" />
    <glyph glyph-name="i" unicode="i" horiz-adv-x="303" 
d="M461 211q-46 -69 -109.5 -111.5t-119.5 -42.5q-39 0 -39 36q0 6 2 16q22 65 73 153q37 63 92 144q7 14 7 24q0 16 -17 26t-54 10q-18 2 -26 2q-50 0 -64 -46q-51 -58 -100 -154.5t-57 -154.5q-5 -49 29 -79.5t99 -30.5q91 0 167 50q56 37 88 88q10 10 18 34q5 13 11 36z
M480 616q2 10 2 15q0 29 -23.5 42t-65.5 13q-39 0 -74 -24t-35 -61q0 -55 77 -55q48 0 74 12q36 17 45 58z" />
    <glyph glyph-name="j" unicode="j" horiz-adv-x="277" 
d="M373 434q-14 15 -49.5 27.5t-70.5 12.5q-26 0 -45 -9.5t-24 -30.5q-49 -186 -144 -372q-110 -215 -182 -215q-18 0 -50 31t-42 31q-15 0 -29 -12t-14 -28q-4 -38 50 -69q47 -27 89 -27q39 0 96 21.5t79 43.5q30 20 92 124q53 88 116 216q60 121 94 202q2 8 20.5 20.5
t18.5 21.5q0 5 -5 12zM459 617q0 30 -27 47.5t-59 17.5q-52 0 -84.5 -19.5t-32.5 -53.5q-2 -23 24.5 -43t64.5 -20q43 0 78.5 21t35.5 50z" />
    <glyph glyph-name="k" unicode="k" horiz-adv-x="517" 
d="M477 388q-45 -51 -97.5 -86.5t-103.5 -48.5q27 44 78 90q47 42 95 68q11 7 21 7q15 0 15 -13q0 -8 -8 -17zM659 174q-38 -46 -85.5 -76t-87.5 -30q-10 0 -15 1q-46 9 -68 48q-15 27 -25 79q92 47 140.5 92t48.5 85q0 48 -23 72.5t-72 24.5q-28 0 -61.5 -18.5t-69.5 -51.5
q44 78 73 124q38 61 81 118q30 41 30 67q0 47 -94 47q-56 0 -76 -7q-35 -13 -35 -55q-10 -32 -78.5 -166.5t-135.5 -267.5q-76 -156 -99 -227q-2 -10 -2 -13q0 -19 19 -27.5t44 -8.5q43 0 62.5 9.5t28.5 36.5q4 11 17 44q10 23 19 47q30 -60 82 -93t117 -33q52 0 104 20
t103 65q21 22 36 48q12 21 22 46z" />
    <glyph glyph-name="l" unicode="l" horiz-adv-x="422" 
d="M485 635q-38 -85 -67 -139q-41 -76 -84 -138q-49 -70 -105 -125q32 107 88 213.5t130 200.5q9 12 23 12q17 0 17 -16q0 -5 -2 -8zM603 612q11 19 11 41q0 25 -16 41q-19 19 -60 23q-12 3 -68 19q-38 11 -60 11q-24 0 -44.5 -8.5t-44.5 -30.5q-75 -67 -144 -223.5
t-86 -295.5q-1 -8 -1 -16v-13q0 -73 38 -114q42 -45 128 -45q85 0 158.5 36.5t123.5 98.5q16 14 24 39t10 48q-59 -83 -135 -126q-66 -37 -128 -37q-39 0 -63.5 16.5t-24.5 43.5q0 4 2 14q95 56 179 150q67 76 127 178q46 78 74 150z" />
    <glyph glyph-name="m" unicode="m" horiz-adv-x="819" 
d="M979 229q-70 -73 -136 -114.5t-126 -41.5q-11 0 -24 2t-13 23q0 35 52 111q42 62 100 128q29 29 38 39q15 17 14 25q-3 29 -28 45.5t-74 16.5q-18 0 -28 -1q-31 3 -68 -20.5t-83 -83.5q0 36 -19 57t-50 24q-41 0 -96 -35q-62 -39 -130 -118q14 33 45 78q24 34 47 63
q8 19 -18.5 32t-63.5 13q-39 0 -69 -12.5t-50 -47.5q-53 -66 -99.5 -161.5t-72.5 -188.5q-2 -6 -3 -11t-1 -11q0 -21 17 -33t43 -12q62 0 90 42q37 65 87 127q69 85 138 129q-38 -56 -72 -115q-39 -67 -58 -114q-1 -4 -1 -12q0 -25 26 -40q20 -11 38 -11q21 0 43 10t33 24
q41 66 87 125q65 83 124 132q-42 -60 -62 -110t-20 -87q0 -45 26 -67.5t71 -22.5q83 0 160 35q92 42 153 125q25 28 33 64z" />
    <glyph glyph-name="n" unicode="n" horiz-adv-x="566" 
d="M736 235q-57 -60 -105 -95q-84 -62 -155 -62q-37 0 -37 25q0 5 3 13q18 52 60 111.5t102 123.5q26 26 26 44q0 16 -20 30q-11 7 -27 13.5t-30 8.5t-25 4.5t-19 2.5q-18 0 -48 -19q-56 -34 -107 -84q-47 -45 -87 -100q25 51 57 100q36 54 71 90q5 17 -15.5 27t-71.5 10
q-32 0 -60 -12t-39 -26q-63 -97 -107 -188q-40 -83 -76 -190q-3 -12 -3 -21q0 -51 76 -51q48 0 81 55q29 57 73 116q56 75 106 109q-33 -47 -51 -88q-22 -50 -22 -89q0 -40 25.5 -62.5t83.5 -22.5q76 0 152 35q95 44 155 128q26 31 34 64z" />
    <glyph glyph-name="o" unicode="o" horiz-adv-x="551" 
d="M371 144q-24 -43 -61.5 -75t-70.5 -32q-19 2 -27.5 16t-8.5 39q0 49 28 108.5t57 71.5q-6 -15 -6 -30q0 -36 29 -65q26 -26 60 -33zM427 400q14 -6 20.5 -19.5t6.5 -33.5q0 -34 -15 -74t-32 -65q-17 11 -26 36.5t-9 57.5q0 48 21 87q8 14 19 14q6 0 15 -3zM712 319
q-45 -56 -101.5 -90.5t-101.5 -34.5q22 26 39 75.5t17 90.5q0 32 -10 51q-10 16 -41.5 24.5t-63.5 17.5q-17 15 -43.5 22.5t-54.5 7.5q-22 0 -45 -3q-85 -11 -166 -142q-77 -125 -77 -228q0 -50 47 -86t120 -36h11q56 0 118 37q66 40 108 105q86 0 152 57q55 48 92 132z" />
    <glyph glyph-name="p" unicode="p" horiz-adv-x="591" 
d="M481 396q16 -1 16 -20q0 -16 -13 -44.5t-15 -33.5q-44 -88 -109 -166q-70 -84 -105 -84q-40 0 -40 31q0 15 11 32q34 66 110 162q97 123 145 123zM654 392q0 49 -58 71q-37 13 -86 13q-47 0 -83 -14q-36 -16 -73 -56q-43 -46 -45 -47q21 30 25 37q15 26 15 43
q0 13 -8.5 23.5t-29.5 16.5q-33 11 -59 11q-32 0 -49 -18q-7 -7 -7 -17q2 -12 2 -18t-4 -11q-89 -167 -101 -190q-56 -110 -91 -190q-43 -99 -69 -191q-1 -4 -1 -12q0 -25 20 -41.5t54 -16.5q22 0 49 9q16 64 45 132q26 63 62 128q10 -34 50 -52q32 -14 72 -14
q116 0 246 154q124 146 124 250z" />
    <glyph glyph-name="q" unicode="q" horiz-adv-x="552" 
d="M417 356q-16 -59 -73 -153q-60 -99 -98 -124q-12 -8 -22.5 -12.5t-17.5 -4.5q-20 0 -20 27q0 6 4 26q13 55 59 139q56 102 115 148q16 15 29 15t20 -15q7 -10 7 -25q0 -10 -3 -21zM652 423q-14 19 -46 30.5t-69 11.5q-40 0 -67 -13l-4 -25q-17 24 -43.5 40.5t-57.5 16.5
q-16 2 -25 2q-79 0 -148 -64q-61 -56 -95 -142q-13 -31 -23 -73t-10 -81q0 -60 23 -92q28 -39 90 -39q19 0 54 12t59 27q-29 -56 -45 -98q-24 -61 -24 -98t20.5 -57.5t67.5 -20.5q62 0 108 32q38 26 47 58q-11 -11 -23 -14.5t-23 -3.5q-29 0 -29 37q0 19 8 51q24 99 106 259
q79 155 149 244z" />
    <glyph glyph-name="r" unicode="r" horiz-adv-x="479" 
d="M623 205q-46 -69 -95.5 -105t-105.5 -36q-32 0 -46 12t-14 34q0 54 83 166q61 82 103 121q-14 26 -40 39q-31 16 -81 16q-7 1 -21 1q-57 0 -96 -21q-5 8 -5 17q0 29 29 44q-14 16 -37 24.5t-47 8.5q-32 0 -57.5 -12.5t-34.5 -31.5t-9 -38q0 -23 12.5 -41.5t38.5 -24.5
q-24 -95 -91 -180.5t-159 -136.5q-13 -10 -13 -24t12 -25t31 -11t35 15q74 40 135 130.5t95 214.5q18 -10 63 -10q23 0 39 4q-46 -56 -78 -116q-41 -77 -41 -131q0 -49 31 -74q35 -29 114 -29q84 0 146 43q42 29 73 78q15 22 21.5 40.5t9.5 38.5z" />
    <glyph glyph-name="s" unicode="s" horiz-adv-x="459" 
d="M280 109q5 -10 5 -19q0 -19 -15.5 -32.5t-40.5 -13.5q-7 0 -23 2t-41 19.5t-43 40.5q27 31 52 70q20 32 43 75q9 -35 24 -69.5t39 -72.5zM466 448q-23 0 -47 14q-57 33 -88 33q-64 0 -98.5 -37.5t-34.5 -101.5v-15q2 -12 2 -17q-72 -161 -169 -227q-70 -47 -157 -47
q13 -19 34.5 -31t56.5 -12q28 0 57 14.5t60 42.5q43 -35 81 -52t85 -17q89 0 145 35t56 94q0 32 -27 77t-27 101q0 45 34 96q13 20 37 50z" />
    <glyph glyph-name="t" unicode="t" horiz-adv-x="350" 
d="M464 538l38 62q21 21 21 42q0 19 -21 25q-39 15 -86 22q-8 2 -14 2q-17 0 -31.5 -8t-18.5 -24q-14 -18 -39 -56q-16 -26 -42 -68q-50 0 -100.5 -4t-73.5 -6q-35 -5 -35 -21q0 -14 30 -14l145 -9q-63 -97 -104.5 -192t-49.5 -157q-1 -6 -1 -19q0 -49 30 -77
q35 -33 106 -33q65 0 141 35q84 39 150 108q11 9 18 24t10 33q-54 -55 -126 -97q-82 -48 -140 -48t-58 45q0 8 1 13q7 35 74 146q62 103 140 216h4q30 0 63 1.5t66 4.5t47 11t14 18q0 21 -48 21z" />
    <glyph glyph-name="u" unicode="u" horiz-adv-x="568" 
d="M725 210q-42 -50 -109 -94q-75 -49 -121 -49q-38 0 -38 34q0 57 82 186q72 113 103 137q-23 48 -108 48q-56 6 -116 -93q-35 -59 -66 -145q-9 -25 -39 -56q-23 -23 -59 -51.5t-54 -28.5q-15 0 -15 21q0 72 51 163q48 85 109 135q4 19 -8 32t-43 13q-21 0 -42.5 -8.5
t-30.5 -25.5q-72 -68 -124 -167q-56 -107 -56 -195q-4 -41 21 -60q21 -16 64 -16q53 0 116.5 43.5t78.5 84.5q-1 -8 -1 -22q0 -44 23 -70t65 -26q73 0 146 37t135 102q7 5 16 21t20 50z" />
    <glyph glyph-name="v" unicode="v" horiz-adv-x="525" 
d="M788 409l-33 -51q-44 -59 -125 -88q-66 -24 -144 -24q-47 -72 -108 -133q-70 -70 -139 -104q-36 -18 -97 -18q-41 0 -66.5 12t-25.5 39q0 4 2 14q11 101 52 202q38 93 87 152q11 25 40 39t62 14q50 0 78.5 -10t28.5 -26q0 -5 -4 -10.5t-14 -14.5q-15 -13 -29 -26
q-54 -62 -89 -145q-29 -68 -46 -156q76 41 131 95q50 49 84 110q0 31 1 47t6 33q19 70 61 109t92 39q23 0 33.5 -10.5t10.5 -30.5q0 -38 -32.5 -88.5t-67.5 -71.5q10 -1 17.5 -1.5t13.5 -0.5q55 0 108 23q60 26 112 81z" />
    <glyph glyph-name="w" unicode="w" horiz-adv-x="740" 
d="M1018 432q-57 -57 -117 -88.5t-106 -31.5q-18 0 -30 4q35 13 76 66.5t41 94.5q0 22 -14 34t-46 12q-69 0 -111.5 -59t-42.5 -143q-23 -66 -71 -129q-42 -55 -95 -98q-15 -11 -26 -11q-15 0 -15 17q0 9 4 17q22 59 69 132q36 56 96 132q2 10 2 15q0 22 -17.5 36t-55.5 14
q-11 0 -18 -1q-95 0 -106 -56q-41 -95 -79 -157q-54 -87 -118 -142q-11 -9 -22 -9q-20 0 -15 21q20 65 62 139q46 80 104 148q7 13 7 26q0 26 -27.5 41.5t-58.5 15.5q-26 0 -45 -4t-27 -14q-21 -48 -71 -126q-60 -93 -72 -116q-33 -61 -33 -98q-2 -10 -2 -16q0 -39 29 -71
q33 -36 80 -36q45 0 89 23.5t86 74.5q6 -45 33 -68q22 -19 57 -19q71 0 158 78q72 64 147 173q17 -3 35 -3q75 0 147 47q77 50 119 135z" />
    <glyph glyph-name="x" unicode="x" horiz-adv-x="453" 
d="M609 190q-61 -53 -117 -83q-65 -35 -121 -35q-32 0 -47.5 23.5t-15.5 67.5q0 16 0.5 24t4.5 33q57 43 114 87q66 49 121 86q16 15 16 34q0 15 -10.5 26.5t-27.5 11.5q-14 0 -30 -10q-97 -63 -178 -137q3 27 11.5 62t17.5 69q-45 39 -109 39q-30 0 -53 -15
q-17 -11 -21 -24q-14 -34 -24 -94t-10 -117q0 -24 1 -38t4 -40q-45 -44 -67 -66q-43 -43 -63 -65q-4 -4 -7.5 -11t-3.5 -11q0 -9 8 -15t19 -6q8 0 16 5q19 18 42 38q28 25 71 59q11 -41 44 -65.5t80 -24.5q78 0 149 27q83 31 151 96q15 21 23.5 37t11.5 32z" />
    <glyph glyph-name="y" unicode="y" horiz-adv-x="529" 
d="M627 417q0 21 -26 43t-53 22q-30 0 -52 -9.5t-40 -28.5q-11 -14 -23 -53q-8 -24 -17 -41q-69 -110 -127 -182q-76 -95 -117 -103q-20 -3 -20 24q0 9 3 20q28 80 59 143t82 142q21 11 21 34q0 18 -16.5 30t-53.5 12q-34 0 -48 -18q-1 -2 -24 -47q-51 -85 -79 -157
q-33 -84 -40 -161q-1 -4 -1 -13q0 -39 28.5 -59t64.5 -20t69 18q38 21 82 69q-10 -33 -42 -104q-63 -139 -66 -170q-2 -17 16.5 -30t49.5 -13q34 0 47 5t27 25q27 58 82.5 195.5t79.5 189.5q49 103 109 190q13 19 18.5 27t6.5 20z" />
    <glyph glyph-name="z" unicode="z" horiz-adv-x="449" 
d="M543 439q-18 23 -47 36.5t-65 13.5q-38 0 -140 -20t-162 -44q-18 -8 -18 -21q0 -7 7 -12t18 -5q23 3 94 9t98 6q-51 -44 -105 -101q-49 -51 -94 -103.5t-89 -104.5q-10 -16 -10 -29q0 -12 10 -29t32 -33.5t45 -16.5q71 11 149.5 21.5t143.5 16.5q8 2 13.5 7.5t5.5 15.5
t-10 18t-25 11q-25 0 -101 1t-109 1q39 42 104 98q34 29 120 98q79 63 124 102q6 6 10 20t4 29q0 9 -3 15z" />
    <glyph glyph-name="braceleft" unicode="{" horiz-adv-x="990" 
d="M830 154q-20 -37 -61 -63t-79 -26q-31 0 -51 8q-27 11 -23 33q6 30 37 58q37 33 120 70q29 -21 46 -41q14 -17 14 -28q0 -6 -3 -11zM956 494q-23 -33 -66 -68q-33 -27 -78 -54q-17 23 -17 55q0 43 38.5 67.5t84.5 24.5q19 0 32 -8t6 -17zM434 670q9 13 9 26
q0 20 -21 27.5t-45 7.5q-56 0 -111.5 -33.5t-55.5 -63.5q-2 -13 10.5 -20.5t35.5 -7.5q-20 -63 -45 -126q-29 -72 -51 -122q-29 -62 -57 -123q-11 -25 -11 -44q0 -22 17.5 -35t54.5 -13q43 0 46 24.5t5 41.5q18 38 75 154q34 70 73 152q46 98 71 155zM678 619q27 31 27 58
q0 20 -14.5 35.5t-40.5 24.5q-12 3 -23 3q-51 0 -71 -51q-17 -37 -108 -227q-64 -135 -92 -191q-49 -98 -105 -203q-30 -45 -30 -71t30 -36q9 -3 17 -3q26 0 46 39q7 13 19 45q81 162 158.5 292.5t186.5 284.5zM1074 456q0 52 -67 85q-57 28 -122 28q-70 0 -145.5 -42
t-88.5 -92q-1 -4 -1 -14q0 -30 15.5 -65t32.5 -49q-57 -37 -113 -73q-81 -62 -81 -119q0 -52 62 -85q56 -30 127 -30q85 0 156 39q83 45 107 127q3 12 3 24q0 32 -21 64q-17 26 -37 39l106 70q67 52 67 93z" />
    <glyph glyph-name="bar" unicode="|" horiz-adv-x="990" 
d="M434 670q9 13 9 26q0 20 -21 27.5t-45 7.5q-56 0 -111.5 -33.5t-55.5 -63.5q-2 -13 10.5 -20.5t35.5 -7.5q-20 -63 -45 -126q-29 -72 -51 -122q-29 -62 -57 -123q-11 -25 -11 -44q0 -22 17.5 -35t54.5 -13q43 0 46 24.5t5 41.5q18 38 75 154q34 70 73 152q46 98 71 155z
M678 619q27 31 27 58q0 20 -14.5 35.5t-40.5 24.5q-12 3 -23 3q-51 0 -71 -51q-17 -37 -108 -227q-64 -135 -92 -191q-49 -98 -105 -203q-30 -45 -30 -71t30 -36q9 -3 17 -3q26 0 46 39q7 13 19 45q81 162 158.5 292.5t186.5 284.5zM1056 478q-4 37 -50 64.5t-94 27.5
q-62 0 -134 -32.5t-130 -86.5q-30 -29 -30 -47q0 -10 9 -15t24 -5q13 0 30 10q9 5 18 11q53 31 95 50q48 22 97 37q21 6 32 6q17 0 17 -12q0 -7 -4 -14t-10 -13q-57 -61 -136 -105.5t-126 -44.5q-13 0 -16.5 -11.5t-3.5 -33.5q0 -55 59 -55q20 6 38 8t42 2q52 0 52 -36
q0 -13 -11 -30q-31 -38 -71 -62q-48 -29 -96 -29q-28 0 -55 5t-53 10q-41 0 -41 -27q0 -8 1 -12q32 -26 73.5 -39.5t97.5 -13.5q102 0 205 65.5t103 131.5q0 44 -54 79q-43 28 -91 36q88 36 150.5 88.5t62.5 92.5z" />
    <glyph glyph-name="braceright" unicode="}" horiz-adv-x="1220" 
d="M1060 154q-20 -37 -61 -63t-79 -26q-31 0 -51 8q-27 11 -23 33q6 30 37 58q37 33 120 70q29 -21 46 -41q14 -17 14 -28q0 -6 -3 -11zM1186 494q-23 -33 -66 -68q-33 -27 -78 -54q-17 23 -17 55q0 43 38.5 67.5t84.5 24.5q19 0 32 -8t6 -17zM606 638q-4 37 -50 64.5
t-94 27.5q-62 0 -134 -32.5t-130 -86.5q-30 -29 -30 -47q0 -10 9 -15t24 -5q13 0 30 10q9 5 18 11q53 31 95 50q48 22 97 37q21 6 32 6q17 0 17 -12q0 -7 -4 -14t-10 -13q-57 -61 -136 -105.5t-126 -44.5q-13 0 -16.5 -11.5t-3.5 -33.5q0 -55 59 -55q20 6 38 8t42 2
q52 0 52 -36q0 -13 -11 -30q-31 -38 -71 -62q-48 -29 -96 -29q-28 0 -55 5t-53 10q-41 0 -41 -27q0 -8 1 -12q32 -26 73.5 -39.5t97.5 -13.5q102 0 205 65.5t103 131.5q0 44 -54 79q-43 28 -91 36q88 36 150.5 88.5t62.5 92.5zM907 619q27 31 27 58q0 20 -14.5 35.5
t-40.5 24.5q-12 3 -23 3q-51 0 -71 -51q-17 -37 -108 -227q-64 -135 -92 -191q-49 -98 -105 -203q-30 -45 -30 -71t30 -36q9 -3 17 -3q26 0 46 39q7 13 19 45q81 162 158.5 292.5t186.5 284.5zM1304 456q0 52 -67 85q-57 28 -122 28q-70 0 -145.5 -42t-88.5 -92
q-1 -4 -1 -14q0 -30 15.5 -65t32.5 -49q-57 -37 -113 -73q-81 -62 -81 -119q0 -52 62 -85q56 -30 127 -30q85 0 156 39q83 45 107 127q3 12 3 24q0 32 -21 64q-17 26 -37 39l106 70q67 52 67 93z" />
    <glyph glyph-name="asciitilde" unicode="~" horiz-adv-x="675" 
d="M288 778q-11 0 -39 -19.5t-55 -38.5q-17 -6 -32.5 8.5t-15.5 31.5q-6 19 27 46q25 20 75 46q13 6 31 6q25 0 54.5 -19.5t59.5 -38.5q22 4 43.5 15t43.5 29q14 0 26.5 -9.5t18.5 -29.5q4 -20 -13.5 -36.5t-85.5 -40.5q-14 -6 -28 -6q-25 0 -54 17q-28 19 -56 39z" />
    <glyph glyph-name="exclamdown" unicode="&#xa1;" horiz-adv-x="318" 
d="M485 645q-4 -35 -26 -57q-29 -28 -84 -28q-71 0 -71 79q7 35 30 58q27 26 67 26q43 0 66 -20q19 -17 19 -43q0 -10 -1 -15zM402 434q-18 -63 -40 -117q-16 -40 -46 -104.5t-58 -125.5l-14 -56q-16 -35 -58 -35q-8 1 -12 1q-37 4 -76 27q-46 28 -46 58q0 11 6.5 22
t20.5 21q64 92 104 161q46 79 88 176q5 20 11 41q8 20 30 20q8 0 22 -3q25 -8 44 -26q25 -23 25 -49q0 -7 -1 -11z" />
    <glyph glyph-name="cent" unicode="&#xa2;" horiz-adv-x="530" 
d="M559 683q-2 -14 -14 -36t-22 -42q16 -14 23.5 -34t7.5 -46q0 -77 -52 -151q-55 -78 -120 -78q-8 0 -12 1q-33 6 -33 43q0 28 18 62t41 51l7 7l-10 -3q-77 -36 -125 -116q-41 -68 -41 -122q1 -7 1 -10q1 -13 8 -18.5t20 -5.5q16 0 34 8.5t33 22.5q39 -8 39 -35
q0 -14 -12 -36q-17 -25 -54 -39t-78 -14q-14 -10 -39.5 -42t-31.5 -36q-12 -5 -21 -5q-21 0 -21 18q4 27 12 53t20 48q-21 19 -31 49.5t-10 66.5q0 129 94 257q101 137 222 137q17 0 34 -3q11 16 33.5 35.5t32 24t16 5t10.5 1.5q21 0 21 -18z" />
    <glyph glyph-name="sterling" unicode="&#xa3;" 
d="M386 3q-146 0 -249.5 103.5t-103.5 250.5q0 146 103 250t250 104q146 0 250 -104t104 -250t-104 -250t-250 -104zM386 51q127 0 216 90t89 216t-88.5 215.5t-216.5 89.5q-126 0 -216 -89t-90 -216q0 -126 90 -216t216 -90zM386 72q-118 0 -201.5 83.5t-83.5 201.5
q0 116 84 199t201 83t200.5 -82.5t83.5 -199.5q0 -118 -83.5 -201.5t-200.5 -83.5zM386 116q53 0 99 36q35 27 61 71q-78 -21 -157 -21q-80 0 -163 21q26 -43 60 -70q47 -37 100 -37zM216 238q43 -10 84 -15t86 -5q83 0 171 20l54 86h-450zM349 357h76l-38 91zM294 427
q4 -4 19 3.5t14 10.5q-25 56 -49 112q-6 7 -34 -11q-12 -12 -24 -23zM480 427l72 92q4 5 -23.5 23t-33.5 11q-15 -19 -26 -51t-21 -61q3 -4 6 -7q20 -13 26 -7zM645 12v38h-15v11h41v-11h-15v-38h-11zM676 12v49h15l9 -38l9 38h14v-49h-9v38l-10 -38h-9l-10 38v-38h-9z" />
    <glyph glyph-name="currency" unicode="&#xa4;" horiz-adv-x="623" 
d="M718 594q-3 35 -29 58q-29 26 -90 38q-27 14 -69 22.5t-76 8.5q-19 0 -29 -4q-84 -37 -169 -138q-78 -93 -133 -213q-17 -2 -37.5 -5t-34 -11.5t-20.5 -16t-7 -15.5q0 -19 46 -27l21 -3q-7 -17 -11 -29.5t-7 -26.5q-40 -5 -52 -14q-28 -17 -28 -30q0 -9 14 -20
q7 -5 53 -10q0 -29 2.5 -41.5t10.5 -29.5q18 -40 76.5 -65.5t152.5 -25.5q68 0 142 39q65 34 128 94q15 15 15 27q0 16 -19 16q-13 0 -27 -11q-33 -30 -101 -62q-82 -38 -137 -38q-27 0 -47 7.5t-31 24.5q-7 10 -7 28q0 14 3 29q47 0 88 5.5t71 16.5t30 28q0 22 -41 29.5
t-118 7.5l22 48q63 0 106 4t55 12q26 16 26 30q0 10 -12 18.5t-48 15t-76 6.5q59 87 152 172q17 11 35.5 21.5t28.5 10.5q13 0 13 -15q0 -24 -38 -79q-33 -48 -44 -55q0 -34 24 -52.5t59 -18.5q49 0 83 32q42 44 61.5 95t19.5 112z" />
    <glyph glyph-name="yen" unicode="&#xa5;" 
d="M386 3q-146 0 -249.5 103.5t-103.5 250.5q0 146 103 250t250 104q146 0 250 -104t104 -250t-104 -250t-250 -104zM386 51q127 0 216 90t89 216t-88.5 215.5t-216.5 89.5q-126 0 -216 -89t-90 -216q0 -126 90 -216t216 -90zM386 72q-118 0 -201.5 83.5t-83.5 201.5
q0 116 84 199t201 83t200.5 -82.5t83.5 -199.5q0 -118 -83.5 -201.5t-200.5 -83.5zM386 116q53 0 99 36q35 27 61 71q-78 -21 -157 -21q-80 0 -163 21q26 -43 60 -70q47 -37 100 -37zM216 238q43 -10 84 -15t86 -5q83 0 171 20l54 86h-450zM349 357h76l-38 91zM294 427
q4 -4 19 3.5t14 10.5q-25 56 -49 112q-6 7 -34 -11q-12 -12 -24 -23zM480 427l72 92q4 5 -23.5 23t-33.5 11q-15 -19 -26 -51t-21 -61q3 -4 6 -7q20 -13 26 -7zM645 12v38h-15v11h41v-11h-15v-38h-11zM676 12v49h15l9 -38l9 38h14v-49h-9v38l-10 -38h-9l-10 38v-38h-9z" />
    <glyph glyph-name="brokenbar" unicode="&#xa6;" horiz-adv-x="955" 
d="M352 140q-22 -43 -56.5 -73.5t-67.5 -30.5q-17 1 -24.5 14t-7.5 35q0 46 30.5 110t57.5 78q-4 -20 -4 -29q0 -36 19 -63.5t53 -40.5zM412 390q14 -6 20 -18.5t6 -31.5q0 -32 -14 -69t-31 -60q-34 24 -34 85q0 42 21 83q8 14 18 14q5 0 14 -3zM580 59q20 -39 56 -54
t94 -15q88 0 141.5 36t53.5 95q0 32 -26 78t-26 95q0 38 24 78q10 16 48 64q-20 0 -74 28q-27 14 -51 17t-33 3q-50 0 -80.5 -25t-30.5 -76q0 -25 9 -57q-19 -56 -68 -97.5t-102 -41.5q-13 0 -25 3q20 27 37.5 76.5t17.5 88.5q0 29 -10 46q-13 20 -56.5 28t-45.5 12
q-17 15 -42 22.5t-53 7.5q-21 0 -44 -3q-82 -11 -159 -139q-73 -121 -73 -222q0 -49 43 -84t115 -35q9 -1 13 -1q55 0 111 32q62 36 101 97q16 -2 25 -2q71 0 138.5 48.5t88.5 118.5q0 -37 19 -85t46 -90q13 -20 13 -38q0 -31 -33 -31q-14 0 -31 7q-11 38 -20 54
q-21 36 -59 36q-24 0 -41 -12.5t-17 -35.5q0 -12 6 -27z" />
    <glyph glyph-name="section" unicode="&#xa7;" horiz-adv-x="1382" 
d="M352 140q-22 -43 -56.5 -73.5t-67.5 -30.5q-17 1 -24.5 14t-7.5 35q0 46 30.5 110t57.5 78q-4 -20 -4 -29q0 -36 19 -63.5t53 -40.5zM412 390q14 -6 20 -18.5t6 -31.5q0 -32 -14 -69t-31 -60q-34 24 -34 85q0 42 21 83q8 14 18 14q5 0 14 -3zM580 59q22 -38 69 -55
q40 -14 101 -14q88 0 141.5 36t53.5 95q0 32 -36 78t-36 95q0 39 22 78q10 18 47 64q-20 0 -74 28q-27 14 -51 17t-33 3q-50 0 -80.5 -25t-30.5 -76q0 -25 9 -57q-19 -56 -67 -97.5t-100 -41.5q-13 0 -25 3q20 27 37.5 76.5t17.5 88.5q0 29 -10 46q-13 20 -56.5 28t-45.5 12
q-17 15 -42 22.5t-53 7.5q-21 0 -44 -3q-82 -11 -159 -139q-73 -121 -73 -222q0 -49 43 -84t115 -35q9 -1 13 -1q55 0 111 32q62 36 101 97q16 -2 25 -2q70 0 136.5 48.5t87.5 118.5q3 -24 23 -63q7 -14 65 -112q5 -8 5 -19q0 -18 -15.5 -31.5t-41.5 -13.5q-5 0 -19 2
q-12 42 -20 57q-22 39 -59 39q-25 0 -43 -13.5t-18 -37.5q0 -13 9 -30zM867 116q16 -2 25 -2q70 0 136.5 48.5t87.5 118.5q3 -24 23 -63q7 -14 65 -112q5 -8 5 -19q0 -18 -15.5 -31.5t-41.5 -13.5q-5 0 -19 2q-12 42 -20 57q-22 39 -59 39q-25 0 -43 -13.5t-18 -37.5
q0 -13 9 -30q22 -38 69 -55q40 -14 101 -14q88 0 141.5 36t53.5 95q0 32 -36 78t-36 95q0 39 22 78q10 18 47 64q-20 0 -74 28q-27 14 -51 17t-33 3q-50 0 -80.5 -25t-30.5 -76q0 -25 9 -57q-19 -56 -67 -97.5t-100 -41.5q-13 0 -25 3z" />
    <glyph glyph-name="dieresis" unicode="&#xa8;" horiz-adv-x="564" 
d="M109 579q16 -8 29 -8q21 0 42 16t38 40.5t17 47.5q0 17 -10 32q-6 9 -16 18q-7 4 -16 6.5t-17 2.5q-18 0 -34.5 -10.5t-36.5 -39.5q-10 -12 -15 -27.5t-5 -28.5q0 -35 24 -49zM317 578q16 -8 29 -8q22 0 43.5 16t38.5 40.5t17 46.5q0 18 -10 33q-6 8 -18 18q-7 4 -16 6.5
t-16 2.5q-17 0 -34.5 -11t-37.5 -39.5t-20 -56.5q0 -34 24 -48z" />
    <glyph glyph-name="copyright" unicode="&#xa9;" 
d="M386 3q-146 0 -249.5 103.5t-103.5 250.5q0 146 103 250t250 104q146 0 250 -104t104 -250t-104 -250t-250 -104zM386 51q127 0 216 90t89 216t-88.5 215.5t-216.5 89.5q-126 0 -216 -89t-90 -216q0 -126 90 -216t216 -90zM386 72q-118 0 -201.5 83.5t-83.5 201.5
q0 116 84 199t201 83t200.5 -82.5t83.5 -199.5q0 -118 -83.5 -201.5t-200.5 -83.5zM386 116q53 0 99 36q35 27 61 71q-78 -21 -157 -21q-80 0 -163 21q26 -43 60 -70q47 -37 100 -37zM216 238q43 -10 84 -15t86 -5q83 0 171 20l54 86h-450zM349 357h76l-38 91zM294 427
q4 -4 19 3.5t14 10.5q-25 56 -49 112q-6 7 -34 -11q-12 -12 -24 -23zM480 427l72 92q4 5 -23.5 23t-33.5 11q-15 -19 -26 -51t-21 -61q3 -4 6 -7q20 -13 26 -7zM645 12v38h-15v11h41v-11h-15v-38h-11zM676 12v49h15l9 -38l9 38h14v-49h-9v38l-10 -38h-9l-10 38v-38h-9z" />
    <glyph glyph-name="ordfeminine" unicode="&#xaa;" 
d="M386 3q-146 0 -249.5 103.5t-103.5 250.5q0 146 103 250t250 104q146 0 250 -104t104 -250t-104 -250t-250 -104zM386 51q127 0 216 90t89 216t-88.5 215.5t-216.5 89.5q-126 0 -216 -89t-90 -216q0 -126 90 -216t216 -90zM386 72q-118 0 -201.5 83.5t-83.5 201.5
q0 116 84 199t201 83t200.5 -82.5t83.5 -199.5q0 -118 -83.5 -201.5t-200.5 -83.5zM386 116q53 0 99 36q35 27 61 71q-78 -21 -157 -21q-80 0 -163 21q26 -43 60 -70q47 -37 100 -37zM216 238q43 -10 84 -15t86 -5q83 0 171 20l54 86h-450zM349 357h76l-38 91zM294 427
q4 -4 19 3.5t14 10.5q-25 56 -49 112q-6 7 -34 -11q-12 -12 -24 -23zM480 427l72 92q4 5 -23.5 23t-33.5 11q-15 -19 -26 -51t-21 -61q3 -4 6 -7q20 -13 26 -7zM645 12v38h-15v11h41v-11h-15v-38h-11zM676 12v49h15l9 -38l9 38h14v-49h-9v38l-10 -38h-9l-10 38v-38h-9z" />
    <glyph glyph-name="guillemotleft" unicode="&#xab;" 
d="M386 3q-146 0 -249.5 103.5t-103.5 250.5q0 146 103 250t250 104q146 0 250 -104t104 -250t-104 -250t-250 -104zM386 51q127 0 216 90t89 216t-88.5 215.5t-216.5 89.5q-126 0 -216 -89t-90 -216q0 -126 90 -216t216 -90zM386 72q-118 0 -201.5 83.5t-83.5 201.5
q0 116 84 199t201 83t200.5 -82.5t83.5 -199.5q0 -118 -83.5 -201.5t-200.5 -83.5zM386 116q53 0 99 36q35 27 61 71q-78 -21 -157 -21q-80 0 -163 21q26 -43 60 -70q47 -37 100 -37zM216 238q43 -10 84 -15t86 -5q83 0 171 20l54 86h-450zM349 357h76l-38 91zM294 427
q4 -4 19 3.5t14 10.5q-25 56 -49 112q-6 7 -34 -11q-12 -12 -24 -23zM480 427l72 92q4 5 -23.5 23t-33.5 11q-15 -19 -26 -51t-21 -61q3 -4 6 -7q20 -13 26 -7zM645 12v38h-15v11h41v-11h-15v-38h-11zM676 12v49h15l9 -38l9 38h14v-49h-9v38l-10 -38h-9l-10 38v-38h-9z" />
    <glyph glyph-name="logicalnot" unicode="&#xac;" 
d="M386 3q-146 0 -249.5 103.5t-103.5 250.5q0 146 103 250t250 104q146 0 250 -104t104 -250t-104 -250t-250 -104zM386 51q127 0 216 90t89 216t-88.5 215.5t-216.5 89.5q-126 0 -216 -89t-90 -216q0 -126 90 -216t216 -90zM386 72q-118 0 -201.5 83.5t-83.5 201.5
q0 116 84 199t201 83t200.5 -82.5t83.5 -199.5q0 -118 -83.5 -201.5t-200.5 -83.5zM386 116q53 0 99 36q35 27 61 71q-78 -21 -157 -21q-80 0 -163 21q26 -43 60 -70q47 -37 100 -37zM216 238q43 -10 84 -15t86 -5q83 0 171 20l54 86h-450zM349 357h76l-38 91zM294 427
q4 -4 19 3.5t14 10.5q-25 56 -49 112q-6 7 -34 -11q-12 -12 -24 -23zM480 427l72 92q4 5 -23.5 23t-33.5 11q-15 -19 -26 -51t-21 -61q3 -4 6 -7q20 -13 26 -7zM645 12v38h-15v11h41v-11h-15v-38h-11zM676 12v49h15l9 -38l9 38h14v-49h-9v38l-10 -38h-9l-10 38v-38h-9z" />
    <glyph glyph-name="minus" unicode="&#xad;" 
d="M386 3q-146 0 -249.5 103.5t-103.5 250.5q0 146 103 250t250 104q146 0 250 -104t104 -250t-104 -250t-250 -104zM386 51q127 0 216 90t89 216t-88.5 215.5t-216.5 89.5q-126 0 -216 -89t-90 -216q0 -126 90 -216t216 -90zM386 72q-118 0 -201.5 83.5t-83.5 201.5
q0 116 84 199t201 83t200.5 -82.5t83.5 -199.5q0 -118 -83.5 -201.5t-200.5 -83.5zM386 116q53 0 99 36q35 27 61 71q-78 -21 -157 -21q-80 0 -163 21q26 -43 60 -70q47 -37 100 -37zM216 238q43 -10 84 -15t86 -5q83 0 171 20l54 86h-450zM349 357h76l-38 91zM294 427
q4 -4 19 3.5t14 10.5q-25 56 -49 112q-6 7 -34 -11q-12 -12 -24 -23zM480 427l72 92q4 5 -23.5 23t-33.5 11q-15 -19 -26 -51t-21 -61q3 -4 6 -7q20 -13 26 -7zM645 12v38h-15v11h41v-11h-15v-38h-11zM676 12v49h15l9 -38l9 38h14v-49h-9v38l-10 -38h-9l-10 38v-38h-9z" />
    <glyph glyph-name="registered" unicode="&#xae;" 
d="M386 3q-146 0 -249.5 103.5t-103.5 250.5q0 146 103 250t250 104q146 0 250 -104t104 -250t-104 -250t-250 -104zM386 51q127 0 216 90t89 216t-88.5 215.5t-216.5 89.5q-126 0 -216 -89t-90 -216q0 -126 90 -216t216 -90zM386 72q-118 0 -201.5 83.5t-83.5 201.5
q0 116 84 199t201 83t200.5 -82.5t83.5 -199.5q0 -118 -83.5 -201.5t-200.5 -83.5zM386 116q53 0 99 36q35 27 61 71q-78 -21 -157 -21q-80 0 -163 21q26 -43 60 -70q47 -37 100 -37zM216 238q43 -10 84 -15t86 -5q83 0 171 20l54 86h-450zM349 357h76l-38 91zM294 427
q4 -4 19 3.5t14 10.5q-25 56 -49 112q-6 7 -34 -11q-12 -12 -24 -23zM480 427l72 92q4 5 -23.5 23t-33.5 11q-15 -19 -26 -51t-21 -61q3 -4 6 -7q20 -13 26 -7zM645 12v38h-15v11h41v-11h-15v-38h-11zM676 12v49h15l9 -38l9 38h14v-49h-9v38l-10 -38h-9l-10 38v-38h-9z" />
    <glyph glyph-name="macron" unicode="&#xaf;" 
d="M386 3q-146 0 -249.5 103.5t-103.5 250.5q0 146 103 250t250 104q146 0 250 -104t104 -250t-104 -250t-250 -104zM386 51q127 0 216 90t89 216t-88.5 215.5t-216.5 89.5q-126 0 -216 -89t-90 -216q0 -126 90 -216t216 -90zM386 72q-118 0 -201.5 83.5t-83.5 201.5
q0 116 84 199t201 83t200.5 -82.5t83.5 -199.5q0 -118 -83.5 -201.5t-200.5 -83.5zM386 116q53 0 99 36q35 27 61 71q-78 -21 -157 -21q-80 0 -163 21q26 -43 60 -70q47 -37 100 -37zM216 238q43 -10 84 -15t86 -5q83 0 171 20l54 86h-450zM349 357h76l-38 91zM294 427
q4 -4 19 3.5t14 10.5q-25 56 -49 112q-6 7 -34 -11q-12 -12 -24 -23zM480 427l72 92q4 5 -23.5 23t-33.5 11q-15 -19 -26 -51t-21 -61q3 -4 6 -7q20 -13 26 -7zM645 12v38h-15v11h41v-11h-15v-38h-11zM676 12v49h15l9 -38l9 38h14v-49h-9v38l-10 -38h-9l-10 38v-38h-9z" />
    <glyph glyph-name="degree" unicode="&#xb0;" horiz-adv-x="286" 
d="M411 665q-2 -16 -14.5 -29t-30.5 -13q-20 0 -31.5 9.5t-9.5 26.5q3 18 16 31t33 13q22 3 31 -15q6 -11 6 -23zM479 679q1 5 1 16q0 42 -28.5 67.5t-76.5 25.5q-55 0 -97 -37.5t-47 -88.5q-1 -5 -1 -16q0 -40 32.5 -65.5t83.5 -25.5q50 0 88.5 37t44.5 87z" />
    <glyph glyph-name="plusminus" unicode="&#xb1;" horiz-adv-x="597" 
d="M236 161q-55 0 -92.5 -5t-47.5 -14q-27 -20 -27 -38q0 -12 12 -23.5t76 -19t125 -7.5q56 0 115 7.5t84 18.5q33 16 33 36q0 26 -49 38q-34 8 -127 8q14 24 37 71q12 25 25 50q60 0 116.5 7.5t71.5 19.5q32 32 32 46q0 18 -41 28q-14 4 -47.5 6t-83.5 2q25 59 40 106
t12 58q-9 38 -31 38q-10 0 -26.5 -8t-55 -70.5t-68.5 -124.5q-67 0 -116.5 -5t-60.5 -14q-29 -21 -29 -39q0 -11 12 -23q8 -9 52.5 -17t95.5 -8q-12 -33 -22.5 -67.5t-14.5 -56.5z" />
    <glyph glyph-name="twosuperior" unicode="&#xb2;" 
d="M386 3q-146 0 -249.5 103.5t-103.5 250.5q0 146 103 250t250 104q146 0 250 -104t104 -250t-104 -250t-250 -104zM386 51q127 0 216 90t89 216t-88.5 215.5t-216.5 89.5q-126 0 -216 -89t-90 -216q0 -126 90 -216t216 -90zM386 72q-118 0 -201.5 83.5t-83.5 201.5
q0 116 84 199t201 83t200.5 -82.5t83.5 -199.5q0 -118 -83.5 -201.5t-200.5 -83.5zM386 116q53 0 99 36q35 27 61 71q-78 -21 -157 -21q-80 0 -163 21q26 -43 60 -70q47 -37 100 -37zM216 238q43 -10 84 -15t86 -5q83 0 171 20l54 86h-450zM349 357h76l-38 91zM294 427
q4 -4 19 3.5t14 10.5q-25 56 -49 112q-6 7 -34 -11q-12 -12 -24 -23zM480 427l72 92q4 5 -23.5 23t-33.5 11q-15 -19 -26 -51t-21 -61q3 -4 6 -7q20 -13 26 -7zM645 12v38h-15v11h41v-11h-15v-38h-11zM676 12v49h15l9 -38l9 38h14v-49h-9v38l-10 -38h-9l-10 38v-38h-9z" />
    <glyph glyph-name="threesuperior" unicode="&#xb3;" 
d="M386 3q-146 0 -249.5 103.5t-103.5 250.5q0 146 103 250t250 104q146 0 250 -104t104 -250t-104 -250t-250 -104zM386 51q127 0 216 90t89 216t-88.5 215.5t-216.5 89.5q-126 0 -216 -89t-90 -216q0 -126 90 -216t216 -90zM386 72q-118 0 -201.5 83.5t-83.5 201.5
q0 116 84 199t201 83t200.5 -82.5t83.5 -199.5q0 -118 -83.5 -201.5t-200.5 -83.5zM386 116q53 0 99 36q35 27 61 71q-78 -21 -157 -21q-80 0 -163 21q26 -43 60 -70q47 -37 100 -37zM216 238q43 -10 84 -15t86 -5q83 0 171 20l54 86h-450zM349 357h76l-38 91zM294 427
q4 -4 19 3.5t14 10.5q-25 56 -49 112q-6 7 -34 -11q-12 -12 -24 -23zM480 427l72 92q4 5 -23.5 23t-33.5 11q-15 -19 -26 -51t-21 -61q3 -4 6 -7q20 -13 26 -7zM645 12v38h-15v11h41v-11h-15v-38h-11zM676 12v49h15l9 -38l9 38h14v-49h-9v38l-10 -38h-9l-10 38v-38h-9z" />
    <glyph glyph-name="acute" unicode="&#xb4;" horiz-adv-x="198" 
d="M261 723q-10 -19 -65 -83q-58 -69 -77 -76.5t-39 -7.5q-23 0 -26 11q34 68 63 114.5t46.5 53.5t36.5 7q24 0 41 -5.5t20 -13.5z" />
    <glyph glyph-name="mu" unicode="&#xb5;" 
d="M386 3q-146 0 -249.5 103.5t-103.5 250.5q0 146 103 250t250 104q146 0 250 -104t104 -250t-104 -250t-250 -104zM386 51q127 0 216 90t89 216t-88.5 215.5t-216.5 89.5q-126 0 -216 -89t-90 -216q0 -126 90 -216t216 -90zM386 72q-118 0 -201.5 83.5t-83.5 201.5
q0 116 84 199t201 83t200.5 -82.5t83.5 -199.5q0 -118 -83.5 -201.5t-200.5 -83.5zM386 116q53 0 99 36q35 27 61 71q-78 -21 -157 -21q-80 0 -163 21q26 -43 60 -70q47 -37 100 -37zM216 238q43 -10 84 -15t86 -5q83 0 171 20l54 86h-450zM349 357h76l-38 91zM294 427
q4 -4 19 3.5t14 10.5q-25 56 -49 112q-6 7 -34 -11q-12 -12 -24 -23zM480 427l72 92q4 5 -23.5 23t-33.5 11q-15 -19 -26 -51t-21 -61q3 -4 6 -7q20 -13 26 -7zM645 12v38h-15v11h41v-11h-15v-38h-11zM676 12v49h15l9 -38l9 38h14v-49h-9v38l-10 -38h-9l-10 38v-38h-9z" />
    <glyph glyph-name="paragraph" unicode="&#xb6;" 
d="M386 3q-146 0 -249.5 103.5t-103.5 250.5q0 146 103 250t250 104q146 0 250 -104t104 -250t-104 -250t-250 -104zM386 51q127 0 216 90t89 216t-88.5 215.5t-216.5 89.5q-126 0 -216 -89t-90 -216q0 -126 90 -216t216 -90zM386 72q-118 0 -201.5 83.5t-83.5 201.5
q0 116 84 199t201 83t200.5 -82.5t83.5 -199.5q0 -118 -83.5 -201.5t-200.5 -83.5zM386 116q53 0 99 36q35 27 61 71q-78 -21 -157 -21q-80 0 -163 21q26 -43 60 -70q47 -37 100 -37zM216 238q43 -10 84 -15t86 -5q83 0 171 20l54 86h-450zM349 357h76l-38 91zM294 427
q4 -4 19 3.5t14 10.5q-25 56 -49 112q-6 7 -34 -11q-12 -12 -24 -23zM480 427l72 92q4 5 -23.5 23t-33.5 11q-15 -19 -26 -51t-21 -61q3 -4 6 -7q20 -13 26 -7zM645 12v38h-15v11h41v-11h-15v-38h-11zM676 12v49h15l9 -38l9 38h14v-49h-9v38l-10 -38h-9l-10 38v-38h-9z" />
    <glyph glyph-name="periodcentered" unicode="&#xb7;" 
d="M386 3q-146 0 -249.5 103.5t-103.5 250.5q0 146 103 250t250 104q146 0 250 -104t104 -250t-104 -250t-250 -104zM386 51q127 0 216 90t89 216t-88.5 215.5t-216.5 89.5q-126 0 -216 -89t-90 -216q0 -126 90 -216t216 -90zM386 72q-118 0 -201.5 83.5t-83.5 201.5
q0 116 84 199t201 83t200.5 -82.5t83.5 -199.5q0 -118 -83.5 -201.5t-200.5 -83.5zM386 116q53 0 99 36q35 27 61 71q-78 -21 -157 -21q-80 0 -163 21q26 -43 60 -70q47 -37 100 -37zM216 238q43 -10 84 -15t86 -5q83 0 171 20l54 86h-450zM349 357h76l-38 91zM294 427
q4 -4 19 3.5t14 10.5q-25 56 -49 112q-6 7 -34 -11q-12 -12 -24 -23zM480 427l72 92q4 5 -23.5 23t-33.5 11q-15 -19 -26 -51t-21 -61q3 -4 6 -7q20 -13 26 -7zM645 12v38h-15v11h41v-11h-15v-38h-11zM676 12v49h15l9 -38l9 38h14v-49h-9v38l-10 -38h-9l-10 38v-38h-9z" />
    <glyph glyph-name="periodcentered" unicode="&#x2219;" 
d="M386 3q-146 0 -249.5 103.5t-103.5 250.5q0 146 103 250t250 104q146 0 250 -104t104 -250t-104 -250t-250 -104zM386 51q127 0 216 90t89 216t-88.5 215.5t-216.5 89.5q-126 0 -216 -89t-90 -216q0 -126 90 -216t216 -90zM386 72q-118 0 -201.5 83.5t-83.5 201.5
q0 116 84 199t201 83t200.5 -82.5t83.5 -199.5q0 -118 -83.5 -201.5t-200.5 -83.5zM386 116q53 0 99 36q35 27 61 71q-78 -21 -157 -21q-80 0 -163 21q26 -43 60 -70q47 -37 100 -37zM216 238q43 -10 84 -15t86 -5q83 0 171 20l54 86h-450zM349 357h76l-38 91zM294 427
q4 -4 19 3.5t14 10.5q-25 56 -49 112q-6 7 -34 -11q-12 -12 -24 -23zM480 427l72 92q4 5 -23.5 23t-33.5 11q-15 -19 -26 -51t-21 -61q3 -4 6 -7q20 -13 26 -7zM645 12v38h-15v11h41v-11h-15v-38h-11zM676 12v49h15l9 -38l9 38h14v-49h-9v38l-10 -38h-9l-10 38v-38h-9z" />
    <glyph glyph-name="cedilla" unicode="&#xb8;" horiz-adv-x="339" 
d="M213 -149q6 36 -44 40t-44 28q3 19 41 45q4 8 -1 12t-16 4q-25 0 -49.5 -15t-39.5 -36.5t-15 -39.5q0 -8 5 -15q37 -6 54 -8.5t11 -17.5q-7 -16 -25.5 -25.5t-39.5 -9.5q-40 0 -52 26q-11 -15 -11 -34q0 -23 17.5 -38.5t49.5 -15.5q72 0 118 37q36 29 41 63z" />
    <glyph glyph-name="onesuperior" unicode="&#xb9;" horiz-adv-x="1250" 
d="M1090 154q-20 -37 -61 -63t-79 -26q-31 0 -51 8q-27 11 -23 33q6 30 37 58q37 33 120 70q29 -21 46 -41q14 -17 14 -28q0 -6 -3 -11zM1216 494q-23 -33 -66 -68q-33 -27 -78 -54q-17 23 -17 55q0 43 38.5 67.5t84.5 24.5q19 0 32 -8t6 -17zM656 655q12 14 12 26
q0 24 -39 37q-30 6 -74 6q-25 0 -95 -2t-88 -2q-8 0 -17 1t-12 1q-16 0 -20 -7t-7 -30q-16 -32 -50 -95t-50 -92q-11 -21 -11 -40q0 -30 28 -47t61 -17q13 0 44 4q70 9 90 9q23 0 35 -3.5t14 -14.5q7 -36 -104 -85q-105 -46 -162 -46q-27 0 -55 10q-17 6 -33 13
q-12 -2 -22.5 -12.5t-10.5 -25.5q0 -3 2 -11q13 -31 49 -52.5t85 -25.5q88 0 208 59q136 67 145 143q0 56 -58 106q-63 54 -146 54q5 23 25 58q14 24 38 57q54 8 112 16t106 8zM937 619q27 31 27 58q0 20 -14.5 35.5t-40.5 24.5q-12 3 -23 3q-51 0 -71 -51
q-17 -37 -108 -227q-64 -135 -92 -191q-49 -98 -105 -203q-30 -45 -30 -71t30 -36q9 -3 17 -3q26 0 46 39q7 13 19 45q81 162 158.5 292.5t186.5 284.5zM1334 456q0 52 -67 85q-57 28 -122 28q-70 0 -145.5 -42t-88.5 -92q-1 -4 -1 -14q0 -30 15.5 -65t32.5 -49
q-57 -37 -113 -73q-81 -62 -81 -119q0 -52 62 -85q56 -30 127 -30q85 0 156 39q83 45 107 127q3 12 3 24q0 32 -21 64q-17 26 -37 39l106 70q67 52 67 93z" />
    <glyph glyph-name="ordmasculine" unicode="&#xba;" horiz-adv-x="1150" 
d="M990 154q-20 -37 -61 -63t-79 -26q-31 0 -51 8q-27 11 -23 33q6 30 37 58q37 33 120 70q29 -21 46 -41q14 -17 14 -28q0 -6 -3 -11zM1116 494q-23 -33 -66 -68q-33 -27 -78 -54q-17 23 -17 55q0 43 38.5 67.5t84.5 24.5q19 0 32 -8t6 -17zM588 613q6 17 6 33q0 35 -26 73
q-12 10 -26 16t-30 6q-31 0 -145 -17.5t-169 -34.5q-26 -15 -26 -33q0 -15 22 -18q22 0 106.5 3.5t119.5 3.5q-69 -83 -135 -180q-69 -101 -137 -221q-10 -19 -10 -36q0 -25 22.5 -39.5t57.5 -14.5q19 0 25 15q4 17 5 21q49 98 154 218q93 102 186 205zM837 619q27 31 27 58
q0 20 -14.5 35.5t-40.5 24.5q-12 3 -23 3q-51 0 -71 -51q-17 -37 -108 -227q-64 -135 -92 -191q-49 -98 -105 -203q-30 -45 -30 -71t30 -36q9 -3 17 -3q26 0 46 39q7 13 19 45q81 162 158.5 292.5t186.5 284.5zM1234 456q0 52 -67 85q-57 28 -122 28q-70 0 -145.5 -42
t-88.5 -92q-1 -4 -1 -14q0 -30 15.5 -65t32.5 -49q-57 -37 -113 -73q-81 -62 -81 -119q0 -52 62 -85q56 -30 127 -30q85 0 156 39q83 45 107 127q3 12 3 24q0 32 -21 64q-17 26 -37 39l106 70q67 52 67 93z" />
    <glyph glyph-name="guillemotright" unicode="&#xbb;" horiz-adv-x="1741" 
d="M1724 413q0 -87 -93 -225q-96 -142 -160 -131q-34 6 -34 50q0 73 79 208q75 129 120 152q24 12 43 12q45 0 45 -66zM434 670q9 13 9 26q0 20 -21 27.5t-45 7.5q-56 0 -111.5 -33.5t-55.5 -63.5q-2 -13 10.5 -20.5t35.5 -7.5q-20 -63 -45 -126q-29 -72 -51 -122
q-29 -62 -57 -123q-11 -25 -11 -44q0 -22 17.5 -35t54.5 -13q43 0 46 24.5t5 41.5q18 38 75 154q34 70 73 152q46 98 71 155zM880 655q12 14 12 26q0 24 -39 37q-30 6 -74 6q-25 0 -95 -2t-88 -2q-8 0 -17 1t-12 1q-16 0 -20 -7t-7 -30q-16 -32 -50 -95t-50 -92
q-11 -21 -11 -40q0 -30 28 -47t61 -17q13 0 44 4q70 9 90 9q23 0 35 -3.5t14 -14.5q7 -36 -104 -85q-105 -46 -162 -46q-27 0 -55 10q-17 6 -33 13q-12 -2 -22.5 -12.5t-10.5 -25.5q0 -3 2 -11q13 -31 49 -52.5t85 -25.5q88 0 208 59q136 67 145 143q0 56 -58 106
q-63 54 -146 54q5 23 25 58q14 24 38 57q54 8 112 16t106 8zM1161 619q27 31 27 58q0 20 -14.5 35.5t-40.5 24.5q-12 3 -23 3q-51 0 -71 -51q-17 -37 -108 -227q-64 -135 -92 -191q-49 -98 -105 -203q-30 -45 -30 -71t30 -36q9 -3 17 -3q26 0 46 39q7 13 19 45
q81 162 158.5 292.5t186.5 284.5zM1364 516q9 13 9 26q0 20 -21 27.5t-45 7.5q-56 0 -111.5 -33.5t-55.5 -63.5q-2 -13 10.5 -20.5t35.5 -7.5q-20 -63 -45 -126q-29 -72 -51 -122q-29 -62 -57 -123q-11 -25 -11 -44q0 -22 17.5 -35t54.5 -13q43 0 46 24.5t5 41.5
q18 38 75 154q34 70 73 152q46 98 71 155zM1821 420q0 77 -46 114q-38 31 -102 31q-27 0 -47 -4q-14 3 -27 3q-103 0 -202 -159q-90 -145 -90 -260q0 -15 3 -29q0 -62 52 -95q44 -28 104 -28q18 0 35 3q85 15 166 108q66 76 113 180q41 91 41 136z" />
    <glyph glyph-name="onequarter" unicode="&#xbc;" horiz-adv-x="990" 
d="M908 500q-69 -130 -127 -274q-22 0 -65 -2t-63 -2q52 64 119.5 137t135.5 141zM434 670q9 13 9 26q0 20 -21 27.5t-45 7.5q-56 0 -111.5 -33.5t-55.5 -63.5q-2 -13 10.5 -20.5t35.5 -7.5q-20 -63 -45 -126q-29 -72 -51 -122q-29 -62 -57 -123q-11 -25 -11 -44
q0 -22 17.5 -35t54.5 -13q43 0 46 24.5t5 41.5q18 38 75 154q34 70 73 152q46 98 71 155zM678 619q27 31 27 58q0 20 -14.5 35.5t-40.5 24.5q-12 3 -23 3q-51 0 -71 -51q-17 -37 -108 -227q-64 -135 -92 -191q-49 -98 -105 -203q-30 -45 -30 -71t30 -36q9 -3 17 -3
q26 0 46 39q7 13 19 45q81 162 158.5 292.5t186.5 284.5zM1066 548q-25 12 -56 20t-60 8q-14 8 -24 8t-15 -2t-18 -10q-108 -78 -204 -166q-106 -97 -176 -186q-10 -15 -8 -35q8 -26 25.5 -36t44.5 -10q11 0 24 1.5t20 2.5q69 7 138 15q-16 -42 -20 -52q-10 -27 -16 -50
q-6 -17 -6 -29q0 -36 54 -36q47 0 61 18q3 4 8 32l50 124l97 4q15 0 20.5 8t5.5 22q0 9 -9 16q-13 10 -37 10l-53 1q42 97 74 158q40 76 67.5 100.5t27.5 40.5q0 11 -15 23z" />
    <glyph glyph-name="onehalf" unicode="&#xbd;" horiz-adv-x="990" 
d="M434 670q9 13 9 26q0 20 -21 27.5t-45 7.5q-56 0 -111.5 -33.5t-55.5 -63.5q-2 -13 10.5 -20.5t35.5 -7.5q-20 -63 -45 -126q-29 -72 -51 -122q-29 -62 -57 -123q-11 -25 -11 -44q0 -22 17.5 -35t54.5 -13q43 0 46 24.5t5 41.5q18 38 75 154q34 70 73 152q46 98 71 155z
M1056 455q16 -130 -347 -351q41 3 79 3q67 0 142 -8q14 -2 24 -11q7 -6 17 -22q2 -8 2 -12q0 -20 -21 -28q-10 0 -17.5 1.5t-21.5 6.5q-7 1 -15 1h-13q-52 0 -131.5 -14.5t-162.5 -29.5q-9 3 -28 14.5t-30 22.5q-17 14 -17 33q0 18 17 29q146 93 255 202q117 116 117 177
q0 14 -6 21t-15 7q-8 0 -16 -4q-16 -9 -128 -86q-72 -50 -93 -45q-35 0 -42 31q46 80 144 143q86 55 120 50q67 -10 123 -46q64 -41 64 -85zM678 619q27 31 27 58q0 20 -14.5 35.5t-40.5 24.5q-12 3 -23 3q-51 0 -71 -51q-17 -37 -108 -227q-64 -135 -92 -191
q-49 -98 -105 -203q-30 -45 -30 -71t30 -36q9 -3 17 -3q26 0 46 39q7 13 19 45q81 162 158.5 292.5t186.5 284.5z" />
    <glyph glyph-name="threequarters" unicode="&#xbe;" horiz-adv-x="1215" 
d="M1138 500q-69 -130 -127 -274q-22 0 -65 -2t-63 -2q52 64 119.5 137t135.5 141zM1296 548q-25 12 -56 20t-60 8q-14 8 -24 8t-15 -2t-18 -10q-108 -78 -204 -166q-106 -97 -176 -186q-10 -15 -8 -35q8 -26 25.5 -36t44.5 -10q11 0 24 1.5t20 2.5q69 7 138 15
q-16 -42 -20 -52q-10 -27 -16 -50q-6 -17 -6 -29q0 -36 54 -36q47 0 61 18q3 4 8 32l50 124l97 4q15 0 20.5 8t5.5 22q0 9 -9 16q-13 10 -37 10l-53 1q42 97 74 158q40 76 67.5 100.5t27.5 40.5q0 11 -15 23zM606 638q-4 37 -50 64.5t-94 27.5q-62 0 -134 -32.5t-130 -86.5
q-30 -29 -30 -47q0 -10 9 -15t24 -5q13 0 30 10q9 5 18 11q53 31 95 50q48 22 97 37q21 6 32 6q17 0 17 -12q0 -7 -4 -14t-10 -13q-57 -61 -136 -105.5t-126 -44.5q-13 0 -16.5 -11.5t-3.5 -33.5q0 -55 59 -55q20 6 38 8t42 2q52 0 52 -36q0 -13 -11 -30q-31 -38 -71 -62
q-48 -29 -96 -29q-28 0 -55 5t-53 10q-41 0 -41 -27q0 -8 1 -12q32 -26 73.5 -39.5t97.5 -13.5q102 0 205 65.5t103 131.5q0 44 -54 79q-43 28 -91 36q88 36 150.5 88.5t62.5 92.5zM908 619q27 31 27 58q0 20 -14.5 35.5t-40.5 24.5q-12 3 -23 3q-51 0 -71 -51
q-17 -37 -108 -227q-64 -135 -92 -191q-49 -98 -105 -203q-30 -45 -30 -71t30 -36q9 -3 17 -3q26 0 46 39q7 13 19 45q81 162 158.5 292.5t186.5 284.5z" />
    <glyph glyph-name="questiondown" unicode="&#xbf;" horiz-adv-x="588" 
d="M681 423q0 35 -33 59t-84 24q-12 -2 -14.5 -24.5t-13.5 -31.5q-48 -34 -169 -76q-135 -47 -175 -69q-81 -45 -81 -107q-2 -12 -2 -18q0 -62 73 -141t129 -79q85 0 192 46.5t117 90.5q2 10 2 15q0 35 -45 30q-64 -31 -126 -50.5t-115 -19.5q-40 0 -40 27q0 9 9 20
q15 25 115 82q130 74 172 105q89 65 89 117zM746 611q0 33 -21 56q-24 26 -63 26q-50 0 -74 -25q-20 -21 -20 -52q0 -35 20 -57q26 -28 81 -28q37 0 57 20t20 60z" />
    <glyph glyph-name="Agrave" unicode="&#xc0;" horiz-adv-x="601" 
d="M432 529q-16 -57 -29 -133q-9 -54 -18 -129q-74 -14 -116.5 -24t-107.5 -32q47 62 84 108q54 67 90 108q42 47 97 102zM621 621q5 13 13 31.5t8 23.5q0 8 -12 11t-45 3q-28 19 -68 19q-25 0 -58 -9l-1 -7q-271 -313 -506 -641q-5 -8 -5 -15q0 -17 16.5 -31.5t31.5 -14.5
q8 0 13 6l83 122q73 24 143 43q54 15 144 35l-5 -138q-4 -7 -4 -14q0 -19 24 -32t59 -13q24 -3 60.5 10.5t34.5 23.5q0 184 13 308q17 162 61 279zM633 771q-4 -10 -25 -10q-9 0 -21.5 3t-24 9t-58.5 76t-54 89q3 6 21 11t38 5q24 0 38 -8q18 -8 40 -58q23 -59 46 -117z" />
    <glyph glyph-name="Aacute" unicode="&#xc1;" horiz-adv-x="601" 
d="M432 529q-16 -57 -29 -133q-9 -54 -18 -129q-74 -14 -116.5 -24t-107.5 -32q47 62 84 108q54 67 90 108q42 47 97 102zM621 621q5 13 13 31.5t8 23.5q0 8 -12 11t-45 3q-28 19 -68 19q-25 0 -58 -9l-1 -7q-271 -313 -506 -641q-5 -8 -5 -15q0 -17 16.5 -31.5t31.5 -14.5
q8 0 13 6l83 122q73 24 143 43q54 15 144 35l-5 -138q-4 -7 -4 -14q0 -19 24 -32t59 -13q24 -3 60.5 10.5t34.5 23.5q0 184 13 308q17 162 61 279zM771 929q-10 -19 -65 -83q-58 -69 -77 -76.5t-39 -7.5q-23 0 -26 11q34 68 63 114.5t46.5 53.5t36.5 7q24 0 41 -5.5
t20 -13.5z" />
    <glyph glyph-name="Acircumflex" unicode="&#xc2;" horiz-adv-x="601" 
d="M758 802q3 -6 3 -11q0 -10 -17 -25q-22 -13 -49 -13q-21 0 -26 12q-8 14 -26.5 34t-32.5 33q-62 -47 -115 -71q-17 -6 -28 -6t-20.5 4.5t-18.5 11.5q-5 3 -5 7q0 6 9 15q44 26 81 54q28 21 66 53q10 7 37 7q50 0 74 -11zM432 529q-16 -57 -29 -133q-9 -54 -18 -129
q-74 -14 -116.5 -24t-107.5 -32q47 62 84 108q54 67 90 108q42 47 97 102zM621 621q5 13 13 31.5t8 23.5q0 8 -12 11t-45 3q-28 19 -68 19q-25 0 -58 -9l-1 -7q-271 -313 -506 -641q-5 -8 -5 -15q0 -17 16.5 -31.5t31.5 -14.5q8 0 13 6l83 122q73 24 143 43q54 15 144 35
l-5 -138q-4 -7 -4 -14q0 -19 24 -32t59 -13q24 -3 60.5 10.5t34.5 23.5q0 184 13 308q17 162 61 279z" />
    <glyph glyph-name="Atilde" unicode="&#xc3;" horiz-adv-x="601" 
d="M432 529q-16 -57 -29 -133q-9 -54 -18 -129q-74 -14 -116.5 -24t-107.5 -32q47 62 84 108q54 67 90 108q42 47 97 102zM621 621q5 13 13 31.5t8 23.5q0 8 -12 11t-45 3q-28 19 -68 19q-25 0 -58 -9l-1 -7q-271 -313 -506 -641q-5 -8 -5 -15q0 -17 16.5 -31.5t31.5 -14.5
q8 0 13 6l83 122q73 24 143 43q54 15 144 35l-5 -138q-4 -7 -4 -14q0 -19 24 -32t59 -13q24 -3 60.5 10.5t34.5 23.5q0 184 13 308q17 162 61 279zM565 817q-11 0 -39 -19.5t-55 -38.5q-17 -6 -32.5 8.5t-15.5 31.5q-6 19 27 46q25 20 75 46q13 6 31 6q25 0 54.5 -19.5
t59.5 -38.5q22 4 43.5 15t43.5 29q14 0 26.5 -9.5t18.5 -29.5q4 -20 -13.5 -36.5t-85.5 -40.5q-14 -6 -28 -6q-25 0 -54 17q-28 19 -56 39z" />
    <glyph glyph-name="Adieresis" unicode="&#xc4;" horiz-adv-x="601" 
d="M432 529q-16 -57 -29 -133q-9 -54 -18 -129q-74 -14 -116.5 -24t-107.5 -32q47 62 84 108q54 67 90 108q42 47 97 102zM621 621q5 13 13 31.5t8 23.5q0 8 -12 11t-45 3q-28 19 -68 19q-25 0 -58 -9l-1 -7q-271 -313 -506 -641q-5 -8 -5 -15q0 -17 16.5 -31.5t31.5 -14.5
q8 0 13 6l83 122q73 24 143 43q54 15 144 35l-5 -138q-4 -7 -4 -14q0 -19 24 -32t59 -13q24 -3 60.5 10.5t34.5 23.5q0 184 13 308q17 162 61 279zM444 778q16 -8 29 -8q21 0 42 16t38 40.5t17 47.5q0 17 -10 32q-6 9 -16 18q-7 4 -16 6.5t-17 2.5q-18 0 -34.5 -10.5
t-36.5 -39.5q-10 -12 -15 -27.5t-5 -28.5q0 -35 24 -49zM652 777q16 -8 29 -8q22 0 43.5 16t38.5 40.5t17 46.5q0 18 -10 33q-6 8 -18 18q-7 4 -16 6.5t-16 2.5q-17 0 -34.5 -11t-37.5 -39.5t-20 -56.5q0 -34 24 -48z" />
    <glyph glyph-name="Aring" unicode="&#xc5;" horiz-adv-x="601" 
d="M432 529q-16 -57 -29 -133q-9 -54 -18 -129q-74 -14 -116.5 -24t-107.5 -32q47 62 84 108q54 67 90 108q42 47 97 102zM621 621q5 13 13 31.5t8 23.5q0 8 -12 11t-45 3q-28 19 -68 19q-25 0 -58 -9l-1 -7q-271 -313 -506 -641q-5 -8 -5 -15q0 -17 16.5 -31.5t31.5 -14.5
q8 0 13 6l83 122q73 24 143 43q54 15 144 35l-5 -138q-4 -7 -4 -14q0 -19 24 -32t59 -13q24 -3 60.5 10.5t34.5 23.5q0 184 13 308q17 162 61 279zM653 873q-3 -14 -12 -23.5t-25 -11.5q-16 0 -26 8t-8 22q2 15 13 25.5t27 10.5q15 2 23 -7t8 -24zM709 885q1 5 1 14
q0 35 -23.5 55.5t-63.5 20.5q-45 0 -79.5 -31.5t-39.5 -73.5q-1 -5 -1 -14q0 -34 26.5 -54t69.5 -20q41 0 73 31t37 72z" />
    <glyph glyph-name="AE" unicode="&#xc6;" horiz-adv-x="858" 
d="M529 607q-30 -105 -52 -173q-36 -111 -62 -166q-131 -24 -160 -31q-49 -11 -94 -26q37 49 109 128q56 62 137 145q56 58 122 123zM1033 663q0 29 -32 33t-109 6t-151 2h-88q-36 15 -84 15q-58 0 -110 -19l-1 -7q-271 -313 -506 -641q-5 -8 -5 -15q0 -17 16.5 -31.5
t31.5 -14.5q8 0 13 6l83 122q68 23 148 43q40 10 149 35q-3 -16 -15 -39t-23 -43q-12 -27 -12 -37q0 -11 18.5 -33t48.5 -38t54 -16q12 0 20 5q126 21 187 27.5t118 6.5q19 2 29.5 11.5t10.5 21.5q0 22 -28 22h-63t-61 1q-51 0 -83.5 -1.5t-70.5 -5.5q41 99 88 198
q105 27 223 27q9 0 14 8t3 18q-4 15 -27 22t-46 7q-32 0 -78.5 1.5t-47.5 1.5q36 75 68 132q42 75 79 125q53 8 101 11t109 3q14 0 21.5 8.5t7.5 21.5z" />
    <glyph glyph-name="Ccedilla" unicode="&#xc7;" horiz-adv-x="623" 
d="M254 -2q-74 7 -120 30.5t-61 58.5q-7 15 -10 32.5t-3 32.5q0 21 3 38.5t12 47.5q44 152 138 286q102 145 212 193q7 4 30 4q31 0 74 -8.5t70 -22.5q59 -12 89 -38q27 -23 30 -58q0 -63 -18.5 -112t-62.5 -95q-34 -32 -83 -32q-36 0 -59.5 18t-23.5 53q10 7 43 54
q39 56 39 80q0 15 -13 15t-38 -15q-13 -9 -26 -17q-153 -143 -215 -283q-15 -31 -26 -62q-17 -48 -17 -76q0 -19 8.5 -31.5t30 -21t46.5 -8.5q57 0 136 37q68 32 102 63q14 11 27 11q18 0 18 -17q0 -12 -14 -26q-62 -58 -121 -92q-72 -41 -134 -41q-39 -29 -42 -47
q-6 -25 41.5 -28t47.5 -30q0 -6 -1 -10q-5 -34 -41 -63q-46 -37 -118 -37q-31 0 -49 15.5t-18 38.5q0 19 11 34q12 -26 52 -26q21 0 39.5 9t25.5 26q5 14 -16.5 18t-48.5 8q-5 7 -5 15q0 17 15 39.5t37 35.5z" />
    <glyph glyph-name="Egrave" unicode="&#xc8;" horiz-adv-x="539" 
d="M723 663q0 29 -32 33t-103 6t-140 2h-85q-19 8 -36 8t-29.5 -7.5t-23.5 -26.5l-74 -188q-44 -112 -76 -187q-41 -97 -84 -188q-12 -27 -12 -37q0 -11 18.5 -33t48.5 -38t54 -16q12 0 20 5q126 21 187 27.5t118 6.5q19 2 29.5 11.5t10.5 21.5q0 22 -28 22h-63t-61 1
q-51 0 -83.5 -1.5t-70.5 -5.5q41 99 88 198q105 27 223 27q9 0 14 8t3 18q-4 15 -27 22t-46 7q-32 0 -78.5 1.5t-47.5 1.5q36 75 68 132q42 75 79 125q53 8 101 11t109 3q14 0 21.5 8.5t7.5 21.5zM542 778q-4 -10 -25 -10q-9 0 -21.5 3t-24 9t-58.5 76t-54 89q3 6 21 11
t38 5q24 0 38 -8q18 -8 40 -58q23 -59 46 -117z" />
    <glyph glyph-name="Eacute" unicode="&#xc9;" horiz-adv-x="539" 
d="M723 663q0 29 -32 33t-103 6t-140 2h-85q-19 8 -36 8t-29.5 -7.5t-23.5 -26.5l-74 -188q-44 -112 -76 -187q-41 -97 -84 -188q-12 -27 -12 -37q0 -11 18.5 -33t48.5 -38t54 -16q12 0 20 5q126 21 187 27.5t118 6.5q19 2 29.5 11.5t10.5 21.5q0 22 -28 22h-63t-61 1
q-51 0 -83.5 -1.5t-70.5 -5.5q41 99 88 198q105 27 223 27q9 0 14 8t3 18q-4 15 -27 22t-46 7q-32 0 -78.5 1.5t-47.5 1.5q36 75 68 132q42 75 79 125q53 8 101 11t109 3q14 0 21.5 8.5t7.5 21.5zM674 939q-10 -19 -65 -83q-58 -69 -77 -76.5t-39 -7.5q-23 0 -26 11
q34 68 63 114.5t46.5 53.5t36.5 7q24 0 41 -5.5t20 -13.5z" />
    <glyph glyph-name="Ecircumflex" unicode="&#xca;" horiz-adv-x="539" 
d="M723 663q0 29 -32 33t-103 6t-140 2h-85q-19 8 -36 8t-29.5 -7.5t-23.5 -26.5l-74 -188q-44 -112 -76 -187q-41 -97 -84 -188q-12 -27 -12 -37q0 -11 18.5 -33t48.5 -38t54 -16q12 0 20 5q126 21 187 27.5t118 6.5q19 2 29.5 11.5t10.5 21.5q0 22 -28 22h-63t-61 1
q-51 0 -83.5 -1.5t-70.5 -5.5q41 99 88 198q105 27 223 27q9 0 14 8t3 18q-4 15 -27 22t-46 7q-32 0 -78.5 1.5t-47.5 1.5q36 75 68 132q42 75 79 125q53 8 101 11t109 3q14 0 21.5 8.5t7.5 21.5zM699 820q3 -6 3 -11q0 -10 -17 -25q-22 -13 -49 -13q-21 0 -26 12
q-8 14 -26.5 34t-32.5 33q-62 -47 -115 -71q-17 -6 -28 -6t-20.5 4.5t-18.5 11.5q-5 3 -5 7q0 6 9 15q44 26 81 54q28 21 66 53q10 7 37 7q50 0 74 -11z" />
    <glyph glyph-name="Edieresis" unicode="&#xcb;" horiz-adv-x="539" 
d="M723 663q0 29 -32 33t-103 6t-140 2h-85q-19 8 -36 8t-29.5 -7.5t-23.5 -26.5l-74 -188q-44 -112 -76 -187q-41 -97 -84 -188q-12 -27 -12 -37q0 -11 18.5 -33t48.5 -38t54 -16q12 0 20 5q126 21 187 27.5t118 6.5q19 2 29.5 11.5t10.5 21.5q0 22 -28 22h-63t-61 1
q-51 0 -83.5 -1.5t-70.5 -5.5q41 99 88 198q105 27 223 27q9 0 14 8t3 18q-4 15 -27 22t-46 7q-32 0 -78.5 1.5t-47.5 1.5q36 75 68 132q42 75 79 125q53 8 101 11t109 3q14 0 21.5 8.5t7.5 21.5zM413 782q16 -8 29 -8q21 0 42 16t38 40.5t17 47.5q0 17 -10 32q-6 9 -16 18
q-7 4 -16 6.5t-17 2.5q-18 0 -34.5 -10.5t-36.5 -39.5q-10 -12 -15 -27.5t-5 -28.5q0 -35 24 -49zM621 781q16 -8 29 -8q22 0 43.5 16t38.5 40.5t17 46.5q0 18 -10 33q-6 8 -18 18q-7 4 -16 6.5t-16 2.5q-17 0 -34.5 -11t-37.5 -39.5t-20 -56.5q0 -34 24 -48z" />
    <glyph glyph-name="Igrave" unicode="&#xcc;" horiz-adv-x="456" 
d="M645 652q32 12 32 33q0 27 -44 27q-39 0 -75.5 -2t-76.5 -9l-10 9q-9 8 -23 8q-17 0 -28 -14l-8 -15q-79 -15 -170 -45q-23 -9 -23 -29t27 -20q26 0 42 1q65 4 72 4q-66 -113 -93 -161q-53 -94 -83 -159q-38 -82 -56 -148v-23.5t4 -27.5q-72 -13 -131 -33
q-34 -12 -34 -35q0 -20 34 -20q78 0 157 5t154 14q31 4 50 19t19 33q0 17 -17 28t-51 11l-36 -3q38 67 90 168.5t90 180.5l86 178q26 5 55 12q13 3 47 13zM504 789q-4 -10 -25 -10q-9 0 -21.5 3t-24 9t-58.5 76t-54 89q3 6 21 11t38 5q24 0 38 -8q18 -8 40 -58
q23 -59 46 -117z" />
    <glyph glyph-name="Iacute" unicode="&#xcd;" horiz-adv-x="456" 
d="M645 652q32 12 32 33q0 27 -44 27q-39 0 -75.5 -2t-76.5 -9l-10 9q-9 8 -23 8q-17 0 -28 -14l-8 -15q-79 -15 -170 -45q-23 -9 -23 -29t27 -20q26 0 42 1q65 4 72 4q-66 -113 -93 -161q-53 -94 -83 -159q-38 -82 -56 -148v-23.5t4 -27.5q-72 -13 -131 -33
q-34 -12 -34 -35q0 -20 34 -20q78 0 157 5t154 14q31 4 50 19t19 33q0 17 -17 28t-51 11l-36 -3q38 67 90 168.5t90 180.5l86 178q26 5 55 12q13 3 47 13zM678 939q-10 -19 -65 -83q-58 -69 -77 -76.5t-39 -7.5q-23 0 -26 11q34 68 63 114.5t46.5 53.5t36.5 7q24 0 41 -5.5
t20 -13.5z" />
    <glyph glyph-name="Icircumflex" unicode="&#xce;" horiz-adv-x="456" 
d="M645 652q32 12 32 33q0 27 -44 27q-39 0 -75.5 -2t-76.5 -9l-10 9q-9 8 -23 8q-17 0 -28 -14l-8 -15q-79 -15 -170 -45q-23 -9 -23 -29t27 -20q26 0 42 1q65 4 72 4q-66 -113 -93 -161q-53 -94 -83 -159q-38 -82 -56 -148v-23.5t4 -27.5q-72 -13 -131 -33
q-34 -12 -34 -35q0 -20 34 -20q78 0 157 5t154 14q31 4 50 19t19 33q0 17 -17 28t-51 11l-36 -3q38 67 90 168.5t90 180.5l86 178q26 5 55 12q13 3 47 13zM674 816q3 -6 3 -11q0 -10 -17 -25q-22 -13 -49 -13q-21 0 -26 12q-8 14 -26.5 34t-32.5 33q-62 -47 -115 -71
q-17 -6 -28 -6t-20.5 4.5t-18.5 11.5q-5 3 -5 7q0 6 9 15q44 26 81 54q28 21 66 53q10 7 37 7q50 0 74 -11z" />
    <glyph glyph-name="Idieresis" unicode="&#xcf;" horiz-adv-x="456" 
d="M645 652q32 12 32 33q0 27 -44 27q-39 0 -75.5 -2t-76.5 -9l-10 9q-9 8 -23 8q-17 0 -28 -14l-8 -15q-79 -15 -170 -45q-23 -9 -23 -29t27 -20q26 0 42 1q65 4 72 4q-66 -113 -93 -161q-53 -94 -83 -159q-38 -82 -56 -148v-23.5t4 -27.5q-72 -13 -131 -33
q-34 -12 -34 -35q0 -20 34 -20q78 0 157 5t154 14q31 4 50 19t19 33q0 17 -17 28t-51 11l-36 -3q38 67 90 168.5t90 180.5l86 178q26 5 55 12q13 3 47 13zM383 782q16 -8 29 -8q21 0 42 16t38 40.5t17 47.5q0 17 -10 32q-6 9 -16 18q-7 4 -16 6.5t-17 2.5q-18 0 -34.5 -10.5
t-36.5 -39.5q-10 -12 -15 -27.5t-5 -28.5q0 -35 24 -49zM591 781q16 -8 29 -8q22 0 43.5 16t38.5 40.5t17 46.5q0 18 -10 33q-6 8 -18 18q-7 4 -16 6.5t-16 2.5q-17 0 -34.5 -11t-37.5 -39.5t-20 -56.5q0 -34 24 -48z" />
    <glyph glyph-name="Eth" unicode="&#xd0;" 
d="M386 3q-146 0 -249.5 103.5t-103.5 250.5q0 146 103 250t250 104q146 0 250 -104t104 -250t-104 -250t-250 -104zM386 51q127 0 216 90t89 216t-88.5 215.5t-216.5 89.5q-126 0 -216 -89t-90 -216q0 -126 90 -216t216 -90zM386 72q-118 0 -201.5 83.5t-83.5 201.5
q0 116 84 199t201 83t200.5 -82.5t83.5 -199.5q0 -118 -83.5 -201.5t-200.5 -83.5zM386 116q53 0 99 36q35 27 61 71q-78 -21 -157 -21q-80 0 -163 21q26 -43 60 -70q47 -37 100 -37zM216 238q43 -10 84 -15t86 -5q83 0 171 20l54 86h-450zM349 357h76l-38 91zM294 427
q4 -4 19 3.5t14 10.5q-25 56 -49 112q-6 7 -34 -11q-12 -12 -24 -23zM480 427l72 92q4 5 -23.5 23t-33.5 11q-15 -19 -26 -51t-21 -61q3 -4 6 -7q20 -13 26 -7zM645 12v38h-15v11h41v-11h-15v-38h-11zM676 12v49h15l9 -38l9 38h14v-49h-9v38l-10 -38h-9l-10 38v-38h-9z" />
    <glyph glyph-name="Ntilde" unicode="&#xd1;" horiz-adv-x="624" 
d="M790 672q-90 -174 -144.5 -296.5t-123.5 -304.5l-16 -46q-16 -32 -73 -32q-65 0 -97.5 14.5t-37.5 43.5q0 146 1.5 212t10.5 171q-47 -101 -60 -130q-31 -68 -58 -134q-31 -75 -52 -136q-6 -21 -14.5 -27.5t-31.5 -10.5q-36 9 -47 21t-9 37q38 135 100 293
q53 136 125 294q0 45 33 62q25 13 83 13q73 0 106 -5q58 -9 63 -35q0 -15 -4.5 -25t-14.5 -21q-22 -92 -38 -253q-10 -103 -15 -151q50 126 103 241q45 97 116 235q10 19 43 19q23 0 38.5 -10t15.5 -28q0 -3 -2 -11zM545 827q-11 0 -39 -19.5t-55 -38.5q-17 -6 -32.5 8.5
t-15.5 31.5q-6 19 27 46q25 20 75 46q13 6 31 6q25 0 54.5 -19.5t59.5 -38.5q22 4 43.5 15t43.5 29q14 0 26.5 -9.5t18.5 -29.5q4 -20 -13.5 -36.5t-85.5 -40.5q-14 -6 -28 -6q-25 0 -54 17q-28 19 -56 39z" />
    <glyph glyph-name="Ograve" unicode="&#xd2;" horiz-adv-x="716" 
d="M658 580q0 -69 -63 -208q-67 -148 -143 -231q-64 -70 -119 -70q-9 0 -13 1q-23 5 -34.5 27.5t-11.5 52.5v15.5t4 21.5q31 125 104 235q70 105 161 176q40 32 74 32q18 0 29.5 -13t11.5 -39zM792 562q1 10 1 15q0 61 -51 95.5t-125 34.5q-24 0 -41 -2t-40 -9
q-12 12 -26.5 18.5t-30.5 6.5q-39 0 -97 -34q-40 -23 -76 -55q-89 -76 -152 -203.5t-63 -229.5q0 -27 6 -51q8 -72 82 -115q64 -37 144 -37q105 0 219 100q103 90 176.5 226.5t73.5 239.5zM657 781q-4 -10 -25 -10q-9 0 -21.5 3t-24 9t-58.5 76t-54 89q3 6 21 11t38 5
q24 0 38 -8q18 -8 40 -58q23 -59 46 -117z" />
    <glyph glyph-name="Oacute" unicode="&#xd3;" horiz-adv-x="716" 
d="M658 580q0 -69 -63 -208q-67 -148 -143 -231q-64 -70 -119 -70q-9 0 -13 1q-23 5 -34.5 27.5t-11.5 52.5v15.5t4 21.5q31 125 104 235q70 105 161 176q40 32 74 32q18 0 29.5 -13t11.5 -39zM792 562q1 10 1 15q0 61 -51 95.5t-125 34.5q-24 0 -41 -2t-40 -9
q-12 12 -26.5 18.5t-30.5 6.5q-39 0 -97 -34q-40 -23 -76 -55q-89 -76 -152 -203.5t-63 -229.5q0 -27 6 -51q8 -72 82 -115q64 -37 144 -37q105 0 219 100q103 90 176.5 226.5t73.5 239.5zM752 939q-10 -19 -65 -83q-58 -69 -77 -76.5t-39 -7.5q-23 0 -26 11q34 68 63 114.5
t46.5 53.5t36.5 7q24 0 41 -5.5t20 -13.5z" />
    <glyph glyph-name="Ocircumflex" unicode="&#xd4;" horiz-adv-x="716" 
d="M658 580q0 -69 -63 -208q-67 -148 -143 -231q-64 -70 -119 -70q-9 0 -13 1q-23 5 -34.5 27.5t-11.5 52.5v15.5t4 21.5q31 125 104 235q70 105 161 176q40 32 74 32q18 0 29.5 -13t11.5 -39zM792 562q1 10 1 15q0 61 -51 95.5t-125 34.5q-24 0 -41 -2t-40 -9
q-12 12 -26.5 18.5t-30.5 6.5q-39 0 -97 -34q-40 -23 -76 -55q-89 -76 -152 -203.5t-63 -229.5q0 -27 6 -51q8 -72 82 -115q64 -37 144 -37q105 0 219 100q103 90 176.5 226.5t73.5 239.5zM779 816q3 -6 3 -11q0 -10 -17 -25q-22 -13 -49 -13q-21 0 -26 12q-8 14 -26.5 34
t-32.5 33q-62 -47 -115 -71q-17 -6 -28 -6t-20.5 4.5t-18.5 11.5q-5 3 -5 7q0 6 9 15q44 26 81 54q28 21 66 53q10 7 37 7q50 0 74 -11z" />
    <glyph glyph-name="Otilde" unicode="&#xd5;" horiz-adv-x="716" 
d="M658 580q0 -69 -63 -208q-67 -148 -143 -231q-64 -70 -119 -70q-9 0 -13 1q-23 5 -34.5 27.5t-11.5 52.5v15.5t4 21.5q31 125 104 235q70 105 161 176q40 32 74 32q18 0 29.5 -13t11.5 -39zM792 562q1 10 1 15q0 61 -51 95.5t-125 34.5q-24 0 -41 -2t-40 -9
q-12 12 -26.5 18.5t-30.5 6.5q-39 0 -97 -34q-40 -23 -76 -55q-89 -76 -152 -203.5t-63 -229.5q0 -27 6 -51q8 -72 82 -115q64 -37 144 -37q105 0 219 100q103 90 176.5 226.5t73.5 239.5zM565 827q-11 0 -39 -19.5t-55 -38.5q-17 -6 -32.5 8.5t-15.5 31.5q-6 19 27 46
q25 20 75 46q13 6 31 6q25 0 54.5 -19.5t59.5 -38.5q22 4 43.5 15t43.5 29q14 0 26.5 -9.5t18.5 -29.5q4 -20 -13.5 -36.5t-85.5 -40.5q-14 -6 -28 -6q-25 0 -54 17q-28 19 -56 39z" />
    <glyph glyph-name="Odieresis" unicode="&#xd6;" horiz-adv-x="716" 
d="M658 580q0 -69 -63 -208q-67 -148 -143 -231q-64 -70 -119 -70q-9 0 -13 1q-23 5 -34.5 27.5t-11.5 52.5v15.5t4 21.5q31 125 104 235q70 105 161 176q40 32 74 32q18 0 29.5 -13t11.5 -39zM792 562q1 10 1 15q0 61 -51 95.5t-125 34.5q-24 0 -41 -2t-40 -9
q-12 12 -26.5 18.5t-30.5 6.5q-39 0 -97 -34q-40 -23 -76 -55q-89 -76 -152 -203.5t-63 -229.5q0 -27 6 -51q8 -72 82 -115q64 -37 144 -37q105 0 219 100q103 90 176.5 226.5t73.5 239.5zM487 782q16 -8 29 -8q21 0 42 16t38 40.5t17 47.5q0 17 -10 32q-6 9 -16 18
q-7 4 -16 6.5t-17 2.5q-18 0 -34.5 -10.5t-36.5 -39.5q-10 -12 -15 -27.5t-5 -28.5q0 -35 24 -49zM695 781q16 -8 29 -8q22 0 43.5 16t38.5 40.5t17 46.5q0 18 -10 33q-6 8 -18 18q-7 4 -16 6.5t-16 2.5q-17 0 -34.5 -11t-37.5 -39.5t-20 -56.5q0 -34 24 -48z" />
    <glyph glyph-name="multiply" unicode="&#xd7;" 
d="M386 3q-146 0 -249.5 103.5t-103.5 250.5q0 146 103 250t250 104q146 0 250 -104t104 -250t-104 -250t-250 -104zM386 51q127 0 216 90t89 216t-88.5 215.5t-216.5 89.5q-126 0 -216 -89t-90 -216q0 -126 90 -216t216 -90zM386 72q-118 0 -201.5 83.5t-83.5 201.5
q0 116 84 199t201 83t200.5 -82.5t83.5 -199.5q0 -118 -83.5 -201.5t-200.5 -83.5zM386 116q53 0 99 36q35 27 61 71q-78 -21 -157 -21q-80 0 -163 21q26 -43 60 -70q47 -37 100 -37zM216 238q43 -10 84 -15t86 -5q83 0 171 20l54 86h-450zM349 357h76l-38 91zM294 427
q4 -4 19 3.5t14 10.5q-25 56 -49 112q-6 7 -34 -11q-12 -12 -24 -23zM480 427l72 92q4 5 -23.5 23t-33.5 11q-15 -19 -26 -51t-21 -61q3 -4 6 -7q20 -13 26 -7zM645 12v38h-15v11h41v-11h-15v-38h-11zM676 12v49h15l9 -38l9 38h14v-49h-9v38l-10 -38h-9l-10 38v-38h-9z" />
    <glyph glyph-name="Oslash" unicode="&#xd8;" horiz-adv-x="1005" 
d="M658 580q0 -69 -63 -208q-67 -148 -143 -231q-64 -70 -119 -70q-9 0 -13 1q-23 5 -34.5 27.5t-11.5 52.5v15.5t4 21.5q31 125 104 235q70 105 161 176q40 32 74 32q18 0 29.5 -13t11.5 -39zM1173 663q0 29 -28.5 32.5t-90.5 5.5t-112 2h-129q-33 15 -102 15
q-51 0 -94.5 -7.5t-80.5 -24.5q-8 16 -22.5 25.5t-34.5 9.5q-39 0 -97 -34q-40 -23 -76 -55q-89 -76 -152 -203.5t-63 -229.5q0 -27 6 -51q8 -72 82 -115q64 -37 144 -37q79 0 166 58q11 -19 48.5 -40.5t64.5 -21.5q12 0 17 4q126 21 187 27.5t118 6.5q19 2 29.5 11.5
t10.5 21.5q0 22 -28 22h-63t-61 1q-51 0 -83.5 -1.5t-70.5 -5.5q41 99 88 198q105 27 223 27q9 0 14 8t3 18q-4 15 -27 22t-46 7q-32 0 -78.5 1.5t-47.5 1.5q36 75 68 132q42 75 79 125q53 8 101 11t109 3q14 0 21.5 8.5t7.5 21.5z" />
    <glyph glyph-name="Ugrave" unicode="&#xd9;" horiz-adv-x="629" 
d="M756 611q-29 -117 -89 -245q-74 -160 -159 -256q-105 -119 -209 -119q-90 0 -159 52.5t-69 113.5q0 9 1 13q10 76 50 164q15 34 84 159q55 100 80 161q6 27 10 41q9 26 35 26q16 0 36 -7q56 -20 64 -21q60 -10 60 -38q0 -22 -35 -75q-30 -54 -60 -107q-56 -100 -93 -185
q-49 -111 -49 -165q0 -25 10.5 -39.5t34.5 -14.5q80 0 184 174q92 154 157 359q7 18 11 71t27 58q4 1 14 1q12 0 27 -3t24 -8q19 -8 26.5 -17.5t7.5 -22.5q0 -12 -7 -31q-13 -36 -14 -39zM605 778q-4 -10 -25 -10q-9 0 -21.5 3t-24 9t-58.5 76t-54 89q3 6 21 11t38 5
q24 0 38 -8q18 -8 40 -58q23 -59 46 -117z" />
    <glyph glyph-name="Uacute" unicode="&#xda;" horiz-adv-x="629" 
d="M756 611q-29 -117 -89 -245q-74 -160 -159 -256q-105 -119 -209 -119q-90 0 -159 52.5t-69 113.5q0 9 1 13q10 76 50 164q15 34 84 159q55 100 80 161q6 27 10 41q9 26 35 26q16 0 36 -7q56 -20 64 -21q60 -10 60 -38q0 -22 -35 -75q-30 -54 -60 -107q-56 -100 -93 -185
q-49 -111 -49 -165q0 -25 10.5 -39.5t34.5 -14.5q80 0 184 174q92 154 157 359q7 18 11 71t27 58q4 1 14 1q12 0 27 -3t24 -8q19 -8 26.5 -17.5t7.5 -22.5q0 -12 -7 -31q-13 -36 -14 -39zM740 931q-10 -19 -65 -83q-58 -69 -77 -76.5t-39 -7.5q-23 0 -26 11q34 68 63 114.5
t46.5 53.5t36.5 7q24 0 41 -5.5t20 -13.5z" />
    <glyph glyph-name="Ucircumflex" unicode="&#xdb;" horiz-adv-x="629" 
d="M756 611q-29 -117 -89 -245q-74 -160 -159 -256q-105 -119 -209 -119q-90 0 -159 52.5t-69 113.5q0 9 1 13q10 76 50 164q15 34 84 159q55 100 80 161q6 27 10 41q9 26 35 26q16 0 36 -7q56 -20 64 -21q60 -10 60 -38q0 -22 -35 -75q-30 -54 -60 -107q-56 -100 -93 -185
q-49 -111 -49 -165q0 -25 10.5 -39.5t34.5 -14.5q80 0 184 174q92 154 157 359q7 18 11 71t27 58q4 1 14 1q12 0 27 -3t24 -8q19 -8 26.5 -17.5t7.5 -22.5q0 -12 -7 -31q-13 -36 -14 -39zM737 816q3 -6 3 -11q0 -10 -17 -25q-22 -13 -49 -13q-21 0 -26 12q-8 14 -26.5 34
t-32.5 33q-62 -47 -115 -71q-17 -6 -28 -6t-20.5 4.5t-18.5 11.5q-5 3 -5 7q0 6 9 15q44 26 81 54q28 21 66 53q10 7 37 7q50 0 74 -11z" />
    <glyph glyph-name="Udieresis" unicode="&#xdc;" horiz-adv-x="629" 
d="M756 611q-29 -117 -89 -245q-74 -160 -159 -256q-105 -119 -209 -119q-90 0 -159 52.5t-69 113.5q0 9 1 13q10 76 50 164q15 34 84 159q55 100 80 161q6 27 10 41q9 26 35 26q16 0 36 -7q56 -20 64 -21q60 -10 60 -38q0 -22 -35 -75q-30 -54 -60 -107q-56 -100 -93 -185
q-49 -111 -49 -165q0 -25 10.5 -39.5t34.5 -14.5q80 0 184 174q92 154 157 359q7 18 11 71t27 58q4 1 14 1q12 0 27 -3t24 -8q19 -8 26.5 -17.5t7.5 -22.5q0 -12 -7 -31q-13 -36 -14 -39zM437 786q16 -8 29 -8q21 0 42 16t38 40.5t17 47.5q0 17 -10 32q-6 9 -16 18
q-7 4 -16 6.5t-17 2.5q-18 0 -34.5 -10.5t-36.5 -39.5q-10 -12 -15 -27.5t-5 -28.5q0 -35 24 -49zM645 785q16 -8 29 -8q22 0 43.5 16t38.5 40.5t17 46.5q0 18 -10 33q-6 8 -18 18q-7 4 -16 6.5t-16 2.5q-17 0 -34.5 -11t-37.5 -39.5t-20 -56.5q0 -34 24 -48z" />
    <glyph glyph-name="Yacute" unicode="&#xdd;" horiz-adv-x="598" 
d="M796 650q-110 -111 -183 -192q-83 -92 -172 -206q-20 -41 -46 -110q-22 -60 -38 -112q0 -26 -11.5 -37.5t-40.5 -11.5h-11q-9 2 -13 2q-40 0 -69.5 16t-29.5 35q1 14 29 89t53 130q-12 71 -16 142t-4 176v47q-2 6 -15 16q-6 5 -7 11q0 27 33.5 44t90.5 22q52 0 93 -10
t41 -28q0 -14 -13 -39q-6 -11 -6 -17q-19 -110 -19 -223q43 49 90 100q35 38 92 96q40 41 99 100q13 13 29 20t30 7q32 0 32 -26q0 -17 -18 -41zM778 919q-10 -19 -65 -83q-58 -69 -77 -76.5t-39 -7.5q-23 0 -26 11q34 68 63 114.5t46.5 53.5t36.5 7q24 0 41 -5.5t20 -13.5z
" />
    <glyph glyph-name="Thorn" unicode="&#xde;" horiz-adv-x="459" 
d="M280 109q5 -10 5 -19q0 -19 -15.5 -32.5t-40.5 -13.5q-7 0 -23 2t-41 19.5t-43 40.5q27 31 52 70q20 32 43 75q9 -35 24 -69.5t39 -72.5zM466 448q-23 0 -47 14q-57 33 -88 33q-64 0 -98.5 -37.5t-34.5 -101.5v-15q2 -12 2 -17q-72 -161 -169 -227q-70 -47 -157 -47
q13 -19 34.5 -31t56.5 -12q28 0 57 14.5t60 42.5q43 -35 81 -52t85 -17q89 0 145 35t56 94q0 32 -27 77t-27 101q0 45 34 96q13 20 37 50zM249 660q-3 6 -3 11q0 10 17 25q22 13 49 13q21 0 26 -12q8 -14 26.5 -34t32.5 -33q62 47 115 71q17 6 28 6t20.5 -4.5t18.5 -11.5
q5 -3 5 -7q0 -6 -9 -15q-44 -26 -81 -54q-28 -21 -66 -53q-10 -7 -37 -7q-50 0 -74 11z" />
    <glyph glyph-name="germandbls" unicode="&#xdf;" horiz-adv-x="589" 
d="M717 578q-8 -58 -67 -117q-63 -64 -126 -64q-31 0 -45 9q-19 12 -19 41q31 34 50.5 64t28.5 63q0 2 -4 5t-14 3q-8 0 -16 -3q-64 -42 -103 -84q-46 -49 -46 -84q0 -4 2 -12q7 -22 55 -68q71 -67 84 -82q44 -51 44 -91q0 -56 -103 -111q-97 -52 -175 -52q-74 0 -141 41
q-29 17 -94 75q-13 14 -13 30q0 11 8 18t19 7q6 0 16 -4q55 -43 87 -58q44 -21 100 -21q42 0 77.5 20t35.5 43q0 9 -54 58q-75 68 -100 95q-54 59 -54 94q0 100 122.5 218.5t214.5 118.5q64 0 148 -48t84 -92q0 -4 -2 -12zM409 892q-3 6 -3 11q0 10 17 25q22 13 49 13
q21 0 26 -12q8 -14 26.5 -34t32.5 -33q62 47 115 71q17 6 28 6t20.5 -4.5t18.5 -11.5q5 -3 5 -7q0 -6 -9 -15q-44 -26 -81 -54q-28 -21 -66 -53q-10 -7 -37 -7q-50 0 -74 11z" />
    <glyph glyph-name="agrave" unicode="&#xe0;" horiz-adv-x="579" 
d="M408 339q-29 -68 -73 -142q-53 -89 -98 -129q-20 -18 -33 -18q-14 0 -14 21q0 11 4 24q52 191 164 284q35 29 52 29q13 0 13 -16q0 -20 -15 -53zM750 220q-56 -69 -91 -99q-67 -57 -130 -57q-41 0 -41 38q0 8 3 19q25 85 70 163t95 125q-33 37 -83 37q-43 0 -76 -30
q-16 31 -46.5 46.5t-59.5 15.5q-123 0 -231.5 -130.5t-108.5 -275.5q0 -45 27.5 -64.5t82.5 -19.5q38 0 84 26t91 77q0 -36 36 -59.5t98 -23.5q101 0 175 57q30 23 83 89q7 9 14 34q3 11 8 32zM464 555q-4 -10 -25 -10q-9 0 -21.5 3t-24 9t-58.5 76t-54 89q3 6 21 11t38 5
q24 0 38 -8q18 -8 40 -58q23 -59 46 -117z" />
    <glyph glyph-name="aacute" unicode="&#xe1;" horiz-adv-x="579" 
d="M655 706q-10 -19 -65 -83q-58 -69 -77 -76.5t-39 -7.5q-23 0 -26 11q34 68 63 114.5t46.5 53.5t36.5 7q24 0 41 -5.5t20 -13.5zM408 339q-29 -68 -73 -142q-53 -89 -98 -129q-20 -18 -33 -18q-14 0 -14 21q0 11 4 24q52 191 164 284q35 29 52 29q13 0 13 -16
q0 -20 -15 -53zM750 220q-56 -69 -91 -99q-67 -57 -130 -57q-41 0 -41 38q0 8 3 19q25 85 70 163t95 125q-33 37 -83 37q-43 0 -76 -30q-16 31 -46.5 46.5t-59.5 15.5q-123 0 -231.5 -130.5t-108.5 -275.5q0 -45 27.5 -64.5t82.5 -19.5q38 0 84 26t91 77q0 -36 36 -59.5
t98 -23.5q101 0 175 57q30 23 83 89q7 9 14 34q3 11 8 32z" />
    <glyph glyph-name="acircumflex" unicode="&#xe2;" horiz-adv-x="579" 
d="M408 339q-29 -68 -73 -142q-53 -89 -98 -129q-20 -18 -33 -18q-14 0 -14 21q0 11 4 24q52 191 164 284q35 29 52 29q13 0 13 -16q0 -20 -15 -53zM750 220q-56 -69 -91 -99q-67 -57 -130 -57q-41 0 -41 38q0 8 3 19q25 85 70 163t95 125q-33 37 -83 37q-43 0 -76 -30
q-16 31 -46.5 46.5t-59.5 15.5q-123 0 -231.5 -130.5t-108.5 -275.5q0 -45 27.5 -64.5t82.5 -19.5q38 0 84 26t91 77q0 -36 36 -59.5t98 -23.5q101 0 175 57q30 23 83 89q7 9 14 34q3 11 8 32zM673 583q3 -6 3 -11q0 -10 -17 -25q-22 -13 -49 -13q-21 0 -26 12
q-8 14 -26.5 34t-32.5 33q-62 -47 -115 -71q-17 -6 -28 -6t-20.5 4.5t-18.5 11.5q-5 3 -5 7q0 6 9 15q44 26 81 54q28 21 66 53q10 7 37 7q50 0 74 -11z" />
    <glyph glyph-name="atilde" unicode="&#xe3;" horiz-adv-x="579" 
d="M408 339q-29 -68 -73 -142q-53 -89 -98 -129q-20 -18 -33 -18q-14 0 -14 21q0 11 4 24q52 191 164 284q35 29 52 29q13 0 13 -16q0 -20 -15 -53zM750 220q-56 -69 -91 -99q-67 -57 -130 -57q-41 0 -41 38q0 8 3 19q25 85 70 163t95 125q-33 37 -83 37q-43 0 -76 -30
q-16 31 -46.5 46.5t-59.5 15.5q-123 0 -231.5 -130.5t-108.5 -275.5q0 -45 27.5 -64.5t82.5 -19.5q38 0 84 26t91 77q0 -36 36 -59.5t98 -23.5q101 0 175 57q30 23 83 89q7 9 14 34q3 11 8 32zM476 595q-11 0 -39 -19.5t-55 -38.5q-17 -6 -32.5 8.5t-15.5 31.5q-6 19 27 46
q25 20 75 46q13 6 31 6q25 0 54.5 -19.5t59.5 -38.5q22 4 43.5 15t43.5 29q14 0 26.5 -9.5t18.5 -29.5q4 -20 -13.5 -36.5t-85.5 -40.5q-14 -6 -28 -6q-25 0 -54 17q-28 19 -56 39z" />
    <glyph glyph-name="adieresis" unicode="&#xe4;" horiz-adv-x="579" 
d="M408 339q-29 -68 -73 -142q-53 -89 -98 -129q-20 -18 -33 -18q-14 0 -14 21q0 11 4 24q52 191 164 284q35 29 52 29q13 0 13 -16q0 -20 -15 -53zM750 220q-56 -69 -91 -99q-67 -57 -130 -57q-41 0 -41 38q0 8 3 19q25 85 70 163t95 125q-33 37 -83 37q-43 0 -76 -30
q-16 31 -46.5 46.5t-59.5 15.5q-123 0 -231.5 -130.5t-108.5 -275.5q0 -45 27.5 -64.5t82.5 -19.5q38 0 84 26t91 77q0 -36 36 -59.5t98 -23.5q101 0 175 57q30 23 83 89q7 9 14 34q3 11 8 32zM355 556q16 -8 29 -8q21 0 42 16t38 40.5t17 47.5q0 17 -10 32q-6 9 -16 18
q-7 4 -16 6.5t-17 2.5q-18 0 -34.5 -10.5t-36.5 -39.5q-10 -12 -15 -27.5t-5 -28.5q0 -35 24 -49zM563 555q16 -8 29 -8q22 0 43.5 16t38.5 40.5t17 46.5q0 18 -10 33q-6 8 -18 18q-7 4 -16 6.5t-16 2.5q-17 0 -34.5 -11t-37.5 -39.5t-20 -56.5q0 -34 24 -48z" />
    <glyph glyph-name="aring" unicode="&#xe5;" horiz-adv-x="579" 
d="M408 339q-29 -68 -73 -142q-53 -89 -98 -129q-20 -18 -33 -18q-14 0 -14 21q0 11 4 24q52 191 164 284q35 29 52 29q13 0 13 -16q0 -20 -15 -53zM750 220q-56 -69 -91 -99q-67 -57 -130 -57q-41 0 -41 38q0 8 3 19q25 85 70 163t95 125q-33 37 -83 37q-43 0 -76 -30
q-16 31 -46.5 46.5t-59.5 15.5q-123 0 -231.5 -130.5t-108.5 -275.5q0 -45 27.5 -64.5t82.5 -19.5q38 0 84 26t91 77q0 -36 36 -59.5t98 -23.5q101 0 175 57q30 23 83 89q7 9 14 34q3 11 8 32zM591 616q-3 -14 -12 -23.5t-25 -11.5q-16 0 -26 8t-8 22q2 15 13 25.5t27 10.5
q15 2 23 -7t8 -24zM647 628q1 5 1 14q0 35 -23.5 55.5t-63.5 20.5q-45 0 -79.5 -31.5t-39.5 -73.5q-1 -5 -1 -14q0 -34 26.5 -54t69.5 -20q41 0 73 31t37 72z" />
    <glyph glyph-name="ae" unicode="&#xe6;" horiz-adv-x="777" 
d="M408 339q-29 -68 -73 -142q-53 -89 -98 -129q-20 -18 -33 -18q-14 0 -14 21q0 11 4 24q52 191 164 284q35 29 52 29q13 0 13 -16q0 -20 -15 -53zM696 354q-25 -54 -73.5 -106.5t-96.5 -78.5q19 44 64 104.5t81 91.5q14 10 23 10q6 0 6 -7q0 -6 -4 -14zM929 212
q-79 -77 -171.5 -120t-173.5 -43q-28 0 -48.5 4.5t-20.5 22.5q0 8 7 22q92 12 196 109t104 175q0 19 -6.5 33.5t-21.5 25.5q-37 21 -66 32q-50 19 -93 19q-41 0 -74.5 -18t-60.5 -59q-16 31 -48 47t-61 16q-123 0 -231.5 -130.5t-108.5 -275.5q0 -45 27.5 -64.5t82.5 -19.5
q38 0 84 26t91 77q0 -44 46 -71.5t138 -27.5q107 0 184.5 31.5t160.5 99.5q20 16 38 43q13 20 26 46z" />
    <glyph glyph-name="ccedilla" unicode="&#xe7;" horiz-adv-x="472" 
d="M623 212q-71 -75 -174 -122q-95 -43 -171 -43q-29 0 -53 16t-24 34q0 61 52 141q46 70 106 119q11 9 19 9q11 0 7 -17q-16 -41 -45 -79q-2 -3 -2 -10q0 -13 14 -24.5t34 -11.5q47 0 79 30q40 38 50 123q3 9 3 17q0 40 -69 63q-54 18 -114 18q-14 0 -19 -1
q-83 0 -180 -138q-91 -130 -91 -218q0 -53 59.5 -92t128.5 -39l-6 -3q-22 -14 -37 -35.5t-15 -39.5q0 -8 5 -15q37 -6 54 -8.5t11 -17.5q-7 -16 -25.5 -25.5t-39.5 -9.5q-40 0 -52 26q-11 -15 -11 -34q0 -23 17.5 -38.5t49.5 -15.5q72 0 118 37q36 29 41 63q6 36 -44 40
t-44 28q3 19 41 45q0 2 1 7q88 12 173 62q63 37 108 84q9 7 26.5 35.5t18.5 39.5z" />
    <glyph glyph-name="egrave" unicode="&#xe8;" horiz-adv-x="479" 
d="M396 354q-25 -54 -73.5 -106.5t-96.5 -78.5q19 44 64 104.5t81 91.5q14 10 23 10q6 0 6 -7q0 -6 -4 -14zM629 212q-79 -77 -171.5 -120t-173.5 -43q-28 0 -48.5 4.5t-20.5 22.5q0 8 7 22q92 12 196 109t104 175q0 19 -6.5 33.5t-21.5 25.5q-34 20 -67 32q-51 19 -93 19
q-31 0 -57.5 -10.5t-47.5 -35.5q-57 -46 -106 -139q-52 -99 -52 -179q0 -63 33 -97q37 -39 116 -39q107 0 184.5 31.5t160.5 99.5q20 16 38 43q13 20 26 46zM417 560q-4 -10 -25 -10q-9 0 -21.5 3t-24 9t-58.5 76t-54 89q3 6 21 11t38 5q24 0 38 -8q18 -8 40 -58
q23 -59 46 -117z" />
    <glyph glyph-name="eacute" unicode="&#xe9;" horiz-adv-x="479" 
d="M396 354q-25 -54 -73.5 -106.5t-96.5 -78.5q19 44 64 104.5t81 91.5q14 10 23 10q6 0 6 -7q0 -6 -4 -14zM629 212q-79 -77 -171.5 -120t-173.5 -43q-28 0 -48.5 4.5t-20.5 22.5q0 8 7 22q92 12 196 109t104 175q0 19 -6.5 33.5t-21.5 25.5q-34 20 -67 32q-51 19 -93 19
q-31 0 -57.5 -10.5t-47.5 -35.5q-57 -46 -106 -139q-52 -99 -52 -179q0 -63 33 -97q37 -39 116 -39q107 0 184.5 31.5t160.5 99.5q20 16 38 43q13 20 26 46zM573 711q-10 -19 -65 -83q-58 -69 -77 -76.5t-39 -7.5q-23 0 -26 11q34 68 63 114.5t46.5 53.5t36.5 7
q24 0 41 -5.5t20 -13.5z" />
    <glyph glyph-name="ecircumflex" unicode="&#xea;" horiz-adv-x="479" 
d="M396 354q-25 -54 -73.5 -106.5t-96.5 -78.5q19 44 64 104.5t81 91.5q14 10 23 10q6 0 6 -7q0 -6 -4 -14zM629 212q-79 -77 -171.5 -120t-173.5 -43q-28 0 -48.5 4.5t-20.5 22.5q0 8 7 22q92 12 196 109t104 175q0 19 -6.5 33.5t-21.5 25.5q-34 20 -67 32q-51 19 -93 19
q-31 0 -57.5 -10.5t-47.5 -35.5q-57 -46 -106 -139q-52 -99 -52 -179q0 -63 33 -97q37 -39 116 -39q107 0 184.5 31.5t160.5 99.5q20 16 38 43q13 20 26 46zM562 588q3 -6 3 -11q0 -10 -17 -25q-22 -13 -49 -13q-21 0 -26 12q-8 14 -26.5 34t-32.5 33q-62 -47 -115 -71
q-17 -6 -28 -6t-20.5 4.5t-18.5 11.5q-5 3 -5 7q0 6 9 15q44 26 81 54q28 21 66 53q10 7 37 7q50 0 74 -11z" />
    <glyph glyph-name="edieresis" unicode="&#xeb;" horiz-adv-x="479" 
d="M396 354q-25 -54 -73.5 -106.5t-96.5 -78.5q19 44 64 104.5t81 91.5q14 10 23 10q6 0 6 -7q0 -6 -4 -14zM629 212q-79 -77 -171.5 -120t-173.5 -43q-28 0 -48.5 4.5t-20.5 22.5q0 8 7 22q92 12 196 109t104 175q0 19 -6.5 33.5t-21.5 25.5q-34 20 -67 32q-51 19 -93 19
q-31 0 -57.5 -10.5t-47.5 -35.5q-57 -46 -106 -139q-52 -99 -52 -179q0 -63 33 -97q37 -39 116 -39q107 0 184.5 31.5t160.5 99.5q20 16 38 43q13 20 26 46zM268 559q16 -8 29 -8q21 0 42 16t38 40.5t17 47.5q0 17 -10 32q-6 9 -16 18q-7 4 -16 6.5t-17 2.5
q-18 0 -34.5 -10.5t-36.5 -39.5q-10 -12 -15 -27.5t-5 -28.5q0 -35 24 -49zM476 558q16 -8 29 -8q22 0 43.5 16t38.5 40.5t17 46.5q0 18 -10 33q-6 8 -18 18q-7 4 -16 6.5t-16 2.5q-17 0 -34.5 -11t-37.5 -39.5t-20 -56.5q0 -34 24 -48z" />
    <glyph glyph-name="igrave" unicode="&#xec;" horiz-adv-x="303" 
d="M461 211q-9 -31 -10 -35q-8 -23 -19 -35q-32 -50 -87 -87q-77 -51 -168 -51q-60 0 -94.5 27.5t-34.5 72.5q1 6 1 10q9 59 56.5 154t100.5 155q7 25 23 35.5t42 10.5h12q9 -2 13 -2q38 0 54.5 -10t16.5 -26q0 -10 -7 -24q-73 -107 -113 -181q-35 -64 -52 -116
q-2 -6 -2 -16q0 -36 39 -36q57 0 119.5 42.5t109.5 111.5zM354 545q-4 -10 -25 -10q-9 0 -21.5 3t-24 9t-58.5 76t-54 89q3 6 21 11t38 5q24 0 38 -8q18 -8 40 -58q23 -59 46 -117z" />
    <glyph glyph-name="iacute" unicode="&#xed;" horiz-adv-x="303" 
d="M461 211q-9 -31 -10 -35q-8 -23 -19 -35q-32 -50 -87 -87q-77 -51 -168 -51q-60 0 -94.5 27.5t-34.5 72.5q1 6 1 10q9 59 56.5 154t100.5 155q7 25 23 35.5t42 10.5h12q9 -2 13 -2q38 0 54.5 -10t16.5 -26q0 -10 -7 -24q-73 -107 -113 -181q-35 -64 -52 -116
q-2 -6 -2 -16q0 -36 39 -36q57 0 119.5 42.5t109.5 111.5zM526 704q-10 -19 -65 -83q-58 -69 -77 -76.5t-39 -7.5q-23 0 -26 11q34 68 63 114.5t46.5 53.5t36.5 7q24 0 41 -5.5t20 -13.5z" />
    <glyph glyph-name="icircumflex" unicode="&#xee;" horiz-adv-x="303" 
d="M461 211q-9 -31 -10 -35q-8 -23 -19 -35q-32 -50 -87 -87q-77 -51 -168 -51q-60 0 -94.5 27.5t-34.5 72.5q1 6 1 10q9 59 56.5 154t100.5 155q7 25 23 35.5t42 10.5h12q9 -2 13 -2q38 0 54.5 -10t16.5 -26q0 -10 -7 -24q-73 -107 -113 -181q-35 -64 -52 -116
q-2 -6 -2 -16q0 -36 39 -36q57 0 119.5 42.5t109.5 111.5zM524 591q3 -6 3 -11q0 -10 -17 -25q-22 -13 -49 -13q-21 0 -26 12q-8 14 -26.5 34t-32.5 33q-62 -47 -115 -71q-17 -6 -28 -6t-20.5 4.5t-18.5 11.5q-5 3 -5 7q0 6 9 15q44 26 81 54q28 21 66 53q10 7 37 7
q50 0 74 -11z" />
    <glyph glyph-name="idieresis" unicode="&#xef;" horiz-adv-x="303" 
d="M461 211q-9 -31 -10 -35q-8 -23 -19 -35q-32 -50 -87 -87q-77 -51 -168 -51q-60 0 -94.5 27.5t-34.5 72.5q1 6 1 10q9 59 56.5 154t100.5 155q7 25 23 35.5t42 10.5h12q9 -2 13 -2q38 0 54.5 -10t16.5 -26q0 -10 -7 -24q-73 -107 -113 -181q-35 -64 -52 -116
q-2 -6 -2 -16q0 -36 39 -36q57 0 119.5 42.5t109.5 111.5zM214 545q16 -8 29 -8q21 0 42 16t38 40.5t17 47.5q0 17 -10 32q-6 9 -16 18q-7 4 -16 6.5t-17 2.5q-18 0 -34.5 -10.5t-36.5 -39.5q-10 -12 -15 -27.5t-5 -28.5q0 -35 24 -49zM422 544q16 -8 29 -8q22 0 43.5 16
t38.5 40.5t17 46.5q0 18 -10 33q-6 8 -18 18q-7 4 -16 6.5t-16 2.5q-17 0 -34.5 -11t-37.5 -39.5t-20 -56.5q0 -34 24 -48z" />
    <glyph glyph-name="eth" unicode="&#xf0;" 
d="M386 3q-146 0 -249.5 103.5t-103.5 250.5q0 146 103 250t250 104q146 0 250 -104t104 -250t-104 -250t-250 -104zM386 51q127 0 216 90t89 216t-88.5 215.5t-216.5 89.5q-126 0 -216 -89t-90 -216q0 -126 90 -216t216 -90zM386 72q-118 0 -201.5 83.5t-83.5 201.5
q0 116 84 199t201 83t200.5 -82.5t83.5 -199.5q0 -118 -83.5 -201.5t-200.5 -83.5zM386 116q53 0 99 36q35 27 61 71q-78 -21 -157 -21q-80 0 -163 21q26 -43 60 -70q47 -37 100 -37zM216 238q43 -10 84 -15t86 -5q83 0 171 20l54 86h-450zM349 357h76l-38 91zM294 427
q4 -4 19 3.5t14 10.5q-25 56 -49 112q-6 7 -34 -11q-12 -12 -24 -23zM480 427l72 92q4 5 -23.5 23t-33.5 11q-15 -19 -26 -51t-21 -61q3 -4 6 -7q20 -13 26 -7zM645 12v38h-15v11h41v-11h-15v-38h-11zM676 12v49h15l9 -38l9 38h14v-49h-9v38l-10 -38h-9l-10 38v-38h-9z" />
    <glyph glyph-name="ntilde" unicode="&#xf1;" horiz-adv-x="566" 
d="M736 235q-57 -60 -105 -95q-84 -62 -155 -62q-37 0 -37 25q0 5 3 13q18 52 60 111.5t102 123.5q26 26 26 44q0 16 -20 30q-11 7 -27 13.5t-30 8.5t-25 4.5t-19 2.5q-18 0 -48 -19q-56 -34 -107 -84q-47 -45 -87 -100q25 51 57 100q36 54 71 90q5 17 -15.5 27t-71.5 10
q-32 0 -60 -12t-39 -26q-63 -97 -107 -188q-40 -83 -76 -190q-3 -12 -3 -21q0 -51 76 -51q48 0 81 55q29 57 73 116q56 75 106 109q-33 -47 -51 -88q-22 -50 -22 -89q0 -40 25.5 -62.5t83.5 -22.5q76 0 152 35q95 44 155 128q26 31 34 64zM429 595q-11 0 -39 -19.5
t-55 -38.5q-17 -6 -32.5 8.5t-15.5 31.5q-6 19 27 46q25 20 75 46q13 6 31 6q25 0 54.5 -19.5t59.5 -38.5q22 4 43.5 15t43.5 29q14 0 26.5 -9.5t18.5 -29.5q4 -20 -13.5 -36.5t-85.5 -40.5q-14 -6 -28 -6q-25 0 -54 17q-28 19 -56 39z" />
    <glyph glyph-name="ograve" unicode="&#xf2;" horiz-adv-x="551" 
d="M371 144q-24 -43 -61.5 -75t-70.5 -32q-19 2 -27.5 16t-8.5 39q0 49 28 108.5t57 71.5q-6 -15 -6 -30q0 -36 29 -65q26 -26 60 -33zM427 400q14 -6 20.5 -19.5t6.5 -33.5q0 -34 -15 -74t-32 -65q-17 11 -26 36.5t-9 57.5q0 48 21 87q8 14 19 14q6 0 15 -3zM712 319
q-45 -56 -101.5 -90.5t-101.5 -34.5q22 26 39 75.5t17 90.5q0 32 -10 51q-10 16 -41.5 24.5t-63.5 17.5q-17 15 -43.5 22.5t-54.5 7.5q-22 0 -45 -3q-85 -11 -166 -142q-77 -125 -77 -228q0 -50 47 -86t120 -36h11q56 0 118 37q66 40 108 105q86 0 152 57q55 48 92 132z
M493 547q-4 -10 -25 -10q-9 0 -21.5 3t-24 9t-58.5 76t-54 89q3 6 21 11t38 5q24 0 38 -8q18 -8 40 -58q23 -59 46 -117z" />
    <glyph glyph-name="oacute" unicode="&#xf3;" horiz-adv-x="551" 
d="M371 144q-24 -43 -61.5 -75t-70.5 -32q-19 2 -27.5 16t-8.5 39q0 49 28 108.5t57 71.5q-6 -15 -6 -30q0 -36 29 -65q26 -26 60 -33zM427 400q14 -6 20.5 -19.5t6.5 -33.5q0 -34 -15 -74t-32 -65q-17 11 -26 36.5t-9 57.5q0 48 21 87q8 14 19 14q6 0 15 -3zM712 319
q-45 -56 -101.5 -90.5t-101.5 -34.5q22 26 39 75.5t17 90.5q0 32 -10 51q-10 16 -41.5 24.5t-63.5 17.5q-17 15 -43.5 22.5t-54.5 7.5q-22 0 -45 -3q-85 -11 -166 -142q-77 -125 -77 -228q0 -50 47 -86t120 -36h11q56 0 118 37q66 40 108 105q86 0 152 57q55 48 92 132z
M621 708q-10 -19 -65 -83q-58 -69 -77 -76.5t-39 -7.5q-23 0 -26 11q34 68 63 114.5t46.5 53.5t36.5 7q24 0 41 -5.5t20 -13.5z" />
    <glyph glyph-name="ocircumflex" unicode="&#xf4;" horiz-adv-x="551" 
d="M371 144q-24 -43 -61.5 -75t-70.5 -32q-19 2 -27.5 16t-8.5 39q0 49 28 108.5t57 71.5q-6 -15 -6 -30q0 -36 29 -65q26 -26 60 -33zM427 400q14 -6 20.5 -19.5t6.5 -33.5q0 -34 -15 -74t-32 -65q-17 11 -26 36.5t-9 57.5q0 48 21 87q8 14 19 14q6 0 15 -3zM712 319
q-45 -56 -101.5 -90.5t-101.5 -34.5q22 26 39 75.5t17 90.5q0 32 -10 51q-10 16 -41.5 24.5t-63.5 17.5q-17 15 -43.5 22.5t-54.5 7.5q-22 0 -45 -3q-85 -11 -166 -142q-77 -125 -77 -228q0 -50 47 -86t120 -36h11q56 0 118 37q66 40 108 105q86 0 152 57q55 48 92 132z
M635 585q3 -6 3 -11q0 -10 -17 -25q-22 -13 -49 -13q-21 0 -26 12q-8 14 -26.5 34t-32.5 33q-62 -47 -115 -71q-17 -6 -28 -6t-20.5 4.5t-18.5 11.5q-5 3 -5 7q0 6 9 15q44 26 81 54q28 21 66 53q10 7 37 7q50 0 74 -11z" />
    <glyph glyph-name="otilde" unicode="&#xf5;" horiz-adv-x="551" 
d="M371 144q-24 -43 -61.5 -75t-70.5 -32q-19 2 -27.5 16t-8.5 39q0 49 28 108.5t57 71.5q-6 -15 -6 -30q0 -36 29 -65q26 -26 60 -33zM427 400q14 -6 20.5 -19.5t6.5 -33.5q0 -34 -15 -74t-32 -65q-17 11 -26 36.5t-9 57.5q0 48 21 87q8 14 19 14q6 0 15 -3zM712 319
q-45 -56 -101.5 -90.5t-101.5 -34.5q22 26 39 75.5t17 90.5q0 32 -10 51q-10 16 -41.5 24.5t-63.5 17.5q-17 15 -43.5 22.5t-54.5 7.5q-22 0 -45 -3q-85 -11 -166 -142q-77 -125 -77 -228q0 -50 47 -86t120 -36h11q56 0 118 37q66 40 108 105q86 0 152 57q55 48 92 132z
M413 597q-11 0 -39 -19.5t-55 -38.5q-17 -6 -32.5 8.5t-15.5 31.5q-6 19 27 46q25 20 75 46q13 6 31 6q25 0 54.5 -19.5t59.5 -38.5q22 4 43.5 15t43.5 29q14 0 26.5 -9.5t18.5 -29.5q4 -20 -13.5 -36.5t-85.5 -40.5q-14 -6 -28 -6q-25 0 -54 17q-28 19 -56 39z" />
    <glyph glyph-name="odieresis" unicode="&#xf6;" horiz-adv-x="551" 
d="M371 144q-24 -43 -61.5 -75t-70.5 -32q-19 2 -27.5 16t-8.5 39q0 49 28 108.5t57 71.5q-6 -15 -6 -30q0 -36 29 -65q26 -26 60 -33zM427 400q14 -6 20.5 -19.5t6.5 -33.5q0 -34 -15 -74t-32 -65q-17 11 -26 36.5t-9 57.5q0 48 21 87q8 14 19 14q6 0 15 -3zM712 319
q-45 -56 -101.5 -90.5t-101.5 -34.5q22 26 39 75.5t17 90.5q0 32 -10 51q-10 16 -41.5 24.5t-63.5 17.5q-17 15 -43.5 22.5t-54.5 7.5q-22 0 -45 -3q-85 -11 -166 -142q-77 -125 -77 -228q0 -50 47 -86t120 -36h11q56 0 118 37q66 40 108 105q86 0 152 57q55 48 92 132z
M326 545q16 -8 29 -8q21 0 42 16t38 40.5t17 47.5q0 17 -10 32q-6 9 -16 18q-7 4 -16 6.5t-17 2.5q-18 0 -34.5 -10.5t-36.5 -39.5q-10 -12 -15 -27.5t-5 -28.5q0 -35 24 -49zM534 544q16 -8 29 -8q22 0 43.5 16t38.5 40.5t17 46.5q0 18 -10 33q-6 8 -18 18q-7 4 -16 6.5
t-16 2.5q-17 0 -34.5 -11t-37.5 -39.5t-20 -56.5q0 -34 24 -48z" />
    <glyph glyph-name="divide" unicode="&#xf7;" horiz-adv-x="537" 
d="M442 478q-18 -27 -39.5 -42.5t-45.5 -15.5q-14 0 -28 8q-25 16 -25 50q0 16 4.5 29t16.5 29q18 26 37 38t36 12q15 0 33 -9q10 -8 17 -18q11 -16 11 -34q0 -12 -3.5 -22.5t-13.5 -24.5zM546 290q-14 -13 -90 -20.5t-139 -7.5q-69 0 -143.5 8t-87.5 21t-13 25q0 17 25 36
q11 9 90.5 14.5t174.5 5.5q40 0 90.5 -1t76.5 -7q44 -11 44 -30q0 -8 -6.5 -18t-21.5 -26zM325 99q-19 -27 -37.5 -39t-35.5 -12q-8 0 -15.5 2.5t-17.5 7.5q-10 9 -16 18q-11 17 -11 34q0 22 18 47.5t39.5 41.5t43.5 16q14 0 28 -8q25 -16 25 -51q0 -16 -4.5 -28.5
t-16.5 -28.5z" />
    <glyph glyph-name="oslash" unicode="&#xf8;" horiz-adv-x="795" 
d="M371 144q-24 -43 -61.5 -75t-70.5 -32q-19 2 -27.5 16t-8.5 39q0 49 28 108.5t57 71.5q-6 -15 -6 -30q0 -36 29 -65q26 -26 60 -33zM427 400q14 -6 20.5 -19.5t6.5 -33.5q0 -34 -15 -74t-32 -65q-17 11 -26 36.5t-9 57.5q0 48 21 87q8 14 19 14q6 0 15 -3zM736 354
q-25 -54 -73.5 -106.5t-96.5 -78.5q19 44 64 104.5t81 91.5q14 10 23 10q6 0 6 -7q0 -6 -4 -14zM969 212q-79 -77 -171.5 -120t-173.5 -43q-28 0 -48.5 4.5t-20.5 22.5q0 8 7 22q92 12 196 109t104 175q0 19 -6.5 33.5t-21.5 25.5q-34 20 -67 32q-51 19 -93 19
q-31 0 -57.5 -10.5t-47.5 -35.5l-25 -23q-16 12 -69 21q-22 4 -25 9q-17 15 -43.5 22.5t-54.5 7.5q-22 0 -45 -3q-85 -11 -166 -142q-77 -125 -77 -228q0 -50 47 -86t120 -36q8 -1 12 -1q41 0 88.5 22.5t89.5 62.5q13 -36 47.5 -58t91.5 -22q107 0 184.5 31.5t160.5 99.5
q20 16 38 43q13 20 26 46z" />
    <glyph glyph-name="ugrave" unicode="&#xf9;" horiz-adv-x="568" 
d="M725 210q-42 -50 -109 -94q-75 -49 -121 -49q-38 0 -38 34q0 57 82 186q72 113 103 137q-23 48 -108 48q-56 6 -116 -93q-35 -59 -66 -145q-9 -25 -39 -56q-23 -23 -59 -51.5t-54 -28.5q-15 0 -15 21q0 72 51 163q48 85 109 135q4 19 -8 32t-43 13q-21 0 -42.5 -8.5
t-30.5 -25.5q-72 -68 -124 -167q-56 -107 -56 -195q-4 -41 21 -60q21 -16 64 -16q53 0 116.5 43.5t78.5 84.5q-1 -8 -1 -22q0 -44 23 -70t65 -26q73 0 146 37t135 102q7 5 16 21t20 50zM440 545q-4 -10 -25 -10q-9 0 -21.5 3t-24 9t-58.5 76t-54 89q3 6 21 11t38 5
q24 0 38 -8q18 -8 40 -58q23 -59 46 -117z" />
    <glyph glyph-name="uacute" unicode="&#xfa;" horiz-adv-x="568" 
d="M725 210q-42 -50 -109 -94q-75 -49 -121 -49q-38 0 -38 34q0 57 82 186q72 113 103 137q-23 48 -108 48q-56 6 -116 -93q-35 -59 -66 -145q-9 -25 -39 -56q-23 -23 -59 -51.5t-54 -28.5q-15 0 -15 21q0 72 51 163q48 85 109 135q4 19 -8 32t-43 13q-21 0 -42.5 -8.5
t-30.5 -25.5q-72 -68 -124 -167q-56 -107 -56 -195q-4 -41 21 -60q21 -16 64 -16q53 0 116.5 43.5t78.5 84.5q-1 -8 -1 -22q0 -44 23 -70t65 -26q73 0 146 37t135 102q7 5 16 21t20 50zM581 696q-10 -19 -65 -83q-58 -69 -77 -76.5t-39 -7.5q-23 0 -26 11q34 68 63 114.5
t46.5 53.5t36.5 7q24 0 41 -5.5t20 -13.5z" />
    <glyph glyph-name="ucircumflex" unicode="&#xfb;" horiz-adv-x="568" 
d="M725 210q-42 -50 -109 -94q-75 -49 -121 -49q-38 0 -38 34q0 57 82 186q72 113 103 137q-23 48 -108 48q-56 6 -116 -93q-35 -59 -66 -145q-9 -25 -39 -56q-23 -23 -59 -51.5t-54 -28.5q-15 0 -15 21q0 72 51 163q48 85 109 135q4 19 -8 32t-43 13q-21 0 -42.5 -8.5
t-30.5 -25.5q-72 -68 -124 -167q-56 -107 -56 -195q-4 -41 21 -60q21 -16 64 -16q53 0 116.5 43.5t78.5 84.5q-1 -8 -1 -22q0 -44 23 -70t65 -26q73 0 146 37t135 102q7 5 16 21t20 50zM631 591q3 -6 3 -11q0 -10 -17 -25q-22 -13 -49 -13q-21 0 -26 12q-8 14 -26.5 34
t-32.5 33q-62 -47 -115 -71q-17 -6 -28 -6t-20.5 4.5t-18.5 11.5q-5 3 -5 7q0 6 9 15q44 26 81 54q28 21 66 53q10 7 37 7q50 0 74 -11z" />
    <glyph glyph-name="udieresis" unicode="&#xfc;" horiz-adv-x="568" 
d="M725 210q-42 -50 -109 -94q-75 -49 -121 -49q-38 0 -38 34q0 57 82 186q72 113 103 137q-23 48 -108 48q-56 6 -116 -93q-35 -59 -66 -145q-9 -25 -39 -56q-23 -23 -59 -51.5t-54 -28.5q-15 0 -15 21q0 72 51 163q48 85 109 135q4 19 -8 32t-43 13q-21 0 -42.5 -8.5
t-30.5 -25.5q-72 -68 -124 -167q-56 -107 -56 -195q-4 -41 21 -60q21 -16 64 -16q53 0 116.5 43.5t78.5 84.5q-1 -8 -1 -22q0 -44 23 -70t65 -26q73 0 146 37t135 102q7 5 16 21t20 50zM322 549q16 -8 29 -8q21 0 42 16t38 40.5t17 47.5q0 17 -10 32q-6 9 -16 18
q-7 4 -16 6.5t-17 2.5q-18 0 -34.5 -10.5t-36.5 -39.5q-10 -12 -15 -27.5t-5 -28.5q0 -35 24 -49zM530 548q16 -8 29 -8q22 0 43.5 16t38.5 40.5t17 46.5q0 18 -10 33q-6 8 -18 18q-7 4 -16 6.5t-16 2.5q-17 0 -34.5 -11t-37.5 -39.5t-20 -56.5q0 -34 24 -48z" />
    <glyph glyph-name="yacute" unicode="&#xfd;" horiz-adv-x="529" 
d="M627 417q0 21 -26 43t-53 22q-30 0 -52 -9.5t-40 -28.5q-11 -14 -23 -53q-8 -24 -17 -41q-69 -110 -127 -182q-76 -95 -117 -103q-20 -3 -20 24q0 9 3 20q28 80 59 143t82 142q21 11 21 34q0 18 -16.5 30t-53.5 12q-34 0 -48 -18q-1 -2 -24 -47q-51 -85 -79 -157
q-33 -84 -40 -161q-1 -4 -1 -13q0 -39 28.5 -59t64.5 -20t69 18q38 21 82 69q-10 -33 -42 -104q-63 -139 -66 -170q-2 -17 16.5 -30t49.5 -13q34 0 47 5t27 25q27 58 82.5 195.5t79.5 189.5q49 103 109 190q13 19 18.5 27t6.5 20zM579 696q-10 -19 -65 -83
q-58 -69 -77 -76.5t-39 -7.5q-23 0 -26 11q34 68 63 114.5t46.5 53.5t36.5 7q24 0 41 -5.5t20 -13.5z" />
    <glyph glyph-name="thorn" unicode="&#xfe;" horiz-adv-x="529" 
d="M627 417q0 21 -26 43t-53 22q-30 0 -52 -9.5t-40 -28.5q-11 -14 -23 -53q-8 -24 -17 -41q-69 -110 -127 -182q-76 -95 -117 -103q-20 -3 -20 24q0 9 3 20q28 80 59 143t82 142q21 11 21 34q0 18 -16.5 30t-53.5 12q-34 0 -48 -18q-1 -2 -24 -47q-51 -85 -79 -157
q-33 -84 -40 -161q-1 -4 -1 -13q0 -39 28.5 -59t64.5 -20t69 18q38 21 82 69q-10 -33 -42 -104q-63 -139 -66 -170q-2 -17 16.5 -30t49.5 -13q34 0 47 5t27 25q27 58 82.5 195.5t79.5 189.5q49 103 109 190q13 19 18.5 27t6.5 20zM264 549q16 -8 29 -8q21 0 42 16t38 40.5
t17 47.5q0 17 -10 32q-6 9 -16 18q-7 4 -16 6.5t-17 2.5q-18 0 -34.5 -10.5t-36.5 -39.5q-10 -12 -15 -27.5t-5 -28.5q0 -35 24 -49zM472 548q16 -8 29 -8q22 0 43.5 16t38.5 40.5t17 46.5q0 18 -10 33q-6 8 -18 18q-7 4 -16 6.5t-16 2.5q-17 0 -34.5 -11t-37.5 -39.5
t-20 -56.5q0 -34 24 -48z" />
    <glyph glyph-name="ydieresis" unicode="&#xff;" horiz-adv-x="598" 
d="M796 650q-110 -111 -183 -192q-83 -92 -172 -206q-20 -41 -46 -110q-22 -60 -38 -112q0 -26 -11.5 -37.5t-40.5 -11.5h-11q-9 2 -13 2q-40 0 -69.5 16t-29.5 35q1 14 29 89t53 130q-12 71 -16 142t-4 176v47q-2 6 -15 16q-6 5 -7 11q0 27 33.5 44t90.5 22q52 0 93 -10
t41 -28q0 -14 -13 -39q-6 -11 -6 -17q-19 -110 -19 -223q43 49 90 100q35 38 92 96q40 41 99 100q13 13 29 20t30 7q32 0 32 -26q0 -17 -18 -41zM462 792q16 -8 29 -8q21 0 42 16t38 40.5t17 47.5q0 17 -10 32q-6 9 -16 18q-7 4 -16 6.5t-17 2.5q-18 0 -34.5 -10.5
t-36.5 -39.5q-10 -12 -15 -27.5t-5 -28.5q0 -35 24 -49zM670 791q16 -8 29 -8q22 0 43.5 16t38.5 40.5t17 46.5q0 18 -10 33q-6 8 -18 18q-7 4 -16 6.5t-16 2.5q-17 0 -34.5 -11t-37.5 -39.5t-20 -56.5q0 -34 24 -48z" />
    <glyph glyph-name="OE" unicode="&#x152;" 
d="M386 3q-146 0 -249.5 103.5t-103.5 250.5q0 146 103 250t250 104q146 0 250 -104t104 -250t-104 -250t-250 -104zM386 51q127 0 216 90t89 216t-88.5 215.5t-216.5 89.5q-126 0 -216 -89t-90 -216q0 -126 90 -216t216 -90zM386 72q-118 0 -201.5 83.5t-83.5 201.5
q0 116 84 199t201 83t200.5 -82.5t83.5 -199.5q0 -118 -83.5 -201.5t-200.5 -83.5zM386 116q53 0 99 36q35 27 61 71q-78 -21 -157 -21q-80 0 -163 21q26 -43 60 -70q47 -37 100 -37zM216 238q43 -10 84 -15t86 -5q83 0 171 20l54 86h-450zM349 357h76l-38 91zM294 427
q4 -4 19 3.5t14 10.5q-25 56 -49 112q-6 7 -34 -11q-12 -12 -24 -23zM480 427l72 92q4 5 -23.5 23t-33.5 11q-15 -19 -26 -51t-21 -61q3 -4 6 -7q20 -13 26 -7zM645 12v38h-15v11h41v-11h-15v-38h-11zM676 12v49h15l9 -38l9 38h14v-49h-9v38l-10 -38h-9l-10 38v-38h-9z" />
    <glyph glyph-name="oe" unicode="&#x153;" 
d="M386 3q-146 0 -249.5 103.5t-103.5 250.5q0 146 103 250t250 104q146 0 250 -104t104 -250t-104 -250t-250 -104zM386 51q127 0 216 90t89 216t-88.5 215.5t-216.5 89.5q-126 0 -216 -89t-90 -216q0 -126 90 -216t216 -90zM386 72q-118 0 -201.5 83.5t-83.5 201.5
q0 116 84 199t201 83t200.5 -82.5t83.5 -199.5q0 -118 -83.5 -201.5t-200.5 -83.5zM386 116q53 0 99 36q35 27 61 71q-78 -21 -157 -21q-80 0 -163 21q26 -43 60 -70q47 -37 100 -37zM216 238q43 -10 84 -15t86 -5q83 0 171 20l54 86h-450zM349 357h76l-38 91zM294 427
q4 -4 19 3.5t14 10.5q-25 56 -49 112q-6 7 -34 -11q-12 -12 -24 -23zM480 427l72 92q4 5 -23.5 23t-33.5 11q-15 -19 -26 -51t-21 -61q3 -4 6 -7q20 -13 26 -7zM645 12v38h-15v11h41v-11h-15v-38h-11zM676 12v49h15l9 -38l9 38h14v-49h-9v38l-10 -38h-9l-10 38v-38h-9z" />
    <glyph glyph-name="Scaron" unicode="&#x160;" horiz-adv-x="1509" 
d="M430 334q-20 -37 -61 -63t-79 -26q-31 0 -51 8q-27 11 -23 33q6 30 37 58q37 33 120 70q29 -21 46 -41q14 -17 14 -28q0 -6 -3 -11zM556 674q-23 -33 -66 -68q-33 -27 -78 -54q-17 23 -17 55q0 43 38.5 67.5t84.5 24.5q19 0 32 -8t6 -17zM1490 413q0 -87 -93 -225
q-96 -142 -160 -131q-34 6 -34 50q0 73 79 208q75 129 120 152q24 12 43 12q45 0 45 -66zM674 636q0 52 -67 85q-57 28 -122 28q-70 0 -145.5 -42t-88.5 -92q-1 -4 -1 -14q0 -30 15.5 -65t32.5 -49q-57 -37 -113 -73q-81 -62 -81 -119q0 -52 62 -85q56 -30 127 -30
q85 0 156 39q83 45 107 127q3 12 3 24q0 32 -21 64q-17 26 -37 39l106 70q67 52 67 93zM927 619q27 31 27 58q0 20 -14.5 35.5t-40.5 24.5q-12 3 -23 3q-51 0 -71 -51q-17 -37 -108 -227q-64 -135 -92 -191q-49 -98 -105 -203q-30 -45 -30 -71t30 -36q9 -3 17 -3q26 0 46 39
q7 13 19 45q81 162 158.5 292.5t186.5 284.5zM1130 516q9 13 9 26q0 20 -21 27.5t-45 7.5q-56 0 -111.5 -33.5t-55.5 -63.5q-2 -13 10.5 -20.5t35.5 -7.5q-20 -63 -45 -126q-29 -72 -51 -122q-29 -62 -57 -123q-11 -25 -11 -44q0 -22 17.5 -35t54.5 -13q43 0 46 24.5t5 41.5
q18 38 75 154q34 70 73 152q46 98 71 155zM1587 420q0 77 -46 114q-38 31 -102 31q-27 0 -47 -4q-14 3 -27 3q-103 0 -202 -159q-90 -145 -90 -260q0 -15 3 -29q0 -62 52 -95q44 -28 104 -28q18 0 35 3q85 15 166 108q66 76 113 180q41 91 41 136z" />
    <glyph glyph-name="scaron" unicode="&#x161;" 
d="M386 3q-146 0 -249.5 103.5t-103.5 250.5q0 146 103 250t250 104q146 0 250 -104t104 -250t-104 -250t-250 -104zM386 51q127 0 216 90t89 216t-88.5 215.5t-216.5 89.5q-126 0 -216 -89t-90 -216q0 -126 90 -216t216 -90zM386 72q-118 0 -201.5 83.5t-83.5 201.5
q0 116 84 199t201 83t200.5 -82.5t83.5 -199.5q0 -118 -83.5 -201.5t-200.5 -83.5zM386 116q53 0 99 36q35 27 61 71q-78 -21 -157 -21q-80 0 -163 21q26 -43 60 -70q47 -37 100 -37zM216 238q43 -10 84 -15t86 -5q83 0 171 20l54 86h-450zM349 357h76l-38 91zM294 427
q4 -4 19 3.5t14 10.5q-25 56 -49 112q-6 7 -34 -11q-12 -12 -24 -23zM480 427l72 92q4 5 -23.5 23t-33.5 11q-15 -19 -26 -51t-21 -61q3 -4 6 -7q20 -13 26 -7zM645 12v38h-15v11h41v-11h-15v-38h-11zM676 12v49h15l9 -38l9 38h14v-49h-9v38l-10 -38h-9l-10 38v-38h-9z" />
    <glyph glyph-name="Ydieresis" unicode="&#x178;" 
d="M386 3q-146 0 -249.5 103.5t-103.5 250.5q0 146 103 250t250 104q146 0 250 -104t104 -250t-104 -250t-250 -104zM386 51q127 0 216 90t89 216t-88.5 215.5t-216.5 89.5q-126 0 -216 -89t-90 -216q0 -126 90 -216t216 -90zM386 72q-118 0 -201.5 83.5t-83.5 201.5
q0 116 84 199t201 83t200.5 -82.5t83.5 -199.5q0 -118 -83.5 -201.5t-200.5 -83.5zM386 116q53 0 99 36q35 27 61 71q-78 -21 -157 -21q-80 0 -163 21q26 -43 60 -70q47 -37 100 -37zM216 238q43 -10 84 -15t86 -5q83 0 171 20l54 86h-450zM349 357h76l-38 91zM294 427
q4 -4 19 3.5t14 10.5q-25 56 -49 112q-6 7 -34 -11q-12 -12 -24 -23zM480 427l72 92q4 5 -23.5 23t-33.5 11q-15 -19 -26 -51t-21 -61q3 -4 6 -7q20 -13 26 -7zM645 12v38h-15v11h41v-11h-15v-38h-11zM676 12v49h15l9 -38l9 38h14v-49h-9v38l-10 -38h-9l-10 38v-38h-9z" />
    <glyph glyph-name="florin" unicode="&#x192;" horiz-adv-x="1262" 
d="M1246 413q0 -87 -93 -225q-96 -142 -160 -131q-34 6 -34 50q0 73 79 208q75 129 120 152q24 12 43 12q45 0 45 -66zM434 670q9 13 9 26q0 20 -21 27.5t-45 7.5q-56 0 -111.5 -33.5t-55.5 -63.5q-2 -13 10.5 -20.5t35.5 -7.5q-20 -63 -45 -126q-29 -72 -51 -122
q-29 -62 -57 -123q-11 -25 -11 -44q0 -22 17.5 -35t54.5 -13q43 0 46 24.5t5 41.5q18 38 75 154q34 70 73 152q46 98 71 155zM683 619q27 31 27 58q0 20 -14.5 35.5t-40.5 24.5q-12 3 -23 3q-51 0 -71 -51q-17 -37 -108 -227q-64 -135 -92 -191q-49 -98 -105 -203
q-30 -45 -30 -71t30 -36q9 -3 17 -3q26 0 46 39q7 13 19 45q81 162 158.5 292.5t186.5 284.5zM886 516q9 13 9 26q0 20 -21 27.5t-45 7.5q-56 0 -111.5 -33.5t-55.5 -63.5q-2 -13 10.5 -20.5t35.5 -7.5q-20 -63 -45 -126q-29 -72 -51 -122q-29 -62 -57 -123q-11 -25 -11 -44
q0 -22 17.5 -35t54.5 -13q43 0 46 24.5t5 41.5q18 38 75 154q34 70 73 152q46 98 71 155zM1343 420q0 77 -46 114q-38 31 -102 31q-27 0 -47 -4q-14 3 -27 3q-103 0 -202 -159q-90 -145 -90 -260q0 -15 3 -29q0 -62 52 -95q44 -28 104 -28q18 0 35 3q85 15 166 108
q66 76 113 180q41 91 41 136z" />
    <glyph glyph-name="circumflex" unicode="&#x2c6;" horiz-adv-x="1497" 
d="M456 432q0 -48 -79 -133t-123 -85q-34 6 -29 44q0 49 62 124q68 82 133 90q36 7 36 -40zM1480 413q0 -87 -93 -225q-96 -142 -160 -131q-34 6 -34 50q0 73 79 208q75 129 120 152q24 12 43 12q45 0 45 -66zM568 435q0 43 -47 75.5t-102 32.5q-23 0 -43 -7q36 39 66 66
q36 32 82 61q21 10 31.5 15.5t10.5 8.5q2 23 -21 37t-63 14q-98 0 -233 -168.5t-135 -299.5q0 -45 45 -81q50 -40 132 -40q71 0 172 95q106 100 106 179q-1 8 -1 12zM917 619q27 31 27 58q0 20 -14.5 35.5t-40.5 24.5q-12 3 -23 3q-51 0 -71 -51q-17 -37 -108 -227
q-64 -135 -92 -191q-49 -98 -105 -203q-30 -45 -30 -71t30 -36q9 -3 17 -3q26 0 46 39q7 13 19 45q81 162 158.5 292.5t186.5 284.5zM1120 516q9 13 9 26q0 20 -21 27.5t-45 7.5q-56 0 -111.5 -33.5t-55.5 -63.5q-2 -13 10.5 -20.5t35.5 -7.5q-20 -63 -45 -126
q-29 -72 -51 -122q-29 -62 -57 -123q-11 -25 -11 -44q0 -22 17.5 -35t54.5 -13q43 0 46 24.5t5 41.5q18 38 75 154q34 70 73 152q46 98 71 155zM1577 420q0 77 -46 114q-38 31 -102 31q-27 0 -47 -4q-14 3 -27 3q-103 0 -202 -159q-90 -145 -90 -260q0 -15 3 -29
q0 -62 52 -95q44 -28 104 -28q18 0 35 3q85 15 166 108q66 76 113 180q41 91 41 136z" />
    <glyph glyph-name="tilde" unicode="&#x2dc;" 
d="M386 3q-146 0 -249.5 103.5t-103.5 250.5q0 146 103 250t250 104q146 0 250 -104t104 -250t-104 -250t-250 -104zM386 51q127 0 216 90t89 216t-88.5 215.5t-216.5 89.5q-126 0 -216 -89t-90 -216q0 -126 90 -216t216 -90zM386 72q-118 0 -201.5 83.5t-83.5 201.5
q0 116 84 199t201 83t200.5 -82.5t83.5 -199.5q0 -118 -83.5 -201.5t-200.5 -83.5zM386 116q53 0 99 36q35 27 61 71q-78 -21 -157 -21q-80 0 -163 21q26 -43 60 -70q47 -37 100 -37zM216 238q43 -10 84 -15t86 -5q83 0 171 20l54 86h-450zM349 357h76l-38 91zM294 427
q4 -4 19 3.5t14 10.5q-25 56 -49 112q-6 7 -34 -11q-12 -12 -24 -23zM480 427l72 92q4 5 -23.5 23t-33.5 11q-15 -19 -26 -51t-21 -61q3 -4 6 -7q20 -13 26 -7zM645 12v38h-15v11h41v-11h-15v-38h-11zM676 12v49h15l9 -38l9 38h14v-49h-9v38l-10 -38h-9l-10 38v-38h-9z" />
    <glyph glyph-name="endash" unicode="&#x2013;" 
d="M386 3q-146 0 -249.5 103.5t-103.5 250.5q0 146 103 250t250 104q146 0 250 -104t104 -250t-104 -250t-250 -104zM386 51q127 0 216 90t89 216t-88.5 215.5t-216.5 89.5q-126 0 -216 -89t-90 -216q0 -126 90 -216t216 -90zM386 72q-118 0 -201.5 83.5t-83.5 201.5
q0 116 84 199t201 83t200.5 -82.5t83.5 -199.5q0 -118 -83.5 -201.5t-200.5 -83.5zM386 116q53 0 99 36q35 27 61 71q-78 -21 -157 -21q-80 0 -163 21q26 -43 60 -70q47 -37 100 -37zM216 238q43 -10 84 -15t86 -5q83 0 171 20l54 86h-450zM349 357h76l-38 91zM294 427
q4 -4 19 3.5t14 10.5q-25 56 -49 112q-6 7 -34 -11q-12 -12 -24 -23zM480 427l72 92q4 5 -23.5 23t-33.5 11q-15 -19 -26 -51t-21 -61q3 -4 6 -7q20 -13 26 -7zM645 12v38h-15v11h41v-11h-15v-38h-11zM676 12v49h15l9 -38l9 38h14v-49h-9v38l-10 -38h-9l-10 38v-38h-9z" />
    <glyph glyph-name="emdash" unicode="&#x2014;" 
d="M386 3q-146 0 -249.5 103.5t-103.5 250.5q0 146 103 250t250 104q146 0 250 -104t104 -250t-104 -250t-250 -104zM386 51q127 0 216 90t89 216t-88.5 215.5t-216.5 89.5q-126 0 -216 -89t-90 -216q0 -126 90 -216t216 -90zM386 72q-118 0 -201.5 83.5t-83.5 201.5
q0 116 84 199t201 83t200.5 -82.5t83.5 -199.5q0 -118 -83.5 -201.5t-200.5 -83.5zM386 116q53 0 99 36q35 27 61 71q-78 -21 -157 -21q-80 0 -163 21q26 -43 60 -70q47 -37 100 -37zM216 238q43 -10 84 -15t86 -5q83 0 171 20l54 86h-450zM349 357h76l-38 91zM294 427
q4 -4 19 3.5t14 10.5q-25 56 -49 112q-6 7 -34 -11q-12 -12 -24 -23zM480 427l72 92q4 5 -23.5 23t-33.5 11q-15 -19 -26 -51t-21 -61q3 -4 6 -7q20 -13 26 -7zM645 12v38h-15v11h41v-11h-15v-38h-11zM676 12v49h15l9 -38l9 38h14v-49h-9v38l-10 -38h-9l-10 38v-38h-9z" />
    <glyph glyph-name="quoteleft" unicode="&#x2018;" horiz-adv-x="328" 
d="M513 702q-4 15 -31 26.5t-54 11.5q-6 0 -16 -2q-29 -2 -77 -120t-50 -123q4 -12 20.5 -18t35.5 -6q8 0 22 2q17 5 82.5 107.5t67.5 121.5z" />
    <glyph glyph-name="quoteright" unicode="&#x2019;" horiz-adv-x="335" 
d="M415 702q-4 15 -31 26.5t-54 11.5q-6 0 -16 -2q-29 -2 -77 -120t-50 -123q4 -12 20.5 -18t35.5 -6q8 0 22 2q17 5 82.5 107.5t67.5 121.5z" />
    <glyph glyph-name="quotesinglbase" unicode="&#x201a;" 
d="M386 3q-146 0 -249.5 103.5t-103.5 250.5q0 146 103 250t250 104q146 0 250 -104t104 -250t-104 -250t-250 -104zM386 51q127 0 216 90t89 216t-88.5 215.5t-216.5 89.5q-126 0 -216 -89t-90 -216q0 -126 90 -216t216 -90zM386 72q-118 0 -201.5 83.5t-83.5 201.5
q0 116 84 199t201 83t200.5 -82.5t83.5 -199.5q0 -118 -83.5 -201.5t-200.5 -83.5zM386 116q53 0 99 36q35 27 61 71q-78 -21 -157 -21q-80 0 -163 21q26 -43 60 -70q47 -37 100 -37zM216 238q43 -10 84 -15t86 -5q83 0 171 20l54 86h-450zM349 357h76l-38 91zM294 427
q4 -4 19 3.5t14 10.5q-25 56 -49 112q-6 7 -34 -11q-12 -12 -24 -23zM480 427l72 92q4 5 -23.5 23t-33.5 11q-15 -19 -26 -51t-21 -61q3 -4 6 -7q20 -13 26 -7zM645 12v38h-15v11h41v-11h-15v-38h-11zM676 12v49h15l9 -38l9 38h14v-49h-9v38l-10 -38h-9l-10 38v-38h-9z" />
    <glyph glyph-name="quotedblleft" unicode="&#x201c;" horiz-adv-x="441" 
d="M415 696q-4 15 -31 26.5t-54 11.5q-6 0 -16 -2q-29 -2 -77 -120t-50 -123q4 -12 20.5 -18t35.5 -6q8 0 22 2q17 5 82.5 107.5t67.5 121.5zM626 702q-4 15 -31 26.5t-54 11.5q-6 0 -16 -2q-29 -2 -77 -120t-50 -123q4 -12 20.5 -18t35.5 -6q8 0 22 2q17 5 82.5 107.5
t67.5 121.5z" />
    <glyph glyph-name="quotedblright" unicode="&#x201d;" horiz-adv-x="546" 
d="M415 696q-4 15 -31 26.5t-54 11.5q-6 0 -16 -2q-29 -2 -77 -120t-50 -123q4 -12 20.5 -18t35.5 -6q8 0 22 2q17 5 82.5 107.5t67.5 121.5zM626 702q-4 15 -31 26.5t-54 11.5q-6 0 -16 -2q-29 -2 -77 -120t-50 -123q4 -12 20.5 -18t35.5 -6q8 0 22 2q17 5 82.5 107.5
t67.5 121.5z" />
    <glyph glyph-name="quotedblbase" unicode="&#x201e;" horiz-adv-x="1487" 
d="M1470 413q0 -87 -93 -225q-96 -142 -160 -131q-34 6 -34 50q0 73 79 208q75 129 120 152q24 12 43 12q45 0 45 -66zM596 595q0 44 -60.5 82.5t-126.5 48.5q-34 5 -119 -50q-99 -64 -145 -143q7 -31 42 -31q21 -5 93 45q109 75 128 86q8 4 16 4q19 0 21 -23
q6 -63 -113 -181q-107 -106 -259 -203q-17 -11 -17 -29q0 -19 17 -33q8 -7 30 -21t28 -16q93 18 170 31t124 13q19 0 27 -1.5t20.5 -4.5t19.5 -3q21 8 21 29q0 3 -2 11q-8 13 -18 22t-36 12t-60 5t-76 2q-36 0 -72 -3q179 109 267 199t80 152zM907 619q27 31 27 58
q0 20 -14.5 35.5t-40.5 24.5q-12 3 -23 3q-51 0 -71 -51q-17 -37 -108 -227q-64 -135 -92 -191q-49 -98 -105 -203q-30 -45 -30 -71t30 -36q9 -3 17 -3q26 0 46 39q7 13 19 45q81 162 158.5 292.5t186.5 284.5zM1110 516q9 13 9 26q0 20 -21 27.5t-45 7.5
q-56 0 -111.5 -33.5t-55.5 -63.5q-2 -13 10.5 -20.5t35.5 -7.5q-20 -63 -45 -126q-29 -72 -51 -122q-29 -62 -57 -123q-11 -25 -11 -44q0 -22 17.5 -35t54.5 -13q43 0 46 24.5t5 41.5q18 38 75 154q34 70 73 152q46 98 71 155zM1567 420q0 77 -46 114q-38 31 -102 31
q-27 0 -47 -4q-14 3 -27 3q-103 0 -202 -159q-90 -145 -90 -260q0 -15 3 -29q0 -62 52 -95q44 -28 104 -28q18 0 35 3q85 15 166 108q66 76 113 180q41 91 41 136z" />
    <glyph glyph-name="dagger" unicode="&#x2020;" horiz-adv-x="1547" 
d="M512 650q-69 -130 -127 -274q-22 0 -65 -2t-63 -2q52 64 119.5 137t135.5 141zM1530 413q0 -87 -93 -225q-96 -142 -160 -131q-34 6 -34 50q0 73 79 208q75 129 120 152q24 12 43 12q45 0 45 -66zM670 698q-25 12 -56 20t-60 8q-14 8 -24 8t-15 -2t-18 -10
q-108 -78 -204 -166q-106 -97 -176 -186q-10 -15 -8 -35q8 -26 25.5 -36t44.5 -10q11 0 24 1.5t20 2.5q69 7 138 15q-16 -42 -20 -52q-10 -27 -16 -50q-6 -17 -6 -29q0 -36 54 -36q47 0 61 18q3 4 8 32l50 124l97 4q15 0 20.5 8t5.5 22q0 9 -9 16q-13 10 -37 10l-53 1
q42 97 74 158q40 76 67.5 100.5t27.5 40.5q0 11 -15 23zM967 619q27 31 27 58q0 20 -14.5 35.5t-40.5 24.5q-12 3 -23 3q-51 0 -71 -51q-17 -37 -108 -227q-64 -135 -92 -191q-49 -98 -105 -203q-30 -45 -30 -71t30 -36q9 -3 17 -3q26 0 46 39q7 13 19 45
q81 162 158.5 292.5t186.5 284.5zM1170 516q9 13 9 26q0 20 -21 27.5t-45 7.5q-56 0 -111.5 -33.5t-55.5 -63.5q-2 -13 10.5 -20.5t35.5 -7.5q-20 -63 -45 -126q-29 -72 -51 -122q-29 -62 -57 -123q-11 -25 -11 -44q0 -22 17.5 -35t54.5 -13q43 0 46 24.5t5 41.5
q18 38 75 154q34 70 73 152q46 98 71 155zM1627 420q0 77 -46 114q-38 31 -102 31q-27 0 -47 -4q-14 3 -27 3q-103 0 -202 -159q-90 -145 -90 -260q0 -15 3 -29q0 -62 52 -95q44 -28 104 -28q18 0 35 3q85 15 166 108q66 76 113 180q41 91 41 136z" />
    <glyph glyph-name="daggerdbl" unicode="&#x2021;" horiz-adv-x="1517" 
d="M1500 413q0 -87 -93 -225q-96 -142 -160 -131q-34 6 -34 50q0 73 79 208q75 129 120 152q24 12 43 12q45 0 45 -66zM656 655q12 14 12 26q0 24 -39 37q-30 6 -74 6q-25 0 -95 -2t-88 -2q-8 0 -17 1t-12 1q-16 0 -20 -7t-7 -30q-16 -32 -50 -95t-50 -92q-11 -21 -11 -40
q0 -30 28 -47t61 -17q13 0 44 4q70 9 90 9q23 0 35 -3.5t14 -14.5q7 -36 -104 -85q-105 -46 -162 -46q-27 0 -55 10q-17 6 -33 13q-12 -2 -22.5 -12.5t-10.5 -25.5q0 -3 2 -11q13 -31 49 -52.5t85 -25.5q88 0 208 59q136 67 145 143q0 56 -58 106q-63 54 -146 54q5 23 25 58
q14 24 38 57q54 8 112 16t106 8zM937 619q27 31 27 58q0 20 -14.5 35.5t-40.5 24.5q-12 3 -23 3q-51 0 -71 -51q-17 -37 -108 -227q-64 -135 -92 -191q-49 -98 -105 -203q-30 -45 -30 -71t30 -36q9 -3 17 -3q26 0 46 39q7 13 19 45q81 162 158.5 292.5t186.5 284.5z
M1140 516q9 13 9 26q0 20 -21 27.5t-45 7.5q-56 0 -111.5 -33.5t-55.5 -63.5q-2 -13 10.5 -20.5t35.5 -7.5q-20 -63 -45 -126q-29 -72 -51 -122q-29 -62 -57 -123q-11 -25 -11 -44q0 -22 17.5 -35t54.5 -13q43 0 46 24.5t5 41.5q18 38 75 154q34 70 73 152q46 98 71 155z
M1597 420q0 77 -46 114q-38 31 -102 31q-27 0 -47 -4q-14 3 -27 3q-103 0 -202 -159q-90 -145 -90 -260q0 -15 3 -29q0 -62 52 -95q44 -28 104 -28q18 0 35 3q85 15 166 108q66 76 113 180q41 91 41 136z" />
    <glyph glyph-name="bullet" unicode="&#x2022;" horiz-adv-x="317" 
d="M337 293q4 15 4 32q0 30 -19 51q-22 25 -74 39q-15 4 -33 4q-42 0 -77 -23.5t-43 -51.5q-2 -14 -2 -19q0 -39 33 -67q29 -25 77 -36q15 -4 30 -4q42 0 74 30q22 21 30 45z" />
    <glyph glyph-name="ellipsis" unicode="&#x2026;" horiz-adv-x="1215" 
d="M1470 413q0 -87 -93 -225q-96 -142 -160 -131q-34 6 -34 50q0 73 79 208q75 129 120 152q24 12 43 12q45 0 45 -66zM606 638q-4 37 -50 64.5t-94 27.5q-62 0 -134 -32.5t-130 -86.5q-30 -29 -30 -47q0 -10 9 -15t24 -5q13 0 30 10q9 5 18 11q53 31 95 50q48 22 97 37
q21 6 32 6q17 0 17 -12q0 -7 -4 -14t-10 -13q-57 -61 -136 -105.5t-126 -44.5q-13 0 -16.5 -11.5t-3.5 -33.5q0 -55 59 -55q20 6 38 8t42 2q52 0 52 -36q0 -13 -11 -30q-31 -38 -71 -62q-48 -29 -96 -29q-28 0 -55 5t-53 10q-41 0 -41 -27q0 -8 1 -12q32 -26 73.5 -39.5
t97.5 -13.5q102 0 205 65.5t103 131.5q0 44 -54 79q-43 28 -91 36q88 36 150.5 88.5t62.5 92.5zM907 619q27 31 27 58q0 20 -14.5 35.5t-40.5 24.5q-12 3 -23 3q-51 0 -71 -51q-17 -37 -108 -227q-64 -135 -92 -191q-49 -98 -105 -203q-30 -45 -30 -71t30 -36q9 -3 17 -3
q26 0 46 39q7 13 19 45q81 162 158.5 292.5t186.5 284.5zM1110 516q9 13 9 26q0 20 -21 27.5t-45 7.5q-56 0 -111.5 -33.5t-55.5 -63.5q-2 -13 10.5 -20.5t35.5 -7.5q-20 -63 -45 -126q-29 -72 -51 -122q-29 -62 -57 -123q-11 -25 -11 -44q0 -22 17.5 -35t54.5 -13
q43 0 46 24.5t5 41.5q18 38 75 154q34 70 73 152q46 98 71 155zM1567 420q0 77 -46 114q-38 31 -102 31q-27 0 -47 -4q-14 3 -27 3q-103 0 -202 -159q-90 -145 -90 -260q0 -15 3 -29q0 -62 52 -95q44 -28 104 -28q18 0 35 3q85 15 166 108q66 76 113 180q41 91 41 136z" />
    <glyph glyph-name="perthousand" unicode="&#x2030;" horiz-adv-x="1417" 
d="M1400 413q0 -87 -93 -225q-96 -142 -160 -131q-34 6 -34 50q0 73 79 208q75 129 120 152q24 12 43 12q45 0 45 -66zM588 613q6 17 6 33q0 35 -26 73q-12 10 -26 16t-30 6q-31 0 -145 -17.5t-169 -34.5q-26 -15 -26 -33q0 -15 22 -18q22 0 106.5 3.5t119.5 3.5
q-69 -83 -135 -180q-69 -101 -137 -221q-10 -19 -10 -36q0 -25 22.5 -39.5t57.5 -14.5q19 0 25 15q4 17 5 21q49 98 154 218q93 102 186 205zM837 619q27 31 27 58q0 20 -14.5 35.5t-40.5 24.5q-12 3 -23 3q-51 0 -71 -51q-17 -37 -108 -227q-64 -135 -92 -191
q-49 -98 -105 -203q-30 -45 -30 -71t30 -36q9 -3 17 -3q26 0 46 39q7 13 19 45q81 162 158.5 292.5t186.5 284.5zM1040 516q9 13 9 26q0 20 -21 27.5t-45 7.5q-56 0 -111.5 -33.5t-55.5 -63.5q-2 -13 10.5 -20.5t35.5 -7.5q-20 -63 -45 -126q-29 -72 -51 -122
q-29 -62 -57 -123q-11 -25 -11 -44q0 -22 17.5 -35t54.5 -13q43 0 46 24.5t5 41.5q18 38 75 154q34 70 73 152q46 98 71 155zM1497 420q0 77 -46 114q-38 31 -102 31q-27 0 -47 -4q-14 3 -27 3q-103 0 -202 -159q-90 -145 -90 -260q0 -15 3 -29q0 -62 52 -95q44 -28 104 -28
q18 0 35 3q85 15 166 108q66 76 113 180q41 91 41 136z" />
    <glyph glyph-name="guilsinglleft" unicode="&#x2039;" horiz-adv-x="1487" 
d="M499 621q-39 -71 -101.5 -129.5t-128.5 -82.5q-14 -4 -20 -4q-23 0 -23 18q0 11 15 32q42 61 95 107.5t115 77.5q22 14 37 14q16 0 16 -16q0 -9 -5 -17zM1470 413q0 -87 -93 -225q-96 -142 -160 -131q-34 6 -34 50q0 73 79 208q75 129 120 152q24 12 43 12q45 0 45 -66z
M645 704q-25 14 -54 14q-24 0 -51 -12q-19 25 -45 35.5t-61 10.5q-68 -10 -182 -112q-123 -110 -123 -185q0 -56 22 -84q27 -34 87 -34q14 0 22 1q25 0 58.5 15t51.5 31q-25 -35 -47 -75q-25 -44 -36 -80q-4 -13 -4 -27q0 -44 56 -44q23 0 41 5t27 17q41 110 99 224
q54 105 133 232l12 21q8 14 8 23q0 14 -14 24zM907 619q27 31 27 58q0 20 -14.5 35.5t-40.5 24.5q-12 3 -23 3q-51 0 -71 -51q-17 -37 -108 -227q-64 -135 -92 -191q-49 -98 -105 -203q-30 -45 -30 -71t30 -36q9 -3 17 -3q26 0 46 39q7 13 19 45q81 162 158.5 292.5
t186.5 284.5zM1110 516q9 13 9 26q0 20 -21 27.5t-45 7.5q-56 0 -111.5 -33.5t-55.5 -63.5q-2 -13 10.5 -20.5t35.5 -7.5q-20 -63 -45 -126q-29 -72 -51 -122q-29 -62 -57 -123q-11 -25 -11 -44q0 -22 17.5 -35t54.5 -13q43 0 46 24.5t5 41.5q18 38 75 154q34 70 73 152
q46 98 71 155zM1567 420q0 77 -46 114q-38 31 -102 31q-27 0 -47 -4q-14 3 -27 3q-103 0 -202 -159q-90 -145 -90 -260q0 -15 3 -29q0 -62 52 -95q44 -28 104 -28q18 0 35 3q85 15 166 108q66 76 113 180q41 91 41 136z" />
    <glyph glyph-name="guilsinglright" unicode="&#x203a;" 
d="M386 3q-146 0 -249.5 103.5t-103.5 250.5q0 146 103 250t250 104q146 0 250 -104t104 -250t-104 -250t-250 -104zM386 51q127 0 216 90t89 216t-88.5 215.5t-216.5 89.5q-126 0 -216 -89t-90 -216q0 -126 90 -216t216 -90zM386 72q-118 0 -201.5 83.5t-83.5 201.5
q0 116 84 199t201 83t200.5 -82.5t83.5 -199.5q0 -118 -83.5 -201.5t-200.5 -83.5zM386 116q53 0 99 36q35 27 61 71q-78 -21 -157 -21q-80 0 -163 21q26 -43 60 -70q47 -37 100 -37zM216 238q43 -10 84 -15t86 -5q83 0 171 20l54 86h-450zM349 357h76l-38 91zM294 427
q4 -4 19 3.5t14 10.5q-25 56 -49 112q-6 7 -34 -11q-12 -12 -24 -23zM480 427l72 92q4 5 -23.5 23t-33.5 11q-15 -19 -26 -51t-21 -61q3 -4 6 -7q20 -13 26 -7zM645 12v38h-15v11h41v-11h-15v-38h-11zM676 12v49h15l9 -38l9 38h14v-49h-9v38l-10 -38h-9l-10 38v-38h-9z" />
    <glyph glyph-name="trademark" unicode="&#x2122;" horiz-adv-x="1132" 
d="M700 697q0 31 -88 31q-101 0 -217.5 -6t-201.5 -23q-22 -4 -41 -14.5t-20 -20.5q-2 -16 41 -25q18 -4 53 -8q27 0 71 1.5t47 1.5q-49 -104 -91 -211q-38 -99 -75 -211q-3 -19 11 -33q18 -18 53 -18q40 0 47 17l8 38q50 127 97 222q54 110 122 214l132 16q17 0 34.5 8
t17.5 21zM1244 677q-26 18 -57.5 30t-59.5 12q-10 0 -30 -2t-23 -26q-69 -97 -126 -187q-63 -101 -111 -193q26 135 39 192q27 125 49 189q-25 11 -50.5 17t-54.5 6q-40 0 -54.5 -6t-14.5 -16q-34 -74 -76.5 -163t-83.5 -174q-52 -109 -61 -129q-12 -26 -14 -37
q0 -15 14.5 -23.5t39.5 -8.5q28 0 35 58q65 163 144 306q-23 -179 -26 -200q-7 -49 -17 -106q0 -20 19.5 -25.5t63.5 -5.5q5 -1 16 -1q33 0 46 29q17 47 84 157q62 101 107 162q-31 -59 -74 -188t-39 -144q0 -22 15 -32.5t53 -10.5q33 0 48 6.5t15 24.5q20 74 40.5 146
t48.5 147t63 141z" />
    </font>
</defs>
</svg>
